<?xml version="1.0" encoding="UTF-8" standalone="no"?>
<!DOCTYPE svg PUBLIC "-//W3C//DTD SVG 1.1//EN"
 "http://www.w3.org/Graphics/SVG/1.1/DTD/svg11.dtd">
<!-- Generated by graphviz version 9.0.0 (20231125.0833)
 -->
<!-- Title: snakemake_dag Pages: 1 -->
<svg width="491pt" height="620pt"
 viewBox="0.00 0.00 491.12 620.00" xmlns="http://www.w3.org/2000/svg" xmlns:xlink="http://www.w3.org/1999/xlink">
<g id="graph0" class="graph" transform="scale(1 1) rotate(0) translate(4 616)">
<title>snakemake_dag</title>
<polygon fill="white" stroke="none" points="-4,4 -4,-616 487.12,-616 487.12,4 -4,4"/>
<!-- 0 -->
<g id="node1" class="node">
<title>0</title>
<path fill="none" stroke="#56a9d8" stroke-width="2" d="M296.88,-36C296.88,-36 265.12,-36 265.12,-36 259.12,-36 253.12,-30 253.12,-24 253.12,-24 253.12,-12 253.12,-12 253.12,-6 259.12,0 265.12,0 265.12,0 296.88,0 296.88,0 302.88,0 308.88,-6 308.88,-12 308.88,-12 308.88,-24 308.88,-24 308.88,-30 302.88,-36 296.88,-36"/>
<text text-anchor="middle" x="281" y="-14.88" font-family="sans" font-size="10.00">multiQC</text>
</g>
<!-- 1 -->
<g id="node2" class="node">
<title>1</title>
<path fill="none" stroke="#56d0d8" stroke-width="2" d="M337,-108C337,-108 225,-108 225,-108 219,-108 213,-102 213,-96 213,-96 213,-84 213,-84 213,-78 219,-72 225,-72 225,-72 337,-72 337,-72 343,-72 349,-78 349,-84 349,-84 349,-96 349,-96 349,-102 343,-108 337,-108"/>
<text text-anchor="middle" x="281" y="-86.88" font-family="sans" font-size="10.00">gatk_depth_of_coverage</text>
</g>
<!-- 1&#45;&gt;0 -->
<g id="edge5" class="edge">
<title>1&#45;&gt;0</title>
<path fill="none" stroke="grey" stroke-width="2" d="M281,-71.34C281,-64.75 281,-57.08 281,-49.67"/>
<polygon fill="grey" stroke="grey" stroke-width="2" points="284.5,-49.93 281,-39.93 277.5,-49.93 284.5,-49.93"/>
</g>
<!-- 2 -->
<g id="node3" class="node">
<title>2</title>
<path fill="none" stroke="#567bd8" stroke-width="2" d="M237.5,-252C237.5,-252 170.5,-252 170.5,-252 164.5,-252 158.5,-246 158.5,-240 158.5,-240 158.5,-228 158.5,-228 158.5,-222 164.5,-216 170.5,-216 170.5,-216 237.5,-216 237.5,-216 243.5,-216 249.5,-222 249.5,-228 249.5,-228 249.5,-240 249.5,-240 249.5,-246 243.5,-252 237.5,-252"/>
<text text-anchor="middle" x="204" y="-230.88" font-family="sans" font-size="10.00">gatk_applybqsr</text>
</g>
<!-- 2&#45;&gt;1 -->
<g id="edge6" class="edge">
<title>2&#45;&gt;1</title>
<path fill="none" stroke="grey" stroke-width="2" d="M205.75,-215.22C208.22,-196.45 213.99,-166.53 227,-144 232.51,-134.46 240.21,-125.48 248.07,-117.72"/>
<polygon fill="grey" stroke="grey" stroke-width="2" points="250.42,-120.31 255.38,-110.95 245.66,-115.18 250.42,-120.31"/>
</g>
<!-- 8 -->
<g id="node9" class="node">
<title>8</title>
<path fill="none" stroke="#56d8b9" stroke-width="2" d="M317.62,-180C317.62,-180 248.38,-180 248.38,-180 242.38,-180 236.38,-174 236.38,-168 236.38,-168 236.38,-156 236.38,-156 236.38,-150 242.38,-144 248.38,-144 248.38,-144 317.62,-144 317.62,-144 323.62,-144 329.62,-150 329.62,-156 329.62,-156 329.62,-168 329.62,-168 329.62,-174 323.62,-180 317.62,-180"/>
<text text-anchor="middle" x="283" y="-158.88" font-family="sans" font-size="10.00">samtools_index</text>
</g>
<!-- 2&#45;&gt;8 -->
<g id="edge14" class="edge">
<title>2&#45;&gt;8</title>
<path fill="none" stroke="grey" stroke-width="2" d="M223.94,-215.34C232.76,-207.52 243.32,-198.16 253.05,-189.53"/>
<polygon fill="grey" stroke="grey" stroke-width="2" points="255.37,-192.16 260.53,-182.91 250.73,-186.92 255.37,-192.16"/>
</g>
<!-- 9 -->
<g id="node10" class="node">
<title>9</title>
<path fill="none" stroke="#8fd856" stroke-width="2" d="M130,-180C130,-180 12,-180 12,-180 6,-180 0,-174 0,-168 0,-168 0,-156 0,-156 0,-150 6,-144 12,-144 12,-144 130,-144 130,-144 136,-144 142,-150 142,-156 142,-156 142,-168 142,-168 142,-174 136,-180 130,-180"/>
<text text-anchor="middle" x="71" y="-158.88" font-family="sans" font-size="10.00">picard_collect_hs_metrics</text>
</g>
<!-- 2&#45;&gt;9 -->
<g id="edge16" class="edge">
<title>2&#45;&gt;9</title>
<path fill="none" stroke="grey" stroke-width="2" d="M170.09,-215.15C153.76,-206.56 133.93,-196.12 116.32,-186.85"/>
<polygon fill="grey" stroke="grey" stroke-width="2" points="118,-183.78 107.52,-182.22 114.74,-189.98 118,-183.78"/>
</g>
<!-- 11 -->
<g id="node12" class="node">
<title>11</title>
<path fill="none" stroke="#68d856" stroke-width="2" d="M183.12,-108C183.12,-108 116.88,-108 116.88,-108 110.88,-108 104.88,-102 104.88,-96 104.88,-96 104.88,-84 104.88,-84 104.88,-78 110.88,-72 116.88,-72 116.88,-72 183.12,-72 183.12,-72 189.12,-72 195.12,-78 195.12,-84 195.12,-84 195.12,-96 195.12,-96 195.12,-102 189.12,-108 183.12,-108"/>
<text text-anchor="middle" x="150" y="-86.88" font-family="sans" font-size="10.00">samtools_stats</text>
</g>
<!-- 2&#45;&gt;11 -->
<g id="edge17" class="edge">
<title>2&#45;&gt;11</title>
<path fill="none" stroke="grey" stroke-width="2" d="M197.16,-215.02C188.15,-191.33 172.19,-149.35 161.36,-120.86"/>
<polygon fill="grey" stroke="grey" stroke-width="2" points="164.69,-119.77 157.86,-111.67 158.14,-122.26 164.69,-119.77"/>
</g>
<!-- 3 -->
<g id="node4" class="node">
<title>3</title>
<path fill="none" stroke="#d8cb56" stroke-width="2" d="M337.38,-396C337.38,-396 242.62,-396 242.62,-396 236.62,-396 230.62,-390 230.62,-384 230.62,-384 230.62,-372 230.62,-372 230.62,-366 236.62,-360 242.62,-360 242.62,-360 337.38,-360 337.38,-360 343.38,-360 349.38,-366 349.38,-372 349.38,-372 349.38,-384 349.38,-384 349.38,-390 343.38,-396 337.38,-396"/>
<text text-anchor="middle" x="290" y="-374.88" font-family="sans" font-size="10.00">markduplicates_bam</text>
</g>
<!-- 3&#45;&gt;2 -->
<g id="edge9" class="edge">
<title>3&#45;&gt;2</title>
<path fill="none" stroke="grey" stroke-width="2" d="M290.24,-359.29C289.7,-340.31 286.53,-309.96 273,-288 266.41,-277.31 256.83,-267.97 246.89,-260.24"/>
<polygon fill="grey" stroke="grey" stroke-width="2" points="249.13,-257.54 238.97,-254.54 245.04,-263.22 249.13,-257.54"/>
</g>
<!-- 7 -->
<g id="node8" class="node">
<title>7</title>
<path fill="none" stroke="#d85656" stroke-width="2" d="M252.25,-324C252.25,-324 153.75,-324 153.75,-324 147.75,-324 141.75,-318 141.75,-312 141.75,-312 141.75,-300 141.75,-300 141.75,-294 147.75,-288 153.75,-288 153.75,-288 252.25,-288 252.25,-288 258.25,-288 264.25,-294 264.25,-300 264.25,-300 264.25,-312 264.25,-312 264.25,-318 258.25,-324 252.25,-324"/>
<text text-anchor="middle" x="203" y="-302.88" font-family="sans" font-size="10.00">gatk_baserecalibrator</text>
</g>
<!-- 3&#45;&gt;7 -->
<g id="edge13" class="edge">
<title>3&#45;&gt;7</title>
<path fill="none" stroke="grey" stroke-width="2" d="M268.05,-359.34C258.13,-351.36 246.21,-341.77 235.3,-332.99"/>
<polygon fill="grey" stroke="grey" stroke-width="2" points="237.59,-330.34 227.61,-326.8 233.2,-335.8 237.59,-330.34"/>
</g>
<!-- 4 -->
<g id="node5" class="node">
<title>4</title>
<path fill="none" stroke="#d8a456" stroke-width="2" d="M324.5,-468C324.5,-468 281.5,-468 281.5,-468 275.5,-468 269.5,-462 269.5,-456 269.5,-456 269.5,-444 269.5,-444 269.5,-438 275.5,-432 281.5,-432 281.5,-432 324.5,-432 324.5,-432 330.5,-432 336.5,-438 336.5,-444 336.5,-444 336.5,-456 336.5,-456 336.5,-462 330.5,-468 324.5,-468"/>
<text text-anchor="middle" x="303" y="-446.88" font-family="sans" font-size="10.00">bwa_mem</text>
</g>
<!-- 4&#45;&gt;3 -->
<g id="edge10" class="edge">
<title>4&#45;&gt;3</title>
<path fill="none" stroke="grey" stroke-width="2" d="M299.72,-431.34C298.5,-424.75 297.07,-417.08 295.7,-409.67"/>
<polygon fill="grey" stroke="grey" stroke-width="2" points="299.14,-409.07 293.88,-399.88 292.26,-410.35 299.14,-409.07"/>
</g>
<!-- 5 -->
<g id="node6" class="node">
<title>5</title>
<path fill="none" stroke="#56d86b" stroke-width="2" d="M392,-540C392,-540 362,-540 362,-540 356,-540 350,-534 350,-528 350,-528 350,-516 350,-516 350,-510 356,-504 362,-504 362,-504 392,-504 392,-504 398,-504 404,-510 404,-516 404,-516 404,-528 404,-528 404,-534 398,-540 392,-540"/>
<text text-anchor="middle" x="377" y="-518.88" font-family="sans" font-size="10.00">fastp</text>
</g>
<!-- 5&#45;&gt;0 -->
<g id="edge3" class="edge">
<title>5&#45;&gt;0</title>
<path fill="none" stroke="grey" stroke-width="2" d="M377,-503.07C377,-476.13 377,-423.62 377,-379 377,-379 377,-379 377,-161 377,-120.55 380.47,-105.63 358,-72 348.77,-58.19 334.61,-46.95 320.95,-38.44"/>
<polygon fill="grey" stroke="grey" stroke-width="2" points="322.73,-35.42 312.32,-33.44 319.22,-41.48 322.73,-35.42"/>
</g>
<!-- 5&#45;&gt;4 -->
<g id="edge11" class="edge">
<title>5&#45;&gt;4</title>
<path fill="none" stroke="grey" stroke-width="2" d="M358.33,-503.34C350.15,-495.6 340.38,-486.36 331.34,-477.81"/>
<polygon fill="grey" stroke="grey" stroke-width="2" points="333.79,-475.31 324.12,-470.98 328.98,-480.4 333.79,-475.31"/>
</g>
<!-- 6 -->
<g id="node7" class="node">
<title>6</title>
<path fill="none" stroke="#d87d56" stroke-width="2" d="M438.62,-612C438.62,-612 369.38,-612 369.38,-612 363.38,-612 357.38,-606 357.38,-600 357.38,-600 357.38,-588 357.38,-588 357.38,-582 363.38,-576 369.38,-576 369.38,-576 438.62,-576 438.62,-576 444.62,-576 450.62,-582 450.62,-588 450.62,-588 450.62,-600 450.62,-600 450.62,-606 444.62,-612 438.62,-612"/>
<text text-anchor="middle" x="404" y="-590.88" font-family="sans" font-size="10.00">combine_fastqs</text>
</g>
<!-- 6&#45;&gt;5 -->
<g id="edge12" class="edge">
<title>6&#45;&gt;5</title>
<path fill="none" stroke="grey" stroke-width="2" d="M397.19,-575.34C394.55,-568.51 391.46,-560.5 388.51,-552.83"/>
<polygon fill="grey" stroke="grey" stroke-width="2" points="391.86,-551.8 384.99,-543.73 385.33,-554.32 391.86,-551.8"/>
</g>
<!-- 12 -->
<g id="node13" class="node">
<title>12</title>
<path fill="none" stroke="#56d892" stroke-width="2" d="M471.12,-468C471.12,-468 416.88,-468 416.88,-468 410.88,-468 404.88,-462 404.88,-456 404.88,-456 404.88,-444 404.88,-444 404.88,-438 410.88,-432 416.88,-432 416.88,-432 471.12,-432 471.12,-432 477.12,-432 483.12,-438 483.12,-444 483.12,-444 483.12,-456 483.12,-456 483.12,-462 477.12,-468 471.12,-468"/>
<text text-anchor="middle" x="444" y="-446.88" font-family="sans" font-size="10.00">fastq_screen</text>
</g>
<!-- 6&#45;&gt;12 -->
<g id="edge18" class="edge">
<title>6&#45;&gt;12</title>
<path fill="none" stroke="grey" stroke-width="2" d="M409.07,-575.02C415.71,-551.44 427.46,-509.73 435.48,-481.25"/>
<polygon fill="grey" stroke="grey" stroke-width="2" points="438.81,-482.33 438.15,-471.75 432.07,-480.43 438.81,-482.33"/>
</g>
<!-- 7&#45;&gt;2 -->
<g id="edge8" class="edge">
<title>7&#45;&gt;2</title>
<path fill="none" stroke="grey" stroke-width="2" d="M203.25,-287.34C203.35,-280.75 203.46,-273.08 203.56,-265.67"/>
<polygon fill="grey" stroke="grey" stroke-width="2" points="207.06,-265.98 203.7,-255.93 200.06,-265.88 207.06,-265.98"/>
</g>
<!-- 8&#45;&gt;1 -->
<g id="edge7" class="edge">
<title>8&#45;&gt;1</title>
<path fill="none" stroke="grey" stroke-width="2" d="M282.5,-143.34C282.31,-136.75 282.09,-129.08 281.88,-121.67"/>
<polygon fill="grey" stroke="grey" stroke-width="2" points="285.38,-121.82 281.6,-111.93 278.39,-122.02 285.38,-121.82"/>
</g>
<!-- 9&#45;&gt;0 -->
<g id="edge1" class="edge">
<title>9&#45;&gt;0</title>
<path fill="none" stroke="grey" stroke-width="2" d="M71.11,-143.1C72.22,-123.09 77.1,-91 96,-72 134.06,-33.74 197.74,-22.66 239.56,-19.7"/>
<polygon fill="grey" stroke="grey" stroke-width="2" points="239.49,-23.2 249.28,-19.16 239.11,-16.22 239.49,-23.2"/>
</g>
<!-- 10 -->
<g id="node11" class="node">
<title>10</title>
<path fill="none" stroke="#b6d856" stroke-width="2" d="M115,-252C115,-252 27,-252 27,-252 21,-252 15,-246 15,-240 15,-240 15,-228 15,-228 15,-222 21,-216 27,-216 27,-216 115,-216 115,-216 121,-216 127,-222 127,-228 127,-228 127,-240 127,-240 127,-246 121,-252 115,-252"/>
<text text-anchor="middle" x="71" y="-230.88" font-family="sans" font-size="10.00">bed_to_interval_list</text>
</g>
<!-- 10&#45;&gt;9 -->
<g id="edge15" class="edge">
<title>10&#45;&gt;9</title>
<path fill="none" stroke="grey" stroke-width="2" d="M71,-215.34C71,-208.75 71,-201.08 71,-193.67"/>
<polygon fill="grey" stroke="grey" stroke-width="2" points="74.5,-193.93 71,-183.93 67.5,-193.93 74.5,-193.93"/>
</g>
<!-- 11&#45;&gt;0 -->
<g id="edge2" class="edge">
<title>11&#45;&gt;0</title>
<path fill="none" stroke="grey" stroke-width="2" d="M183.4,-71.15C201.02,-61.74 222.75,-50.12 241.24,-40.25"/>
<polygon fill="grey" stroke="grey" stroke-width="2" points="242.71,-43.43 249.88,-35.63 239.41,-37.26 242.71,-43.43"/>
</g>
<!-- 12&#45;&gt;0 -->
<g id="edge4" class="edge">
<title>12&#45;&gt;0</title>
<path fill="none" stroke="grey" stroke-width="2" d="M440.89,-431.13C436.5,-404.28 429,-351.87 429,-307 429,-307 429,-307 429,-161 429,-117.99 420.71,-103.1 391,-72 372.22,-52.34 344.65,-39.08 321.81,-30.74"/>
<polygon fill="grey" stroke="grey" stroke-width="2" points="323.15,-27.5 312.56,-27.58 320.89,-34.12 323.15,-27.5"/>
</g>
</g>
</svg>
