<?xml version="1.0" encoding="UTF-8" standalone="no"?>
<!DOCTYPE svg PUBLIC "-//W3C//DTD SVG 1.1//EN"
 "http://www.w3.org/Graphics/SVG/1.1/DTD/svg11.dtd">
<!-- Generated by graphviz version 9.0.0 (20231125.0833)
 -->
<!-- Title: snakemake_dag Pages: 1 -->
<svg width="318pt" height="620pt"
 viewBox="0.00 0.00 317.98 620.00" xmlns="http://www.w3.org/2000/svg" xmlns:xlink="http://www.w3.org/1999/xlink">
<g id="graph0" class="graph" transform="scale(1 1) rotate(0) translate(4 616)">
<title>snakemake_dag</title>
<polygon fill="white" stroke="none" points="-4,4 -4,-616 313.98,-616 313.98,4 -4,4"/>
<!-- 0 -->
<g id="node1" class="node">
<title>0</title>
<path fill="none" stroke="#5682d8" stroke-width="2" d="M178.73,-36C178.73,-36 146.98,-36 146.98,-36 140.98,-36 134.98,-30 134.98,-24 134.98,-24 134.98,-12 134.98,-12 134.98,-6 140.98,0 146.98,0 146.98,0 178.73,0 178.73,0 184.73,0 190.73,-6 190.73,-12 190.73,-12 190.73,-24 190.73,-24 190.73,-30 184.73,-36 178.73,-36"/>
<text text-anchor="middle" x="162.86" y="-14.88" font-family="sans" font-size="10.00">multiQC</text>
</g>
<!-- 1 -->
<g id="node2" class="node">
<title>1</title>
<path fill="none" stroke="#56d86b" stroke-width="2" d="M153.86,-108C153.86,-108 41.86,-108 41.86,-108 35.86,-108 29.86,-102 29.86,-96 29.86,-96 29.86,-84 29.86,-84 29.86,-78 35.86,-72 41.86,-72 41.86,-72 153.86,-72 153.86,-72 159.86,-72 165.86,-78 165.86,-84 165.86,-84 165.86,-96 165.86,-96 165.86,-102 159.86,-108 153.86,-108"/>
<text text-anchor="middle" x="97.86" y="-86.88" font-family="sans" font-size="10.00">gatk_depth_of_coverage</text>
</g>
<!-- 1&#45;&gt;0 -->
<g id="edge2" class="edge">
<title>1&#45;&gt;0</title>
<path fill="none" stroke="grey" stroke-width="2" d="M114.26,-71.34C121.29,-63.77 129.66,-54.75 137.46,-46.35"/>
<polygon fill="grey" stroke="grey" stroke-width="2" points="139.93,-48.83 144.17,-39.12 134.8,-44.07 139.93,-48.83"/>
</g>
<!-- 2 -->
<g id="node3" class="node">
<title>2</title>
<path fill="none" stroke="#56b1d8" stroke-width="2" d="M187.36,-252C187.36,-252 120.36,-252 120.36,-252 114.36,-252 108.36,-246 108.36,-240 108.36,-240 108.36,-228 108.36,-228 108.36,-222 114.36,-216 120.36,-216 120.36,-216 187.36,-216 187.36,-216 193.36,-216 199.36,-222 199.36,-228 199.36,-228 199.36,-240 199.36,-240 199.36,-246 193.36,-252 187.36,-252"/>
<text text-anchor="middle" x="153.86" y="-230.88" font-family="sans" font-size="10.00">gatk_applybqsr</text>
</g>
<!-- 2&#45;&gt;1 -->
<g id="edge6" class="edge">
<title>2&#45;&gt;1</title>
<path fill="none" stroke="grey" stroke-width="2" d="M126.85,-215.11C115.65,-206.06 103.89,-194.02 97.86,-180 90.01,-161.77 90.04,-139.42 92.01,-121.68"/>
<polygon fill="grey" stroke="grey" stroke-width="2" points="95.46,-122.28 93.42,-111.88 88.53,-121.28 95.46,-122.28"/>
</g>
<!-- 8 -->
<g id="node9" class="node">
<title>8</title>
<path fill="none" stroke="#d88556" stroke-width="2" d="M188.48,-180C188.48,-180 119.23,-180 119.23,-180 113.23,-180 107.23,-174 107.23,-168 107.23,-168 107.23,-156 107.23,-156 107.23,-150 113.23,-144 119.23,-144 119.23,-144 188.48,-144 188.48,-144 194.48,-144 200.48,-150 200.48,-156 200.48,-156 200.48,-168 200.48,-168 200.48,-174 194.48,-180 188.48,-180"/>
<text text-anchor="middle" x="153.86" y="-158.88" font-family="sans" font-size="10.00">samtools_index</text>
</g>
<!-- 2&#45;&gt;8 -->
<g id="edge13" class="edge">
<title>2&#45;&gt;8</title>
<path fill="none" stroke="grey" stroke-width="2" d="M153.86,-215.34C153.86,-208.75 153.86,-201.08 153.86,-193.67"/>
<polygon fill="grey" stroke="grey" stroke-width="2" points="157.36,-193.93 153.86,-183.93 150.36,-193.93 157.36,-193.93"/>
</g>
<!-- 9 -->
<g id="node10" class="node">
<title>9</title>
<path fill="none" stroke="#d8b456" stroke-width="2" d="M261.98,-108C261.98,-108 195.73,-108 195.73,-108 189.73,-108 183.73,-102 183.73,-96 183.73,-96 183.73,-84 183.73,-84 183.73,-78 189.73,-72 195.73,-72 195.73,-72 261.98,-72 261.98,-72 267.98,-72 273.98,-78 273.98,-84 273.98,-84 273.98,-96 273.98,-96 273.98,-102 267.98,-108 261.98,-108"/>
<text text-anchor="middle" x="228.86" y="-86.88" font-family="sans" font-size="10.00">samtools_stats</text>
</g>
<!-- 2&#45;&gt;9 -->
<g id="edge14" class="edge">
<title>2&#45;&gt;9</title>
<path fill="none" stroke="grey" stroke-width="2" d="M178.67,-215.17C189.83,-205.9 202.19,-193.66 209.86,-180 219.85,-162.19 224.6,-139.68 226.85,-121.75"/>
<polygon fill="grey" stroke="grey" stroke-width="2" points="230.33,-122.12 227.84,-111.82 223.36,-121.42 230.33,-122.12"/>
</g>
<!-- 3 -->
<g id="node4" class="node">
<title>3</title>
<path fill="none" stroke="#56d8c9" stroke-width="2" d="M166.23,-396C166.23,-396 71.48,-396 71.48,-396 65.48,-396 59.48,-390 59.48,-384 59.48,-384 59.48,-372 59.48,-372 59.48,-366 65.48,-360 71.48,-360 71.48,-360 166.23,-360 166.23,-360 172.23,-360 178.23,-366 178.23,-372 178.23,-372 178.23,-384 178.23,-384 178.23,-390 172.23,-396 166.23,-396"/>
<text text-anchor="middle" x="118.86" y="-374.88" font-family="sans" font-size="10.00">markduplicates_bam</text>
</g>
<!-- 3&#45;&gt;2 -->
<g id="edge8" class="edge">
<title>3&#45;&gt;2</title>
<path fill="none" stroke="grey" stroke-width="2" d="M112.92,-359.05C107.82,-340.67 102.51,-311.54 110.86,-288 114.12,-278.79 119.75,-270.01 125.88,-262.34"/>
<polygon fill="grey" stroke="grey" stroke-width="2" points="128.42,-264.74 132.37,-254.91 123.16,-260.14 128.42,-264.74"/>
</g>
<!-- 7 -->
<g id="node8" class="node">
<title>7</title>
<path fill="none" stroke="#56d89a" stroke-width="2" d="M230.11,-324C230.11,-324 131.61,-324 131.61,-324 125.61,-324 119.61,-318 119.61,-312 119.61,-312 119.61,-300 119.61,-300 119.61,-294 125.61,-288 131.61,-288 131.61,-288 230.11,-288 230.11,-288 236.11,-288 242.11,-294 242.11,-300 242.11,-300 242.11,-312 242.11,-312 242.11,-318 236.11,-324 230.11,-324"/>
<text text-anchor="middle" x="180.86" y="-302.88" font-family="sans" font-size="10.00">gatk_baserecalibrator</text>
</g>
<!-- 3&#45;&gt;7 -->
<g id="edge12" class="edge">
<title>3&#45;&gt;7</title>
<path fill="none" stroke="grey" stroke-width="2" d="M134.5,-359.34C141.13,-351.85 149.02,-342.95 156.39,-334.63"/>
<polygon fill="grey" stroke="grey" stroke-width="2" points="158.98,-336.97 162.99,-327.17 153.74,-332.33 158.98,-336.97"/>
</g>
<!-- 4 -->
<g id="node5" class="node">
<title>4</title>
<path fill="none" stroke="#d85656" stroke-width="2" d="M140.36,-468C140.36,-468 97.36,-468 97.36,-468 91.36,-468 85.36,-462 85.36,-456 85.36,-456 85.36,-444 85.36,-444 85.36,-438 91.36,-432 97.36,-432 97.36,-432 140.36,-432 140.36,-432 146.36,-432 152.36,-438 152.36,-444 152.36,-444 152.36,-456 152.36,-456 152.36,-462 146.36,-468 140.36,-468"/>
<text text-anchor="middle" x="118.86" y="-446.88" font-family="sans" font-size="10.00">bwa_mem</text>
</g>
<!-- 4&#45;&gt;3 -->
<g id="edge9" class="edge">
<title>4&#45;&gt;3</title>
<path fill="none" stroke="grey" stroke-width="2" d="M118.86,-431.34C118.86,-424.75 118.86,-417.08 118.86,-409.67"/>
<polygon fill="grey" stroke="grey" stroke-width="2" points="122.36,-409.93 118.86,-399.93 115.36,-409.93 122.36,-409.93"/>
</g>
<!-- 5 -->
<g id="node6" class="node">
<title>5</title>
<path fill="none" stroke="#ced856" stroke-width="2" d="M133.86,-540C133.86,-540 103.86,-540 103.86,-540 97.86,-540 91.86,-534 91.86,-528 91.86,-528 91.86,-516 91.86,-516 91.86,-510 97.86,-504 103.86,-504 103.86,-504 133.86,-504 133.86,-504 139.86,-504 145.86,-510 145.86,-516 145.86,-516 145.86,-528 145.86,-528 145.86,-534 139.86,-540 133.86,-540"/>
<text text-anchor="middle" x="118.86" y="-518.88" font-family="sans" font-size="10.00">fastp</text>
</g>
<!-- 5&#45;&gt;0 -->
<g id="edge4" class="edge">
<title>5&#45;&gt;0</title>
<path fill="none" stroke="grey" stroke-width="2" d="M91.13,-504.14C56.53,-480.73 1.86,-434.9 1.86,-379 1.86,-379 1.86,-379 1.86,-161 1.86,-120.55 -5.57,-102.62 20.86,-72 46.16,-42.67 89.32,-29.55 121.43,-23.69"/>
<polygon fill="grey" stroke="grey" stroke-width="2" points="121.7,-27.19 131.01,-22.14 120.58,-20.28 121.7,-27.19"/>
</g>
<!-- 5&#45;&gt;4 -->
<g id="edge10" class="edge">
<title>5&#45;&gt;4</title>
<path fill="none" stroke="grey" stroke-width="2" d="M118.86,-503.34C118.86,-496.75 118.86,-489.08 118.86,-481.67"/>
<polygon fill="grey" stroke="grey" stroke-width="2" points="122.36,-481.93 118.86,-471.93 115.36,-481.93 122.36,-481.93"/>
</g>
<!-- 6 -->
<g id="node7" class="node">
<title>6</title>
<path fill="none" stroke="#70d856" stroke-width="2" d="M180.48,-612C180.48,-612 111.23,-612 111.23,-612 105.23,-612 99.23,-606 99.23,-600 99.23,-600 99.23,-588 99.23,-588 99.23,-582 105.23,-576 111.23,-576 111.23,-576 180.48,-576 180.48,-576 186.48,-576 192.48,-582 192.48,-588 192.48,-588 192.48,-600 192.48,-600 192.48,-606 186.48,-612 180.48,-612"/>
<text text-anchor="middle" x="145.86" y="-590.88" font-family="sans" font-size="10.00">combine_fastqs</text>
</g>
<!-- 6&#45;&gt;5 -->
<g id="edge11" class="edge">
<title>6&#45;&gt;5</title>
<path fill="none" stroke="grey" stroke-width="2" d="M139.04,-575.34C136.41,-568.51 133.32,-560.5 130.36,-552.83"/>
<polygon fill="grey" stroke="grey" stroke-width="2" points="133.71,-551.8 126.85,-543.73 127.18,-554.32 133.71,-551.8"/>
</g>
<!-- 10 -->
<g id="node11" class="node">
<title>10</title>
<path fill="none" stroke="#9fd856" stroke-width="2" d="M297.98,-468C297.98,-468 243.73,-468 243.73,-468 237.73,-468 231.73,-462 231.73,-456 231.73,-456 231.73,-444 231.73,-444 231.73,-438 237.73,-432 243.73,-432 243.73,-432 297.98,-432 297.98,-432 303.98,-432 309.98,-438 309.98,-444 309.98,-444 309.98,-456 309.98,-456 309.98,-462 303.98,-468 297.98,-468"/>
<text text-anchor="middle" x="270.86" y="-446.88" font-family="sans" font-size="10.00">fastq_screen</text>
</g>
<!-- 6&#45;&gt;10 -->
<g id="edge15" class="edge">
<title>6&#45;&gt;10</title>
<path fill="none" stroke="grey" stroke-width="2" d="M161.69,-575.02C183.1,-550.69 221.5,-507.07 246.57,-478.58"/>
<polygon fill="grey" stroke="grey" stroke-width="2" points="249.17,-480.93 253.15,-471.11 243.92,-476.3 249.17,-480.93"/>
</g>
<!-- 7&#45;&gt;2 -->
<g id="edge7" class="edge">
<title>7&#45;&gt;2</title>
<path fill="none" stroke="grey" stroke-width="2" d="M174.04,-287.34C171.41,-280.51 168.32,-272.5 165.36,-264.83"/>
<polygon fill="grey" stroke="grey" stroke-width="2" points="168.71,-263.8 161.85,-255.73 162.18,-266.32 168.71,-263.8"/>
</g>
<!-- 8&#45;&gt;1 -->
<g id="edge5" class="edge">
<title>8&#45;&gt;1</title>
<path fill="none" stroke="grey" stroke-width="2" d="M139.72,-143.34C133.8,-135.93 126.77,-127.14 120.18,-118.9"/>
<polygon fill="grey" stroke="grey" stroke-width="2" points="123.05,-116.89 114.07,-111.27 117.58,-121.26 123.05,-116.89"/>
</g>
<!-- 9&#45;&gt;0 -->
<g id="edge1" class="edge">
<title>9&#45;&gt;0</title>
<path fill="none" stroke="grey" stroke-width="2" d="M212.2,-71.34C205.07,-63.77 196.56,-54.75 188.65,-46.35"/>
<polygon fill="grey" stroke="grey" stroke-width="2" points="191.22,-43.98 181.81,-39.1 186.13,-48.78 191.22,-43.98"/>
</g>
<!-- 10&#45;&gt;0 -->
<g id="edge3" class="edge">
<title>10&#45;&gt;0</title>
<path fill="none" stroke="grey" stroke-width="2" d="M277.28,-431.34C286.36,-404.75 301.86,-352.67 301.86,-307 301.86,-307 301.86,-307 301.86,-161 301.86,-120.55 308.37,-103.38 282.86,-72 263.23,-47.85 230.36,-34.38 203.99,-27.07"/>
<polygon fill="grey" stroke="grey" stroke-width="2" points="205.13,-23.75 194.58,-24.7 203.42,-30.54 205.13,-23.75"/>
</g>
</g>
</svg>
