<?xml version="1.0" encoding="UTF-8" standalone="no"?>
<!DOCTYPE svg PUBLIC "-//W3C//DTD SVG 1.1//EN"
 "http://www.w3.org/Graphics/SVG/1.1/DTD/svg11.dtd">
<!-- Generated by graphviz version 9.0.0 (20231125.0833)
 -->
<!-- Title: snakemake_dag Pages: 1 -->
<svg width="347pt" height="692pt"
 viewBox="0.00 0.00 346.52 692.00" xmlns="http://www.w3.org/2000/svg" xmlns:xlink="http://www.w3.org/1999/xlink">
<g id="graph0" class="graph" transform="scale(1 1) rotate(0) translate(4 688)">
<title>snakemake_dag</title>
<polygon fill="white" stroke="none" points="-4,4 -4,-688 342.52,-688 342.52,4 -4,4"/>
<!-- 0 -->
<g id="node1" class="node">
<title>0</title>
<path fill="none" stroke="#56a9d8" stroke-width="2" d="M55.4,-36C55.4,-36 25.4,-36 25.4,-36 19.4,-36 13.4,-30 13.4,-24 13.4,-24 13.4,-12 13.4,-12 13.4,-6 19.4,0 25.4,0 25.4,0 55.4,0 55.4,0 61.4,0 67.4,-6 67.4,-12 67.4,-12 67.4,-24 67.4,-24 67.4,-30 61.4,-36 55.4,-36"/>
<text text-anchor="middle" x="40.4" y="-14.88" font-family="sans" font-size="10.00">all</text>
</g>
<!-- 1 -->
<g id="node2" class="node">
<title>1</title>
<path fill="none" stroke="#afd856" stroke-width="2" d="M102.9,-324C102.9,-324 35.9,-324 35.9,-324 29.9,-324 23.9,-318 23.9,-312 23.9,-312 23.9,-300 23.9,-300 23.9,-294 29.9,-288 35.9,-288 35.9,-288 102.9,-288 102.9,-288 108.9,-288 114.9,-294 114.9,-300 114.9,-300 114.9,-312 114.9,-312 114.9,-318 108.9,-324 102.9,-324"/>
<text text-anchor="middle" x="69.4" y="-302.88" font-family="sans" font-size="10.00">gatk_applybqsr</text>
</g>
<!-- 1&#45;&gt;0 -->
<g id="edge2" class="edge">
<title>1&#45;&gt;0</title>
<path fill="none" stroke="grey" stroke-width="2" d="M42.39,-287.11C31.19,-278.06 19.43,-266.02 13.4,-252 -15.97,-183.77 10.22,-94.47 27.71,-48.77"/>
<polygon fill="grey" stroke="grey" stroke-width="2" points="30.89,-50.23 31.34,-39.64 24.39,-47.64 30.89,-50.23"/>
</g>
<!-- 7 -->
<g id="node8" class="node">
<title>7</title>
<path fill="none" stroke="#59d856" stroke-width="2" d="M104.02,-252C104.02,-252 34.77,-252 34.77,-252 28.77,-252 22.77,-246 22.77,-240 22.77,-240 22.77,-228 22.77,-228 22.77,-222 28.77,-216 34.77,-216 34.77,-216 104.02,-216 104.02,-216 110.02,-216 116.02,-222 116.02,-228 116.02,-228 116.02,-240 116.02,-240 116.02,-246 110.02,-252 104.02,-252"/>
<text text-anchor="middle" x="69.4" y="-230.88" font-family="sans" font-size="10.00">samtools_index</text>
</g>
<!-- 1&#45;&gt;7 -->
<g id="edge10" class="edge">
<title>1&#45;&gt;7</title>
<path fill="none" stroke="grey" stroke-width="2" d="M69.4,-287.34C69.4,-280.75 69.4,-273.08 69.4,-265.67"/>
<polygon fill="grey" stroke="grey" stroke-width="2" points="72.9,-265.93 69.4,-255.93 65.9,-265.93 72.9,-265.93"/>
</g>
<!-- 9 -->
<g id="node10" class="node">
<title>9</title>
<path fill="none" stroke="#d88556" stroke-width="2" d="M192.4,-180C192.4,-180 80.4,-180 80.4,-180 74.4,-180 68.4,-174 68.4,-168 68.4,-168 68.4,-156 68.4,-156 68.4,-150 74.4,-144 80.4,-144 80.4,-144 192.4,-144 192.4,-144 198.4,-144 204.4,-150 204.4,-156 204.4,-156 204.4,-168 204.4,-168 204.4,-174 198.4,-180 192.4,-180"/>
<text text-anchor="middle" x="136.4" y="-158.88" font-family="sans" font-size="10.00">gatk_depth_of_coverage</text>
</g>
<!-- 1&#45;&gt;9 -->
<g id="edge14" class="edge">
<title>1&#45;&gt;9</title>
<path fill="none" stroke="grey" stroke-width="2" d="M95.04,-287.22C106.24,-278.04 118.39,-265.86 125.4,-252 134.47,-234.04 137.19,-211.53 137.65,-193.64"/>
<polygon fill="grey" stroke="grey" stroke-width="2" points="141.15,-193.76 137.63,-183.76 134.15,-193.77 141.15,-193.76"/>
</g>
<!-- 2 -->
<g id="node3" class="node">
<title>2</title>
<path fill="none" stroke="#56d882" stroke-width="2" d="M190.77,-468C190.77,-468 96.02,-468 96.02,-468 90.02,-468 84.02,-462 84.02,-456 84.02,-456 84.02,-444 84.02,-444 84.02,-438 90.02,-432 96.02,-432 96.02,-432 190.77,-432 190.77,-432 196.77,-432 202.77,-438 202.77,-444 202.77,-444 202.77,-456 202.77,-456 202.77,-462 196.77,-468 190.77,-468"/>
<text text-anchor="middle" x="143.4" y="-446.88" font-family="sans" font-size="10.00">markduplicates_bam</text>
</g>
<!-- 2&#45;&gt;1 -->
<g id="edge5" class="edge">
<title>2&#45;&gt;1</title>
<path fill="none" stroke="grey" stroke-width="2" d="M108.31,-431.19C94.96,-422.5 81.13,-410.71 73.4,-396 64.05,-378.22 63.16,-355.57 64.55,-337.57"/>
<polygon fill="grey" stroke="grey" stroke-width="2" points="68,-338.2 65.62,-327.88 61.04,-337.43 68,-338.2"/>
</g>
<!-- 6 -->
<g id="node7" class="node">
<title>6</title>
<path fill="none" stroke="#80d856" stroke-width="2" d="M192.65,-396C192.65,-396 94.15,-396 94.15,-396 88.15,-396 82.15,-390 82.15,-384 82.15,-384 82.15,-372 82.15,-372 82.15,-366 88.15,-360 94.15,-360 94.15,-360 192.65,-360 192.65,-360 198.65,-360 204.65,-366 204.65,-372 204.65,-372 204.65,-384 204.65,-384 204.65,-390 198.65,-396 192.65,-396"/>
<text text-anchor="middle" x="143.4" y="-374.88" font-family="sans" font-size="10.00">gatk_baserecalibrator</text>
</g>
<!-- 2&#45;&gt;6 -->
<g id="edge9" class="edge">
<title>2&#45;&gt;6</title>
<path fill="none" stroke="grey" stroke-width="2" d="M143.4,-431.34C143.4,-424.75 143.4,-417.08 143.4,-409.67"/>
<polygon fill="grey" stroke="grey" stroke-width="2" points="146.9,-409.93 143.4,-399.93 139.9,-409.93 146.9,-409.93"/>
</g>
<!-- 3 -->
<g id="node4" class="node">
<title>3</title>
<path fill="none" stroke="#d85656" stroke-width="2" d="M178.9,-540C178.9,-540 135.9,-540 135.9,-540 129.9,-540 123.9,-534 123.9,-528 123.9,-528 123.9,-516 123.9,-516 123.9,-510 129.9,-504 135.9,-504 135.9,-504 178.9,-504 178.9,-504 184.9,-504 190.9,-510 190.9,-516 190.9,-516 190.9,-528 190.9,-528 190.9,-534 184.9,-540 178.9,-540"/>
<text text-anchor="middle" x="157.4" y="-518.88" font-family="sans" font-size="10.00">bwa_mem</text>
</g>
<!-- 3&#45;&gt;2 -->
<g id="edge6" class="edge">
<title>3&#45;&gt;2</title>
<path fill="none" stroke="grey" stroke-width="2" d="M153.86,-503.34C152.55,-496.75 151.01,-489.08 149.53,-481.67"/>
<polygon fill="grey" stroke="grey" stroke-width="2" points="152.96,-480.99 147.57,-471.87 146.1,-482.36 152.96,-480.99"/>
</g>
<!-- 4 -->
<g id="node5" class="node">
<title>4</title>
<path fill="none" stroke="#d8ac56" stroke-width="2" d="M247.4,-612C247.4,-612 217.4,-612 217.4,-612 211.4,-612 205.4,-606 205.4,-600 205.4,-600 205.4,-588 205.4,-588 205.4,-582 211.4,-576 217.4,-576 217.4,-576 247.4,-576 247.4,-576 253.4,-576 259.4,-582 259.4,-588 259.4,-588 259.4,-600 259.4,-600 259.4,-606 253.4,-612 247.4,-612"/>
<text text-anchor="middle" x="232.4" y="-590.88" font-family="sans" font-size="10.00">fastp</text>
</g>
<!-- 4&#45;&gt;3 -->
<g id="edge7" class="edge">
<title>4&#45;&gt;3</title>
<path fill="none" stroke="grey" stroke-width="2" d="M213.47,-575.34C205.1,-567.52 195.07,-558.16 185.83,-549.53"/>
<polygon fill="grey" stroke="grey" stroke-width="2" points="188.49,-547.23 178.79,-542.97 183.71,-552.35 188.49,-547.23"/>
</g>
<!-- 8 -->
<g id="node9" class="node">
<title>8</title>
<path fill="none" stroke="#56d8a9" stroke-width="2" d="M200.27,-108C200.27,-108 168.52,-108 168.52,-108 162.52,-108 156.52,-102 156.52,-96 156.52,-96 156.52,-84 156.52,-84 156.52,-78 162.52,-72 168.52,-72 168.52,-72 200.27,-72 200.27,-72 206.27,-72 212.27,-78 212.27,-84 212.27,-84 212.27,-96 212.27,-96 212.27,-102 206.27,-108 200.27,-108"/>
<text text-anchor="middle" x="184.4" y="-86.88" font-family="sans" font-size="10.00">multiQC</text>
</g>
<!-- 4&#45;&gt;8 -->
<g id="edge13" class="edge">
<title>4&#45;&gt;8</title>
<path fill="none" stroke="grey" stroke-width="2" d="M232.4,-575.07C232.4,-548.13 232.4,-495.62 232.4,-451 232.4,-451 232.4,-451 232.4,-233 232.4,-192.55 227.47,-181.92 213.4,-144 210.38,-135.87 206.28,-127.46 202.12,-119.8"/>
<polygon fill="grey" stroke="grey" stroke-width="2" points="205.18,-118.11 197.18,-111.16 199.11,-121.58 205.18,-118.11"/>
</g>
<!-- 5 -->
<g id="node6" class="node">
<title>5</title>
<path fill="none" stroke="#5682d8" stroke-width="2" d="M294.02,-684C294.02,-684 224.77,-684 224.77,-684 218.77,-684 212.77,-678 212.77,-672 212.77,-672 212.77,-660 212.77,-660 212.77,-654 218.77,-648 224.77,-648 224.77,-648 294.02,-648 294.02,-648 300.02,-648 306.02,-654 306.02,-660 306.02,-660 306.02,-672 306.02,-672 306.02,-678 300.02,-684 294.02,-684"/>
<text text-anchor="middle" x="259.4" y="-662.88" font-family="sans" font-size="10.00">combine_fastqs</text>
</g>
<!-- 5&#45;&gt;4 -->
<g id="edge8" class="edge">
<title>5&#45;&gt;4</title>
<path fill="none" stroke="grey" stroke-width="2" d="M252.58,-647.34C249.95,-640.51 246.86,-632.5 243.9,-624.83"/>
<polygon fill="grey" stroke="grey" stroke-width="2" points="247.26,-623.8 240.39,-615.73 240.72,-626.32 247.26,-623.8"/>
</g>
<!-- 10 -->
<g id="node11" class="node">
<title>10</title>
<path fill="none" stroke="#56d8d8" stroke-width="2" d="M326.52,-540C326.52,-540 272.27,-540 272.27,-540 266.27,-540 260.27,-534 260.27,-528 260.27,-528 260.27,-516 260.27,-516 260.27,-510 266.27,-504 272.27,-504 272.27,-504 326.52,-504 326.52,-504 332.52,-504 338.52,-510 338.52,-516 338.52,-516 338.52,-528 338.52,-528 338.52,-534 332.52,-540 326.52,-540"/>
<text text-anchor="middle" x="299.4" y="-518.88" font-family="sans" font-size="10.00">fastq_screen</text>
</g>
<!-- 5&#45;&gt;10 -->
<g id="edge16" class="edge">
<title>5&#45;&gt;10</title>
<path fill="none" stroke="grey" stroke-width="2" d="M264.46,-647.02C271.1,-623.44 282.85,-581.73 290.88,-553.25"/>
<polygon fill="grey" stroke="grey" stroke-width="2" points="294.21,-554.33 293.55,-543.75 287.47,-552.43 294.21,-554.33"/>
</g>
<!-- 6&#45;&gt;1 -->
<g id="edge4" class="edge">
<title>6&#45;&gt;1</title>
<path fill="none" stroke="grey" stroke-width="2" d="M124.72,-359.34C116.55,-351.6 106.78,-342.36 97.73,-333.81"/>
<polygon fill="grey" stroke="grey" stroke-width="2" points="100.19,-331.31 90.52,-326.98 95.38,-336.4 100.19,-331.31"/>
</g>
<!-- 7&#45;&gt;0 -->
<g id="edge3" class="edge">
<title>7&#45;&gt;0</title>
<path fill="none" stroke="grey" stroke-width="2" d="M65.76,-215.39C63.71,-205.1 61.21,-191.85 59.4,-180 52.46,-134.72 46.67,-81.94 43.36,-49.5"/>
<polygon fill="grey" stroke="grey" stroke-width="2" points="46.88,-49.54 42.41,-39.93 39.92,-50.23 46.88,-49.54"/>
</g>
<!-- 7&#45;&gt;9 -->
<g id="edge15" class="edge">
<title>7&#45;&gt;9</title>
<path fill="none" stroke="grey" stroke-width="2" d="M86.3,-215.34C93.63,-207.69 102.37,-198.56 110.48,-190.08"/>
<polygon fill="grey" stroke="grey" stroke-width="2" points="112.78,-192.73 117.17,-183.09 107.73,-187.89 112.78,-192.73"/>
</g>
<!-- 8&#45;&gt;0 -->
<g id="edge1" class="edge">
<title>8&#45;&gt;0</title>
<path fill="none" stroke="grey" stroke-width="2" d="M155.6,-75C133.84,-64.42 103.71,-49.78 79.72,-38.12"/>
<polygon fill="grey" stroke="grey" stroke-width="2" points="81.41,-35.04 70.88,-33.82 78.35,-41.34 81.41,-35.04"/>
</g>
<!-- 9&#45;&gt;8 -->
<g id="edge11" class="edge">
<title>9&#45;&gt;8</title>
<path fill="none" stroke="grey" stroke-width="2" d="M148.51,-143.34C153.47,-136.1 159.35,-127.53 164.89,-119.45"/>
<polygon fill="grey" stroke="grey" stroke-width="2" points="167.64,-121.62 170.41,-111.4 161.87,-117.67 167.64,-121.62"/>
</g>
<!-- 10&#45;&gt;8 -->
<g id="edge12" class="edge">
<title>10&#45;&gt;8</title>
<path fill="none" stroke="grey" stroke-width="2" d="M296.29,-503.13C291.89,-476.28 284.4,-423.87 284.4,-379 284.4,-379 284.4,-379 284.4,-233 284.4,-189.99 271.86,-178.66 246.4,-144 239.13,-134.11 229.68,-124.84 220.36,-116.91"/>
<polygon fill="grey" stroke="grey" stroke-width="2" points="222.73,-114.33 212.75,-110.76 218.33,-119.77 222.73,-114.33"/>
</g>
</g>
</svg>
