<?xml version="1.0" encoding="UTF-8" standalone="no"?>
<!DOCTYPE svg PUBLIC "-//W3C//DTD SVG 1.1//EN"
 "http://www.w3.org/Graphics/SVG/1.1/DTD/svg11.dtd">
<!-- Generated by graphviz version 9.0.0 (20231125.0833)
 -->
<!-- Title: snakemake_dag Pages: 1 -->
<svg width="484pt" height="908pt"
 viewBox="0.00 0.00 484.12 908.00" xmlns="http://www.w3.org/2000/svg" xmlns:xlink="http://www.w3.org/1999/xlink">
<g id="graph0" class="graph" transform="scale(1 1) rotate(0) translate(4 904)">
<title>snakemake_dag</title>
<polygon fill="white" stroke="none" points="-4,4 -4,-904 480.12,-904 480.12,4 -4,4"/>
<!-- 0 -->
<g id="node1" class="node">
<title>0</title>
<path fill="none" stroke="#d89556" stroke-width="2" d="M328.88,-36C328.88,-36 297.12,-36 297.12,-36 291.12,-36 285.12,-30 285.12,-24 285.12,-24 285.12,-12 285.12,-12 285.12,-6 291.12,0 297.12,0 297.12,0 328.88,0 328.88,0 334.88,0 340.88,-6 340.88,-12 340.88,-12 340.88,-24 340.88,-24 340.88,-30 334.88,-36 328.88,-36"/>
<text text-anchor="middle" x="313" y="-14.88" font-family="sans" font-size="10.00">multiQC</text>
</g>
<!-- 1 -->
<g id="node2" class="node">
<title>1</title>
<path fill="none" stroke="#d87556" stroke-width="2" d="M124,-108C124,-108 12,-108 12,-108 6,-108 0,-102 0,-96 0,-96 0,-84 0,-84 0,-78 6,-72 12,-72 12,-72 124,-72 124,-72 130,-72 136,-78 136,-84 136,-84 136,-96 136,-96 136,-102 130,-108 124,-108"/>
<text text-anchor="middle" x="68" y="-86.88" font-family="sans" font-size="10.00">gatk_depth_of_coverage</text>
</g>
<!-- 1&#45;&gt;0 -->
<g id="edge2" class="edge">
<title>1&#45;&gt;0</title>
<path fill="none" stroke="grey" stroke-width="2" d="M130.78,-71.06C175.13,-58.39 233.33,-41.76 271.88,-30.75"/>
<polygon fill="grey" stroke="grey" stroke-width="2" points="272.83,-34.12 281.49,-28 270.91,-27.39 272.83,-34.12"/>
</g>
<!-- 2 -->
<g id="node3" class="node">
<title>2</title>
<path fill="none" stroke="#56d882" stroke-width="2" d="M206.62,-252C206.62,-252 107.38,-252 107.38,-252 101.38,-252 95.38,-246 95.38,-240 95.38,-240 95.38,-228 95.38,-228 95.38,-222 101.38,-216 107.38,-216 107.38,-216 206.62,-216 206.62,-216 212.62,-216 218.62,-222 218.62,-228 218.62,-228 218.62,-240 218.62,-240 218.62,-246 212.62,-252 206.62,-252"/>
<text text-anchor="middle" x="157" y="-230.88" font-family="sans" font-size="10.00">bwa_mem_consensus</text>
</g>
<!-- 2&#45;&gt;1 -->
<g id="edge7" class="edge">
<title>2&#45;&gt;1</title>
<path fill="none" stroke="grey" stroke-width="2" d="M153.24,-215.14C148.69,-196.31 139.74,-166.34 125,-144 118.69,-134.44 110.3,-125.39 101.91,-117.57"/>
<polygon fill="grey" stroke="grey" stroke-width="2" points="104.26,-114.98 94.45,-111 99.64,-120.24 104.26,-114.98"/>
</g>
<!-- 12 -->
<g id="node13" class="node">
<title>12</title>
<path fill="none" stroke="#5673d8" stroke-width="2" d="M103.62,-180C103.62,-180 34.38,-180 34.38,-180 28.38,-180 22.38,-174 22.38,-168 22.38,-168 22.38,-156 22.38,-156 22.38,-150 28.38,-144 34.38,-144 34.38,-144 103.62,-144 103.62,-144 109.62,-144 115.62,-150 115.62,-156 115.62,-156 115.62,-168 115.62,-168 115.62,-174 109.62,-180 103.62,-180"/>
<text text-anchor="middle" x="69" y="-158.88" font-family="sans" font-size="10.00">samtools_index</text>
</g>
<!-- 2&#45;&gt;12 -->
<g id="edge19" class="edge">
<title>2&#45;&gt;12</title>
<path fill="none" stroke="grey" stroke-width="2" d="M134.79,-215.34C124.76,-207.36 112.71,-197.77 101.67,-188.99"/>
<polygon fill="grey" stroke="grey" stroke-width="2" points="103.88,-186.27 93.87,-182.79 99.52,-191.75 103.88,-186.27"/>
</g>
<!-- 14 -->
<g id="node15" class="node">
<title>14</title>
<path fill="none" stroke="#d85656" stroke-width="2" d="M254.38,-108C254.38,-108 165.62,-108 165.62,-108 159.62,-108 153.62,-102 153.62,-96 153.62,-96 153.62,-84 153.62,-84 153.62,-78 159.62,-72 165.62,-72 165.62,-72 254.38,-72 254.38,-72 260.38,-72 266.38,-78 266.38,-84 266.38,-84 266.38,-96 266.38,-96 266.38,-102 260.38,-108 254.38,-108"/>
<text text-anchor="middle" x="210" y="-86.88" font-family="sans" font-size="10.00">samtools_stats_con</text>
</g>
<!-- 2&#45;&gt;14 -->
<g id="edge21" class="edge">
<title>2&#45;&gt;14</title>
<path fill="none" stroke="grey" stroke-width="2" d="M163.71,-215.02C172.55,-191.33 188.22,-149.35 198.85,-120.86"/>
<polygon fill="grey" stroke="grey" stroke-width="2" points="202.07,-122.27 202.28,-111.67 195.51,-119.82 202.07,-122.27"/>
</g>
<!-- 3 -->
<g id="node4" class="node">
<title>3</title>
<path fill="none" stroke="#d8d356" stroke-width="2" d="M199.5,-324C199.5,-324 126.5,-324 126.5,-324 120.5,-324 114.5,-318 114.5,-312 114.5,-312 114.5,-300 114.5,-300 114.5,-294 120.5,-288 126.5,-288 126.5,-288 199.5,-288 199.5,-288 205.5,-288 211.5,-294 211.5,-300 211.5,-300 211.5,-312 211.5,-312 211.5,-318 205.5,-324 199.5,-324"/>
<text text-anchor="middle" x="163" y="-302.88" font-family="sans" font-size="10.00">consensus_fastq</text>
</g>
<!-- 3&#45;&gt;2 -->
<g id="edge9" class="edge">
<title>3&#45;&gt;2</title>
<path fill="none" stroke="grey" stroke-width="2" d="M161.49,-287.34C160.92,-280.75 160.26,-273.08 159.63,-265.67"/>
<polygon fill="grey" stroke="grey" stroke-width="2" points="163.13,-265.58 158.79,-255.92 156.16,-266.18 163.13,-265.58"/>
</g>
<!-- 4 -->
<g id="node5" class="node">
<title>4</title>
<path fill="none" stroke="#56d8a2" stroke-width="2" d="M198.75,-396C198.75,-396 133.25,-396 133.25,-396 127.25,-396 121.25,-390 121.25,-384 121.25,-384 121.25,-372 121.25,-372 121.25,-366 127.25,-360 133.25,-360 133.25,-360 198.75,-360 198.75,-360 204.75,-360 210.75,-366 210.75,-372 210.75,-372 210.75,-384 210.75,-384 210.75,-390 204.75,-396 198.75,-396"/>
<text text-anchor="middle" x="166" y="-374.88" font-family="sans" font-size="10.00">call_consensus</text>
</g>
<!-- 4&#45;&gt;3 -->
<g id="edge10" class="edge">
<title>4&#45;&gt;3</title>
<path fill="none" stroke="grey" stroke-width="2" d="M165.24,-359.34C164.96,-352.75 164.63,-345.08 164.31,-337.67"/>
<polygon fill="grey" stroke="grey" stroke-width="2" points="167.82,-337.77 163.9,-327.93 160.83,-338.07 167.82,-337.77"/>
</g>
<!-- 5 -->
<g id="node6" class="node">
<title>5</title>
<path fill="none" stroke="#56d863" stroke-width="2" d="M193,-468C193,-468 141,-468 141,-468 135,-468 129,-462 129,-456 129,-456 129,-444 129,-444 129,-438 135,-432 141,-432 141,-432 193,-432 193,-432 199,-432 205,-438 205,-444 205,-444 205,-456 205,-456 205,-462 199,-468 193,-468"/>
<text text-anchor="middle" x="167" y="-446.88" font-family="sans" font-size="10.00">group_reads</text>
</g>
<!-- 5&#45;&gt;0 -->
<g id="edge4" class="edge">
<title>5&#45;&gt;0</title>
<path fill="none" stroke="grey" stroke-width="2" d="M199.71,-431.14C237.33,-407.92 294,-363.56 294,-307 294,-307 294,-307 294,-161 294,-122.31 301.01,-78.21 306.52,-49.56"/>
<polygon fill="grey" stroke="grey" stroke-width="2" points="309.94,-50.29 308.47,-39.8 303.08,-48.92 309.94,-50.29"/>
</g>
<!-- 5&#45;&gt;4 -->
<g id="edge11" class="edge">
<title>5&#45;&gt;4</title>
<path fill="none" stroke="grey" stroke-width="2" d="M166.75,-431.34C166.65,-424.75 166.54,-417.08 166.44,-409.67"/>
<polygon fill="grey" stroke="grey" stroke-width="2" points="169.94,-409.88 166.3,-399.93 162.94,-409.98 169.94,-409.88"/>
</g>
<!-- 6 -->
<g id="node7" class="node">
<title>6</title>
<path fill="none" stroke="#68d856" stroke-width="2" d="M197.88,-540C197.88,-540 136.12,-540 136.12,-540 130.12,-540 124.12,-534 124.12,-528 124.12,-528 124.12,-516 124.12,-516 124.12,-510 130.12,-504 136.12,-504 136.12,-504 197.88,-504 197.88,-504 203.88,-504 209.88,-510 209.88,-516 209.88,-516 209.88,-528 209.88,-528 209.88,-534 203.88,-540 197.88,-540"/>
<text text-anchor="middle" x="167" y="-518.88" font-family="sans" font-size="10.00">set_mate_info</text>
</g>
<!-- 6&#45;&gt;5 -->
<g id="edge12" class="edge">
<title>6&#45;&gt;5</title>
<path fill="none" stroke="grey" stroke-width="2" d="M167,-503.34C167,-496.75 167,-489.08 167,-481.67"/>
<polygon fill="grey" stroke="grey" stroke-width="2" points="170.5,-481.93 167,-471.93 163.5,-481.93 170.5,-481.93"/>
</g>
<!-- 7 -->
<g id="node8" class="node">
<title>7</title>
<path fill="none" stroke="#d8b456" stroke-width="2" d="M198.25,-612C198.25,-612 135.75,-612 135.75,-612 129.75,-612 123.75,-606 123.75,-600 123.75,-600 123.75,-588 123.75,-588 123.75,-582 129.75,-576 135.75,-576 135.75,-576 198.25,-576 198.25,-576 204.25,-576 210.25,-582 210.25,-588 210.25,-588 210.25,-600 210.25,-600 210.25,-606 204.25,-612 198.25,-612"/>
<text text-anchor="middle" x="167" y="-590.88" font-family="sans" font-size="10.00">sort_UMI_bam</text>
</g>
<!-- 7&#45;&gt;6 -->
<g id="edge13" class="edge">
<title>7&#45;&gt;6</title>
<path fill="none" stroke="grey" stroke-width="2" d="M167,-575.34C167,-568.75 167,-561.08 167,-553.67"/>
<polygon fill="grey" stroke="grey" stroke-width="2" points="170.5,-553.93 167,-543.93 163.5,-553.93 170.5,-553.93"/>
</g>
<!-- 8 -->
<g id="node9" class="node">
<title>8</title>
<path fill="none" stroke="#56b1d8" stroke-width="2" d="M256.25,-684C256.25,-684 193.75,-684 193.75,-684 187.75,-684 181.75,-678 181.75,-672 181.75,-672 181.75,-660 181.75,-660 181.75,-654 187.75,-648 193.75,-648 193.75,-648 256.25,-648 256.25,-648 262.25,-648 268.25,-654 268.25,-660 268.25,-660 268.25,-672 268.25,-672 268.25,-678 262.25,-684 256.25,-684"/>
<text text-anchor="middle" x="225" y="-662.88" font-family="sans" font-size="10.00">annotate_bam</text>
</g>
<!-- 8&#45;&gt;7 -->
<g id="edge14" class="edge">
<title>8&#45;&gt;7</title>
<path fill="none" stroke="grey" stroke-width="2" d="M210.36,-647.34C204.23,-639.93 196.95,-631.14 190.12,-622.9"/>
<polygon fill="grey" stroke="grey" stroke-width="2" points="192.84,-620.7 183.76,-615.23 187.45,-625.17 192.84,-620.7"/>
</g>
<!-- 9 -->
<g id="node10" class="node">
<title>9</title>
<path fill="none" stroke="#9fd856" stroke-width="2" d="M317.5,-756C317.5,-756 274.5,-756 274.5,-756 268.5,-756 262.5,-750 262.5,-744 262.5,-744 262.5,-732 262.5,-732 262.5,-726 268.5,-720 274.5,-720 274.5,-720 317.5,-720 317.5,-720 323.5,-720 329.5,-726 329.5,-732 329.5,-732 329.5,-744 329.5,-744 329.5,-750 323.5,-756 317.5,-756"/>
<text text-anchor="middle" x="296" y="-734.88" font-family="sans" font-size="10.00">bwa_mem</text>
</g>
<!-- 9&#45;&gt;8 -->
<g id="edge16" class="edge">
<title>9&#45;&gt;8</title>
<path fill="none" stroke="grey" stroke-width="2" d="M278.08,-719.34C270.24,-711.6 260.86,-702.36 252.19,-693.81"/>
<polygon fill="grey" stroke="grey" stroke-width="2" points="254.89,-691.56 245.31,-687.03 249.98,-696.54 254.89,-691.56"/>
</g>
<!-- 13 -->
<g id="node14" class="node">
<title>13</title>
<path fill="none" stroke="#88d856" stroke-width="2" d="M329.75,-612C329.75,-612 240.25,-612 240.25,-612 234.25,-612 228.25,-606 228.25,-600 228.25,-600 228.25,-588 228.25,-588 228.25,-582 234.25,-576 240.25,-576 240.25,-576 329.75,-576 329.75,-576 335.75,-576 341.75,-582 341.75,-588 341.75,-588 341.75,-600 341.75,-600 341.75,-606 335.75,-612 329.75,-612"/>
<text text-anchor="middle" x="285" y="-590.88" font-family="sans" font-size="10.00">samtools_stats_raw</text>
</g>
<!-- 9&#45;&gt;13 -->
<g id="edge20" class="edge">
<title>9&#45;&gt;13</title>
<path fill="none" stroke="grey" stroke-width="2" d="M294.61,-719.02C292.79,-695.54 289.58,-654.11 287.37,-625.64"/>
<polygon fill="grey" stroke="grey" stroke-width="2" points="290.88,-625.56 286.62,-615.86 283.9,-626.1 290.88,-625.56"/>
</g>
<!-- 10 -->
<g id="node11" class="node">
<title>10</title>
<path fill="none" stroke="#56d8c1" stroke-width="2" d="M330,-828C330,-828 300,-828 300,-828 294,-828 288,-822 288,-816 288,-816 288,-804 288,-804 288,-798 294,-792 300,-792 300,-792 330,-792 330,-792 336,-792 342,-798 342,-804 342,-804 342,-816 342,-816 342,-822 336,-828 330,-828"/>
<text text-anchor="middle" x="315" y="-806.88" font-family="sans" font-size="10.00">fastp</text>
</g>
<!-- 10&#45;&gt;0 -->
<g id="edge5" class="edge">
<title>10&#45;&gt;0</title>
<path fill="none" stroke="grey" stroke-width="2" d="M326.93,-791.03C343.11,-764.89 370,-714.32 370,-667 370,-667 370,-667 370,-161 370,-119.39 348.66,-75.54 332.1,-47.77"/>
<polygon fill="grey" stroke="grey" stroke-width="2" points="335.2,-46.14 326.96,-39.48 329.25,-49.82 335.2,-46.14"/>
</g>
<!-- 10&#45;&gt;9 -->
<g id="edge17" class="edge">
<title>10&#45;&gt;9</title>
<path fill="none" stroke="grey" stroke-width="2" d="M310.21,-791.34C308.4,-784.67 306.28,-776.89 304.25,-769.39"/>
<polygon fill="grey" stroke="grey" stroke-width="2" points="307.65,-768.56 301.65,-759.82 300.89,-770.39 307.65,-768.56"/>
</g>
<!-- 11 -->
<g id="node12" class="node">
<title>11</title>
<path fill="none" stroke="#bed856" stroke-width="2" d="M349.62,-900C349.62,-900 280.38,-900 280.38,-900 274.38,-900 268.38,-894 268.38,-888 268.38,-888 268.38,-876 268.38,-876 268.38,-870 274.38,-864 280.38,-864 280.38,-864 349.62,-864 349.62,-864 355.62,-864 361.62,-870 361.62,-876 361.62,-876 361.62,-888 361.62,-888 361.62,-894 355.62,-900 349.62,-900"/>
<text text-anchor="middle" x="315" y="-878.88" font-family="sans" font-size="10.00">combine_fastqs</text>
</g>
<!-- 11&#45;&gt;8 -->
<g id="edge15" class="edge">
<title>11&#45;&gt;8</title>
<path fill="none" stroke="grey" stroke-width="2" d="M301.15,-863.06C293.91,-853.11 285.27,-840.29 279,-828 256.87,-784.6 240.81,-730.15 232.2,-697"/>
<polygon fill="grey" stroke="grey" stroke-width="2" points="235.66,-696.37 229.82,-687.53 228.87,-698.08 235.66,-696.37"/>
</g>
<!-- 11&#45;&gt;10 -->
<g id="edge18" class="edge">
<title>11&#45;&gt;10</title>
<path fill="none" stroke="grey" stroke-width="2" d="M315,-863.34C315,-856.75 315,-849.08 315,-841.67"/>
<polygon fill="grey" stroke="grey" stroke-width="2" points="318.5,-841.93 315,-831.93 311.5,-841.93 318.5,-841.93"/>
</g>
<!-- 15 -->
<g id="node16" class="node">
<title>15</title>
<path fill="none" stroke="#56d0d8" stroke-width="2" d="M464.12,-756C464.12,-756 409.88,-756 409.88,-756 403.88,-756 397.88,-750 397.88,-744 397.88,-744 397.88,-732 397.88,-732 397.88,-726 403.88,-720 409.88,-720 409.88,-720 464.12,-720 464.12,-720 470.12,-720 476.12,-726 476.12,-732 476.12,-732 476.12,-744 476.12,-744 476.12,-750 470.12,-756 464.12,-756"/>
<text text-anchor="middle" x="437" y="-734.88" font-family="sans" font-size="10.00">fastq_screen</text>
</g>
<!-- 11&#45;&gt;15 -->
<g id="edge22" class="edge">
<title>11&#45;&gt;15</title>
<path fill="none" stroke="grey" stroke-width="2" d="M330.45,-863.02C351.35,-838.69 388.83,-795.07 413.3,-766.58"/>
<polygon fill="grey" stroke="grey" stroke-width="2" points="415.84,-769 419.7,-759.13 410.53,-764.44 415.84,-769"/>
</g>
<!-- 12&#45;&gt;1 -->
<g id="edge8" class="edge">
<title>12&#45;&gt;1</title>
<path fill="none" stroke="grey" stroke-width="2" d="M68.75,-143.34C68.65,-136.75 68.54,-129.08 68.44,-121.67"/>
<polygon fill="grey" stroke="grey" stroke-width="2" points="71.94,-121.88 68.3,-111.93 64.94,-121.98 71.94,-121.88"/>
</g>
<!-- 13&#45;&gt;0 -->
<g id="edge3" class="edge">
<title>13&#45;&gt;0</title>
<path fill="none" stroke="grey" stroke-width="2" d="M294.97,-575.24C308.76,-548.96 332,-497.74 332,-451 332,-451 332,-451 332,-161 332,-122.31 324.99,-78.21 319.48,-49.56"/>
<polygon fill="grey" stroke="grey" stroke-width="2" points="322.92,-48.92 317.53,-39.8 316.06,-50.29 322.92,-48.92"/>
</g>
<!-- 14&#45;&gt;0 -->
<g id="edge1" class="edge">
<title>14&#45;&gt;0</title>
<path fill="none" stroke="grey" stroke-width="2" d="M236.26,-71.15C248.36,-62.93 262.94,-53.02 276.13,-44.06"/>
<polygon fill="grey" stroke="grey" stroke-width="2" points="277.98,-47.03 284.29,-38.51 274.05,-41.24 277.98,-47.03"/>
</g>
<!-- 15&#45;&gt;0 -->
<g id="edge6" class="edge">
<title>15&#45;&gt;0</title>
<path fill="none" stroke="grey" stroke-width="2" d="M433.89,-719.13C429.5,-692.28 422,-639.87 422,-595 422,-595 422,-595 422,-161 422,-117.99 410.59,-105.8 384,-72 375.28,-60.91 363.7,-50.97 352.42,-42.77"/>
<polygon fill="grey" stroke="grey" stroke-width="2" points="354.52,-39.97 344.3,-37.18 350.56,-45.74 354.52,-39.97"/>
</g>
</g>
</svg>
