<?xml version="1.0" encoding="UTF-8" standalone="no"?>
<!DOCTYPE svg PUBLIC "-//W3C//DTD SVG 1.1//EN"
 "http://www.w3.org/Graphics/SVG/1.1/DTD/svg11.dtd">
<!-- Generated by graphviz version 9.0.0 (20231125.0833)
 -->
<!-- Title: snakemake_dag Pages: 1 -->
<svg width="538pt" height="908pt"
 viewBox="0.00 0.00 537.50 908.00" xmlns="http://www.w3.org/2000/svg" xmlns:xlink="http://www.w3.org/1999/xlink">
<g id="graph0" class="graph" transform="scale(1 1) rotate(0) translate(4 904)">
<title>snakemake_dag</title>
<polygon fill="white" stroke="none" points="-4,4 -4,-904 533.5,-904 533.5,4 -4,4"/>
<!-- 0 -->
<g id="node1" class="node">
<title>0</title>
<path fill="none" stroke="#5692d8" stroke-width="2" d="M379.25,-36C379.25,-36 347.5,-36 347.5,-36 341.5,-36 335.5,-30 335.5,-24 335.5,-24 335.5,-12 335.5,-12 335.5,-6 341.5,0 347.5,0 347.5,0 379.25,0 379.25,0 385.25,0 391.25,-6 391.25,-12 391.25,-12 391.25,-24 391.25,-24 391.25,-30 385.25,-36 379.25,-36"/>
<text text-anchor="middle" x="363.38" y="-14.88" font-family="sans" font-size="10.00">multiQC</text>
</g>
<!-- 1 -->
<g id="node2" class="node">
<title>1</title>
<path fill="none" stroke="#56d8a9" stroke-width="2" d="M297.38,-108C297.38,-108 179.38,-108 179.38,-108 173.38,-108 167.38,-102 167.38,-96 167.38,-96 167.38,-84 167.38,-84 167.38,-78 173.38,-72 179.38,-72 179.38,-72 297.38,-72 297.38,-72 303.38,-72 309.38,-78 309.38,-84 309.38,-84 309.38,-96 309.38,-96 309.38,-102 303.38,-108 297.38,-108"/>
<text text-anchor="middle" x="238.38" y="-86.88" font-family="sans" font-size="10.00">picard_collect_hs_metrics</text>
</g>
<!-- 1&#45;&gt;0 -->
<g id="edge3" class="edge">
<title>1&#45;&gt;0</title>
<path fill="none" stroke="grey" stroke-width="2" d="M270.24,-71.15C286.5,-62.05 306.43,-50.89 323.68,-41.23"/>
<polygon fill="grey" stroke="grey" stroke-width="2" points="324.9,-44.56 331.92,-36.62 321.48,-38.45 324.9,-44.56"/>
</g>
<!-- 2 -->
<g id="node3" class="node">
<title>2</title>
<path fill="none" stroke="#d88d56" stroke-width="2" d="M281,-252C281,-252 181.75,-252 181.75,-252 175.75,-252 169.75,-246 169.75,-240 169.75,-240 169.75,-228 169.75,-228 169.75,-222 175.75,-216 181.75,-216 181.75,-216 281,-216 281,-216 287,-216 293,-222 293,-228 293,-228 293,-240 293,-240 293,-246 287,-252 281,-252"/>
<text text-anchor="middle" x="231.38" y="-230.88" font-family="sans" font-size="10.00">bwa_mem_consensus</text>
</g>
<!-- 2&#45;&gt;1 -->
<g id="edge8" class="edge">
<title>2&#45;&gt;1</title>
<path fill="none" stroke="grey" stroke-width="2" d="M258.38,-215.11C269.58,-206.06 281.34,-194.02 287.38,-180 293.7,-165.3 293.21,-158.9 287.38,-144 283.62,-134.4 277.21,-125.5 270.26,-117.83"/>
<polygon fill="grey" stroke="grey" stroke-width="2" points="272.97,-115.6 263.43,-110.98 268.01,-120.54 272.97,-115.6"/>
</g>
<!-- 12 -->
<g id="node13" class="node">
<title>12</title>
<path fill="none" stroke="#afd856" stroke-width="2" d="M266,-180C266,-180 196.75,-180 196.75,-180 190.75,-180 184.75,-174 184.75,-168 184.75,-168 184.75,-156 184.75,-156 184.75,-150 190.75,-144 196.75,-144 196.75,-144 266,-144 266,-144 272,-144 278,-150 278,-156 278,-156 278,-168 278,-168 278,-174 272,-180 266,-180"/>
<text text-anchor="middle" x="231.38" y="-158.88" font-family="sans" font-size="10.00">samtools_index</text>
</g>
<!-- 2&#45;&gt;12 -->
<g id="edge20" class="edge">
<title>2&#45;&gt;12</title>
<path fill="none" stroke="grey" stroke-width="2" d="M231.38,-215.34C231.38,-208.75 231.38,-201.08 231.38,-193.67"/>
<polygon fill="grey" stroke="grey" stroke-width="2" points="234.88,-193.93 231.38,-183.93 227.88,-193.93 234.88,-193.93"/>
</g>
<!-- 15 -->
<g id="node16" class="node">
<title>15</title>
<path fill="none" stroke="#59d856" stroke-width="2" d="M100.75,-108C100.75,-108 12,-108 12,-108 6,-108 0,-102 0,-96 0,-96 0,-84 0,-84 0,-78 6,-72 12,-72 12,-72 100.75,-72 100.75,-72 106.75,-72 112.75,-78 112.75,-84 112.75,-84 112.75,-96 112.75,-96 112.75,-102 106.75,-108 100.75,-108"/>
<text text-anchor="middle" x="56.38" y="-86.88" font-family="sans" font-size="10.00">samtools_stats_con</text>
</g>
<!-- 2&#45;&gt;15 -->
<g id="edge22" class="edge">
<title>2&#45;&gt;15</title>
<path fill="none" stroke="grey" stroke-width="2" d="M168.95,-223.43C120.98,-214.64 60.45,-199.97 45.38,-180 32.8,-163.34 36.41,-139.72 42.71,-121"/>
<polygon fill="grey" stroke="grey" stroke-width="2" points="45.92,-122.39 46.24,-111.8 39.39,-119.88 45.92,-122.39"/>
</g>
<!-- 3 -->
<g id="node4" class="node">
<title>3</title>
<path fill="none" stroke="#56d873" stroke-width="2" d="M267.88,-324C267.88,-324 194.88,-324 194.88,-324 188.88,-324 182.88,-318 182.88,-312 182.88,-312 182.88,-300 182.88,-300 182.88,-294 188.88,-288 194.88,-288 194.88,-288 267.88,-288 267.88,-288 273.88,-288 279.88,-294 279.88,-300 279.88,-300 279.88,-312 279.88,-312 279.88,-318 273.88,-324 267.88,-324"/>
<text text-anchor="middle" x="231.38" y="-302.88" font-family="sans" font-size="10.00">consensus_fastq</text>
</g>
<!-- 3&#45;&gt;2 -->
<g id="edge10" class="edge">
<title>3&#45;&gt;2</title>
<path fill="none" stroke="grey" stroke-width="2" d="M231.38,-287.34C231.38,-280.75 231.38,-273.08 231.38,-265.67"/>
<polygon fill="grey" stroke="grey" stroke-width="2" points="234.88,-265.93 231.38,-255.93 227.88,-265.93 234.88,-265.93"/>
</g>
<!-- 4 -->
<g id="node5" class="node">
<title>4</title>
<path fill="none" stroke="#56c9d8" stroke-width="2" d="M264.12,-396C264.12,-396 198.62,-396 198.62,-396 192.62,-396 186.62,-390 186.62,-384 186.62,-384 186.62,-372 186.62,-372 186.62,-366 192.62,-360 198.62,-360 198.62,-360 264.12,-360 264.12,-360 270.12,-360 276.12,-366 276.12,-372 276.12,-372 276.12,-384 276.12,-384 276.12,-390 270.12,-396 264.12,-396"/>
<text text-anchor="middle" x="231.38" y="-374.88" font-family="sans" font-size="10.00">call_consensus</text>
</g>
<!-- 4&#45;&gt;3 -->
<g id="edge11" class="edge">
<title>4&#45;&gt;3</title>
<path fill="none" stroke="grey" stroke-width="2" d="M231.38,-359.34C231.38,-352.75 231.38,-345.08 231.38,-337.67"/>
<polygon fill="grey" stroke="grey" stroke-width="2" points="234.88,-337.93 231.38,-327.93 227.88,-337.93 234.88,-337.93"/>
</g>
<!-- 5 -->
<g id="node6" class="node">
<title>5</title>
<path fill="none" stroke="#56a9d8" stroke-width="2" d="M257.38,-468C257.38,-468 205.38,-468 205.38,-468 199.38,-468 193.38,-462 193.38,-456 193.38,-456 193.38,-444 193.38,-444 193.38,-438 199.38,-432 205.38,-432 205.38,-432 257.38,-432 257.38,-432 263.38,-432 269.38,-438 269.38,-444 269.38,-444 269.38,-456 269.38,-456 269.38,-462 263.38,-468 257.38,-468"/>
<text text-anchor="middle" x="231.38" y="-446.88" font-family="sans" font-size="10.00">group_reads</text>
</g>
<!-- 5&#45;&gt;0 -->
<g id="edge5" class="edge">
<title>5&#45;&gt;0</title>
<path fill="none" stroke="grey" stroke-width="2" d="M259.31,-431.09C292.77,-407.19 344.38,-361.51 344.38,-307 344.38,-307 344.38,-307 344.38,-161 344.38,-122.31 351.39,-78.21 356.89,-49.56"/>
<polygon fill="grey" stroke="grey" stroke-width="2" points="360.32,-50.29 358.85,-39.8 353.45,-48.92 360.32,-50.29"/>
</g>
<!-- 5&#45;&gt;4 -->
<g id="edge12" class="edge">
<title>5&#45;&gt;4</title>
<path fill="none" stroke="grey" stroke-width="2" d="M231.38,-431.34C231.38,-424.75 231.38,-417.08 231.38,-409.67"/>
<polygon fill="grey" stroke="grey" stroke-width="2" points="234.88,-409.93 231.38,-399.93 227.88,-409.93 234.88,-409.93"/>
</g>
<!-- 6 -->
<g id="node7" class="node">
<title>6</title>
<path fill="none" stroke="#5673d8" stroke-width="2" d="M258.25,-540C258.25,-540 196.5,-540 196.5,-540 190.5,-540 184.5,-534 184.5,-528 184.5,-528 184.5,-516 184.5,-516 184.5,-510 190.5,-504 196.5,-504 196.5,-504 258.25,-504 258.25,-504 264.25,-504 270.25,-510 270.25,-516 270.25,-516 270.25,-528 270.25,-528 270.25,-534 264.25,-540 258.25,-540"/>
<text text-anchor="middle" x="227.38" y="-518.88" font-family="sans" font-size="10.00">set_mate_info</text>
</g>
<!-- 6&#45;&gt;5 -->
<g id="edge13" class="edge">
<title>6&#45;&gt;5</title>
<path fill="none" stroke="grey" stroke-width="2" d="M228.38,-503.34C228.76,-496.75 229.2,-489.08 229.62,-481.67"/>
<polygon fill="grey" stroke="grey" stroke-width="2" points="233.1,-482.11 230.18,-471.92 226.11,-481.71 233.1,-482.11"/>
</g>
<!-- 7 -->
<g id="node8" class="node">
<title>7</title>
<path fill="none" stroke="#c6d856" stroke-width="2" d="M251.62,-612C251.62,-612 189.12,-612 189.12,-612 183.12,-612 177.12,-606 177.12,-600 177.12,-600 177.12,-588 177.12,-588 177.12,-582 183.12,-576 189.12,-576 189.12,-576 251.62,-576 251.62,-576 257.62,-576 263.62,-582 263.62,-588 263.62,-588 263.62,-600 263.62,-600 263.62,-606 257.62,-612 251.62,-612"/>
<text text-anchor="middle" x="220.38" y="-590.88" font-family="sans" font-size="10.00">sort_UMI_bam</text>
</g>
<!-- 7&#45;&gt;6 -->
<g id="edge14" class="edge">
<title>7&#45;&gt;6</title>
<path fill="none" stroke="grey" stroke-width="2" d="M222.14,-575.34C222.8,-568.75 223.57,-561.08 224.31,-553.67"/>
<polygon fill="grey" stroke="grey" stroke-width="2" points="227.77,-554.21 225.28,-543.91 220.81,-553.52 227.77,-554.21"/>
</g>
<!-- 8 -->
<g id="node9" class="node">
<title>8</title>
<path fill="none" stroke="#d87556" stroke-width="2" d="M309.62,-684C309.62,-684 247.12,-684 247.12,-684 241.12,-684 235.12,-678 235.12,-672 235.12,-672 235.12,-660 235.12,-660 235.12,-654 241.12,-648 247.12,-648 247.12,-648 309.62,-648 309.62,-648 315.62,-648 321.62,-654 321.62,-660 321.62,-660 321.62,-672 321.62,-672 321.62,-678 315.62,-684 309.62,-684"/>
<text text-anchor="middle" x="278.38" y="-662.88" font-family="sans" font-size="10.00">annotate_bam</text>
</g>
<!-- 8&#45;&gt;7 -->
<g id="edge15" class="edge">
<title>8&#45;&gt;7</title>
<path fill="none" stroke="grey" stroke-width="2" d="M263.74,-647.34C257.6,-639.93 250.32,-631.14 243.49,-622.9"/>
<polygon fill="grey" stroke="grey" stroke-width="2" points="246.21,-620.7 237.14,-615.23 240.82,-625.17 246.21,-620.7"/>
</g>
<!-- 9 -->
<g id="node10" class="node">
<title>9</title>
<path fill="none" stroke="#70d856" stroke-width="2" d="M370.88,-756C370.88,-756 327.88,-756 327.88,-756 321.88,-756 315.88,-750 315.88,-744 315.88,-744 315.88,-732 315.88,-732 315.88,-726 321.88,-720 327.88,-720 327.88,-720 370.88,-720 370.88,-720 376.88,-720 382.88,-726 382.88,-732 382.88,-732 382.88,-744 382.88,-744 382.88,-750 376.88,-756 370.88,-756"/>
<text text-anchor="middle" x="349.38" y="-734.88" font-family="sans" font-size="10.00">bwa_mem</text>
</g>
<!-- 9&#45;&gt;8 -->
<g id="edge16" class="edge">
<title>9&#45;&gt;8</title>
<path fill="none" stroke="grey" stroke-width="2" d="M331.46,-719.34C323.61,-711.6 314.24,-702.36 305.56,-693.81"/>
<polygon fill="grey" stroke="grey" stroke-width="2" points="308.27,-691.56 298.69,-687.03 303.35,-696.54 308.27,-691.56"/>
</g>
<!-- 14 -->
<g id="node15" class="node">
<title>14</title>
<path fill="none" stroke="#d8cb56" stroke-width="2" d="M383.12,-612C383.12,-612 293.62,-612 293.62,-612 287.62,-612 281.62,-606 281.62,-600 281.62,-600 281.62,-588 281.62,-588 281.62,-582 287.62,-576 293.62,-576 293.62,-576 383.12,-576 383.12,-576 389.12,-576 395.12,-582 395.12,-588 395.12,-588 395.12,-600 395.12,-600 395.12,-606 389.12,-612 383.12,-612"/>
<text text-anchor="middle" x="338.38" y="-590.88" font-family="sans" font-size="10.00">samtools_stats_raw</text>
</g>
<!-- 9&#45;&gt;14 -->
<g id="edge21" class="edge">
<title>9&#45;&gt;14</title>
<path fill="none" stroke="grey" stroke-width="2" d="M347.98,-719.02C346.16,-695.54 342.95,-654.11 340.75,-625.64"/>
<polygon fill="grey" stroke="grey" stroke-width="2" points="344.25,-625.56 339.99,-615.86 337.27,-626.1 344.25,-625.56"/>
</g>
<!-- 10 -->
<g id="node11" class="node">
<title>10</title>
<path fill="none" stroke="#56d892" stroke-width="2" d="M383.38,-828C383.38,-828 353.38,-828 353.38,-828 347.38,-828 341.38,-822 341.38,-816 341.38,-816 341.38,-804 341.38,-804 341.38,-798 347.38,-792 353.38,-792 353.38,-792 383.38,-792 383.38,-792 389.38,-792 395.38,-798 395.38,-804 395.38,-804 395.38,-816 395.38,-816 395.38,-822 389.38,-828 383.38,-828"/>
<text text-anchor="middle" x="368.38" y="-806.88" font-family="sans" font-size="10.00">fastp</text>
</g>
<!-- 10&#45;&gt;0 -->
<g id="edge2" class="edge">
<title>10&#45;&gt;0</title>
<path fill="none" stroke="grey" stroke-width="2" d="M380.31,-791.03C396.49,-764.89 423.38,-714.32 423.38,-667 423.38,-667 423.38,-667 423.38,-161 423.38,-119.08 400.92,-75.3 383.48,-47.63"/>
<polygon fill="grey" stroke="grey" stroke-width="2" points="386.46,-45.79 378.05,-39.34 380.6,-49.63 386.46,-45.79"/>
</g>
<!-- 10&#45;&gt;9 -->
<g id="edge18" class="edge">
<title>10&#45;&gt;9</title>
<path fill="none" stroke="grey" stroke-width="2" d="M363.58,-791.34C361.77,-784.67 359.66,-776.89 357.62,-769.39"/>
<polygon fill="grey" stroke="grey" stroke-width="2" points="361.02,-768.56 355.03,-759.82 354.27,-770.39 361.02,-768.56"/>
</g>
<!-- 11 -->
<g id="node12" class="node">
<title>11</title>
<path fill="none" stroke="#d8ac56" stroke-width="2" d="M403,-900C403,-900 333.75,-900 333.75,-900 327.75,-900 321.75,-894 321.75,-888 321.75,-888 321.75,-876 321.75,-876 321.75,-870 327.75,-864 333.75,-864 333.75,-864 403,-864 403,-864 409,-864 415,-870 415,-876 415,-876 415,-888 415,-888 415,-894 409,-900 403,-900"/>
<text text-anchor="middle" x="368.38" y="-878.88" font-family="sans" font-size="10.00">combine_fastqs</text>
</g>
<!-- 11&#45;&gt;8 -->
<g id="edge17" class="edge">
<title>11&#45;&gt;8</title>
<path fill="none" stroke="grey" stroke-width="2" d="M354.47,-863.09C347.21,-853.15 338.57,-840.33 332.38,-828 310.51,-784.47 294.38,-730.06 285.68,-696.95"/>
<polygon fill="grey" stroke="grey" stroke-width="2" points="289.13,-696.32 283.27,-687.49 282.35,-698.05 289.13,-696.32"/>
</g>
<!-- 11&#45;&gt;10 -->
<g id="edge19" class="edge">
<title>11&#45;&gt;10</title>
<path fill="none" stroke="grey" stroke-width="2" d="M368.38,-863.34C368.38,-856.75 368.38,-849.08 368.38,-841.67"/>
<polygon fill="grey" stroke="grey" stroke-width="2" points="371.88,-841.93 368.38,-831.93 364.88,-841.93 371.88,-841.93"/>
</g>
<!-- 16 -->
<g id="node17" class="node">
<title>16</title>
<path fill="none" stroke="#56d8c9" stroke-width="2" d="M517.5,-756C517.5,-756 463.25,-756 463.25,-756 457.25,-756 451.25,-750 451.25,-744 451.25,-744 451.25,-732 451.25,-732 451.25,-726 457.25,-720 463.25,-720 463.25,-720 517.5,-720 517.5,-720 523.5,-720 529.5,-726 529.5,-732 529.5,-732 529.5,-744 529.5,-744 529.5,-750 523.5,-756 517.5,-756"/>
<text text-anchor="middle" x="490.38" y="-734.88" font-family="sans" font-size="10.00">fastq_screen</text>
</g>
<!-- 11&#45;&gt;16 -->
<g id="edge23" class="edge">
<title>11&#45;&gt;16</title>
<path fill="none" stroke="grey" stroke-width="2" d="M383.83,-863.02C404.73,-838.69 442.2,-795.07 466.68,-766.58"/>
<polygon fill="grey" stroke="grey" stroke-width="2" points="469.21,-769 473.08,-759.13 463.9,-764.44 469.21,-769"/>
</g>
<!-- 12&#45;&gt;1 -->
<g id="edge9" class="edge">
<title>12&#45;&gt;1</title>
<path fill="none" stroke="grey" stroke-width="2" d="M233.14,-143.34C233.8,-136.75 234.57,-129.08 235.31,-121.67"/>
<polygon fill="grey" stroke="grey" stroke-width="2" points="238.77,-122.21 236.28,-111.91 231.81,-121.52 238.77,-122.21"/>
</g>
<!-- 13 -->
<g id="node14" class="node">
<title>13</title>
<path fill="none" stroke="#d85656" stroke-width="2" d="M154.38,-180C154.38,-180 66.38,-180 66.38,-180 60.38,-180 54.37,-174 54.37,-168 54.37,-168 54.37,-156 54.37,-156 54.37,-150 60.37,-144 66.38,-144 66.38,-144 154.38,-144 154.38,-144 160.38,-144 166.38,-150 166.38,-156 166.38,-156 166.38,-168 166.38,-168 166.38,-174 160.38,-180 154.38,-180"/>
<text text-anchor="middle" x="110.38" y="-158.88" font-family="sans" font-size="10.00">bed_to_interval_list</text>
</g>
<!-- 13&#45;&gt;1 -->
<g id="edge7" class="edge">
<title>13&#45;&gt;1</title>
<path fill="none" stroke="grey" stroke-width="2" d="M143.01,-143.15C158.65,-134.6 177.62,-124.22 194.51,-114.99"/>
<polygon fill="grey" stroke="grey" stroke-width="2" points="196.05,-118.13 203.15,-110.26 192.69,-111.99 196.05,-118.13"/>
</g>
<!-- 14&#45;&gt;0 -->
<g id="edge6" class="edge">
<title>14&#45;&gt;0</title>
<path fill="none" stroke="grey" stroke-width="2" d="M347.71,-575.17C360.62,-548.79 382.38,-497.46 382.38,-451 382.38,-451 382.38,-451 382.38,-161 382.38,-122.31 375.36,-78.21 369.86,-49.56"/>
<polygon fill="grey" stroke="grey" stroke-width="2" points="373.3,-48.92 367.9,-39.8 366.43,-50.29 373.3,-48.92"/>
</g>
<!-- 15&#45;&gt;0 -->
<g id="edge1" class="edge">
<title>15&#45;&gt;0</title>
<path fill="none" stroke="grey" stroke-width="2" d="M113.4,-76C174.11,-62.15 268.69,-40.59 322.42,-28.34"/>
<polygon fill="grey" stroke="grey" stroke-width="2" points="322.92,-31.82 331.89,-26.18 321.36,-24.99 322.92,-31.82"/>
</g>
<!-- 16&#45;&gt;0 -->
<g id="edge4" class="edge">
<title>16&#45;&gt;0</title>
<path fill="none" stroke="grey" stroke-width="2" d="M487.27,-719.13C482.87,-692.28 475.38,-639.87 475.38,-595 475.38,-595 475.38,-595 475.38,-161 475.38,-117.99 464.3,-105.54 437.38,-72 427.81,-60.09 414.92,-49.61 402.57,-41.19"/>
<polygon fill="grey" stroke="grey" stroke-width="2" points="404.8,-38.46 394.5,-35.97 401,-44.34 404.8,-38.46"/>
</g>
</g>
</svg>
