<?xml version="1.0" encoding="UTF-8" standalone="no"?>
<!DOCTYPE svg PUBLIC "-//W3C//DTD SVG 1.1//EN"
 "http://www.w3.org/Graphics/SVG/1.1/DTD/svg11.dtd">
<!-- Generated by graphviz version 9.0.0 (20231125.0833)
 -->
<!-- Title: snakemake_dag Pages: 1 -->
<svg width="577pt" height="980pt"
 viewBox="0.00 0.00 577.12 980.00" xmlns="http://www.w3.org/2000/svg" xmlns:xlink="http://www.w3.org/1999/xlink">
<g id="graph0" class="graph" transform="scale(1 1) rotate(0) translate(4 976)">
<title>snakemake_dag</title>
<polygon fill="white" stroke="none" points="-4,4 -4,-976 573.12,-976 573.12,4 -4,4"/>
<!-- 0 -->
<g id="node1" class="node">
<title>0</title>
<path fill="none" stroke="#566bd8" stroke-width="2" d="M42,-36C42,-36 12,-36 12,-36 6,-36 0,-30 0,-24 0,-24 0,-12 0,-12 0,-6 6,0 12,0 12,0 42,0 42,0 48,0 54,-6 54,-12 54,-12 54,-24 54,-24 54,-30 48,-36 42,-36"/>
<text text-anchor="middle" x="27" y="-14.88" font-family="sans" font-size="10.00">all</text>
</g>
<!-- 1 -->
<g id="node2" class="node">
<title>1</title>
<path fill="none" stroke="#56d892" stroke-width="2" d="M240.62,-324C240.62,-324 141.38,-324 141.38,-324 135.38,-324 129.38,-318 129.38,-312 129.38,-312 129.38,-300 129.38,-300 129.38,-294 135.38,-288 141.38,-288 141.38,-288 240.62,-288 240.62,-288 246.62,-288 252.62,-294 252.62,-300 252.62,-300 252.62,-312 252.62,-312 252.62,-318 246.62,-324 240.62,-324"/>
<text text-anchor="middle" x="191" y="-302.88" font-family="sans" font-size="10.00">bwa_mem_consensus</text>
</g>
<!-- 1&#45;&gt;0 -->
<g id="edge2" class="edge">
<title>1&#45;&gt;0</title>
<path fill="none" stroke="grey" stroke-width="2" d="M128.4,-294.55C100.97,-286.99 70.45,-274.06 50,-252 -1.4,-196.55 9.75,-98.67 19.69,-49.29"/>
<polygon fill="grey" stroke="grey" stroke-width="2" points="23.08,-50.2 21.77,-39.68 16.23,-48.72 23.08,-50.2"/>
</g>
<!-- 11 -->
<g id="node12" class="node">
<title>11</title>
<path fill="none" stroke="#d6d856" stroke-width="2" d="M140.62,-252C140.62,-252 71.38,-252 71.38,-252 65.38,-252 59.38,-246 59.38,-240 59.38,-240 59.38,-228 59.38,-228 59.38,-222 65.38,-216 71.38,-216 71.38,-216 140.62,-216 140.62,-216 146.62,-216 152.62,-222 152.62,-228 152.62,-228 152.62,-240 152.62,-240 152.62,-246 146.62,-252 140.62,-252"/>
<text text-anchor="middle" x="106" y="-230.88" font-family="sans" font-size="10.00">samtools_index</text>
</g>
<!-- 1&#45;&gt;11 -->
<g id="edge14" class="edge">
<title>1&#45;&gt;11</title>
<path fill="none" stroke="grey" stroke-width="2" d="M169.55,-287.34C159.86,-279.36 148.22,-269.77 137.56,-260.99"/>
<polygon fill="grey" stroke="grey" stroke-width="2" points="140.02,-258.48 130.07,-254.83 135.57,-263.88 140.02,-258.48"/>
</g>
<!-- 13 -->
<g id="node14" class="node">
<title>13</title>
<path fill="none" stroke="#a7d856" stroke-width="2" d="M179,-180C179,-180 67,-180 67,-180 61,-180 55,-174 55,-168 55,-168 55,-156 55,-156 55,-150 61,-144 67,-144 67,-144 179,-144 179,-144 185,-144 191,-150 191,-156 191,-156 191,-168 191,-168 191,-174 185,-180 179,-180"/>
<text text-anchor="middle" x="123" y="-158.88" font-family="sans" font-size="10.00">gatk_depth_of_coverage</text>
</g>
<!-- 1&#45;&gt;13 -->
<g id="edge22" class="edge">
<title>1&#45;&gt;13</title>
<path fill="none" stroke="grey" stroke-width="2" d="M187.01,-287.28C182.45,-268.84 174.03,-239.42 162,-216 157.6,-207.44 151.87,-198.77 146.16,-190.99"/>
<polygon fill="grey" stroke="grey" stroke-width="2" points="148.96,-188.89 140.09,-183.09 143.41,-193.15 148.96,-188.89"/>
</g>
<!-- 15 -->
<g id="node16" class="node">
<title>15</title>
<path fill="none" stroke="#56d8b9" stroke-width="2" d="M309.38,-180C309.38,-180 220.62,-180 220.62,-180 214.62,-180 208.62,-174 208.62,-168 208.62,-168 208.62,-156 208.62,-156 208.62,-150 214.62,-144 220.62,-144 220.62,-144 309.38,-144 309.38,-144 315.38,-144 321.38,-150 321.38,-156 321.38,-156 321.38,-168 321.38,-168 321.38,-174 315.38,-180 309.38,-180"/>
<text text-anchor="middle" x="265" y="-158.88" font-family="sans" font-size="10.00">samtools_stats_con</text>
</g>
<!-- 1&#45;&gt;15 -->
<g id="edge25" class="edge">
<title>1&#45;&gt;15</title>
<path fill="none" stroke="grey" stroke-width="2" d="M200.37,-287.02C212.83,-263.12 234.99,-220.59 249.84,-192.1"/>
<polygon fill="grey" stroke="grey" stroke-width="2" points="252.79,-194.01 254.31,-183.52 246.58,-190.77 252.79,-194.01"/>
</g>
<!-- 17 -->
<g id="node18" class="node">
<title>17</title>
<path fill="none" stroke="#d8b456" stroke-width="2" d="M346.62,-252C346.62,-252 259.38,-252 259.38,-252 253.38,-252 247.38,-246 247.38,-240 247.38,-240 247.38,-228 247.38,-228 247.38,-222 253.38,-216 259.38,-216 259.38,-216 346.62,-216 346.62,-216 352.62,-216 358.62,-222 358.62,-228 358.62,-228 358.62,-240 358.62,-240 358.62,-246 352.62,-252 346.62,-252"/>
<text text-anchor="middle" x="303" y="-230.88" font-family="sans" font-size="10.00">samtools_coverage</text>
</g>
<!-- 1&#45;&gt;17 -->
<g id="edge27" class="edge">
<title>1&#45;&gt;17</title>
<path fill="none" stroke="grey" stroke-width="2" d="M219.55,-287.15C232.98,-278.76 249.21,-268.62 263.76,-259.52"/>
<polygon fill="grey" stroke="grey" stroke-width="2" points="265.31,-262.68 271.93,-254.42 261.6,-256.75 265.31,-262.68"/>
</g>
<!-- 2 -->
<g id="node3" class="node">
<title>2</title>
<path fill="none" stroke="#56b1d8" stroke-width="2" d="M247.5,-396C247.5,-396 174.5,-396 174.5,-396 168.5,-396 162.5,-390 162.5,-384 162.5,-384 162.5,-372 162.5,-372 162.5,-366 168.5,-360 174.5,-360 174.5,-360 247.5,-360 247.5,-360 253.5,-360 259.5,-366 259.5,-372 259.5,-372 259.5,-384 259.5,-384 259.5,-390 253.5,-396 247.5,-396"/>
<text text-anchor="middle" x="211" y="-374.88" font-family="sans" font-size="10.00">consensus_fastq</text>
</g>
<!-- 2&#45;&gt;1 -->
<g id="edge4" class="edge">
<title>2&#45;&gt;1</title>
<path fill="none" stroke="grey" stroke-width="2" d="M205.95,-359.34C204.05,-352.67 201.82,-344.89 199.68,-337.39"/>
<polygon fill="grey" stroke="grey" stroke-width="2" points="203.06,-336.47 196.95,-327.81 196.33,-338.39 203.06,-336.47"/>
</g>
<!-- 3 -->
<g id="node4" class="node">
<title>3</title>
<path fill="none" stroke="#78d856" stroke-width="2" d="M282.75,-468C282.75,-468 217.25,-468 217.25,-468 211.25,-468 205.25,-462 205.25,-456 205.25,-456 205.25,-444 205.25,-444 205.25,-438 211.25,-432 217.25,-432 217.25,-432 282.75,-432 282.75,-432 288.75,-432 294.75,-438 294.75,-444 294.75,-444 294.75,-456 294.75,-456 294.75,-462 288.75,-468 282.75,-468"/>
<text text-anchor="middle" x="250" y="-446.88" font-family="sans" font-size="10.00">call_consensus</text>
</g>
<!-- 3&#45;&gt;2 -->
<g id="edge5" class="edge">
<title>3&#45;&gt;2</title>
<path fill="none" stroke="grey" stroke-width="2" d="M240.16,-431.34C236.26,-424.34 231.68,-416.12 227.31,-408.28"/>
<polygon fill="grey" stroke="grey" stroke-width="2" points="230.37,-406.58 222.45,-399.55 224.26,-409.99 230.37,-406.58"/>
</g>
<!-- 4 -->
<g id="node5" class="node">
<title>4</title>
<path fill="none" stroke="#5682d8" stroke-width="2" d="M286,-540C286,-540 234,-540 234,-540 228,-540 222,-534 222,-528 222,-528 222,-516 222,-516 222,-510 228,-504 234,-504 234,-504 286,-504 286,-504 292,-504 298,-510 298,-516 298,-516 298,-528 298,-528 298,-534 292,-540 286,-540"/>
<text text-anchor="middle" x="260" y="-518.88" font-family="sans" font-size="10.00">group_reads</text>
</g>
<!-- 4&#45;&gt;3 -->
<g id="edge6" class="edge">
<title>4&#45;&gt;3</title>
<path fill="none" stroke="grey" stroke-width="2" d="M257.48,-503.34C256.54,-496.75 255.44,-489.08 254.38,-481.67"/>
<polygon fill="grey" stroke="grey" stroke-width="2" points="257.86,-481.3 252.99,-471.9 250.93,-482.29 257.86,-481.3"/>
</g>
<!-- 12 -->
<g id="node13" class="node">
<title>12</title>
<path fill="none" stroke="#56d8a2" stroke-width="2" d="M383.88,-108C383.88,-108 352.12,-108 352.12,-108 346.12,-108 340.12,-102 340.12,-96 340.12,-96 340.12,-84 340.12,-84 340.12,-78 346.12,-72 352.12,-72 352.12,-72 383.88,-72 383.88,-72 389.88,-72 395.88,-78 395.88,-84 395.88,-84 395.88,-96 395.88,-96 395.88,-102 389.88,-108 383.88,-108"/>
<text text-anchor="middle" x="368" y="-86.88" font-family="sans" font-size="10.00">multiQC</text>
</g>
<!-- 4&#45;&gt;12 -->
<g id="edge21" class="edge">
<title>4&#45;&gt;12</title>
<path fill="none" stroke="grey" stroke-width="2" d="M292.71,-503.14C330.33,-479.92 387,-435.56 387,-379 387,-379 387,-379 387,-233 387,-194.31 379.99,-150.21 374.48,-121.56"/>
<polygon fill="grey" stroke="grey" stroke-width="2" points="377.92,-120.92 372.53,-111.8 371.06,-122.29 377.92,-120.92"/>
</g>
<!-- 5 -->
<g id="node6" class="node">
<title>5</title>
<path fill="none" stroke="#56d8d0" stroke-width="2" d="M290.88,-612C290.88,-612 229.12,-612 229.12,-612 223.12,-612 217.12,-606 217.12,-600 217.12,-600 217.12,-588 217.12,-588 217.12,-582 223.12,-576 229.12,-576 229.12,-576 290.88,-576 290.88,-576 296.88,-576 302.88,-582 302.88,-588 302.88,-588 302.88,-600 302.88,-600 302.88,-606 296.88,-612 290.88,-612"/>
<text text-anchor="middle" x="260" y="-590.88" font-family="sans" font-size="10.00">set_mate_info</text>
</g>
<!-- 5&#45;&gt;4 -->
<g id="edge7" class="edge">
<title>5&#45;&gt;4</title>
<path fill="none" stroke="grey" stroke-width="2" d="M260,-575.34C260,-568.75 260,-561.08 260,-553.67"/>
<polygon fill="grey" stroke="grey" stroke-width="2" points="263.5,-553.93 260,-543.93 256.5,-553.93 263.5,-553.93"/>
</g>
<!-- 6 -->
<g id="node7" class="node">
<title>6</title>
<path fill="none" stroke="#56d87b" stroke-width="2" d="M291.25,-684C291.25,-684 228.75,-684 228.75,-684 222.75,-684 216.75,-678 216.75,-672 216.75,-672 216.75,-660 216.75,-660 216.75,-654 222.75,-648 228.75,-648 228.75,-648 291.25,-648 291.25,-648 297.25,-648 303.25,-654 303.25,-660 303.25,-660 303.25,-672 303.25,-672 303.25,-678 297.25,-684 291.25,-684"/>
<text text-anchor="middle" x="260" y="-662.88" font-family="sans" font-size="10.00">sort_UMI_bam</text>
</g>
<!-- 6&#45;&gt;5 -->
<g id="edge8" class="edge">
<title>6&#45;&gt;5</title>
<path fill="none" stroke="grey" stroke-width="2" d="M260,-647.34C260,-640.75 260,-633.08 260,-625.67"/>
<polygon fill="grey" stroke="grey" stroke-width="2" points="263.5,-625.93 260,-615.93 256.5,-625.93 263.5,-625.93"/>
</g>
<!-- 7 -->
<g id="node8" class="node">
<title>7</title>
<path fill="none" stroke="#d89c56" stroke-width="2" d="M349.25,-756C349.25,-756 286.75,-756 286.75,-756 280.75,-756 274.75,-750 274.75,-744 274.75,-744 274.75,-732 274.75,-732 274.75,-726 280.75,-720 286.75,-720 286.75,-720 349.25,-720 349.25,-720 355.25,-720 361.25,-726 361.25,-732 361.25,-732 361.25,-744 361.25,-744 361.25,-750 355.25,-756 349.25,-756"/>
<text text-anchor="middle" x="318" y="-734.88" font-family="sans" font-size="10.00">annotate_bam</text>
</g>
<!-- 7&#45;&gt;6 -->
<g id="edge9" class="edge">
<title>7&#45;&gt;6</title>
<path fill="none" stroke="grey" stroke-width="2" d="M303.36,-719.34C297.23,-711.93 289.95,-703.14 283.12,-694.9"/>
<polygon fill="grey" stroke="grey" stroke-width="2" points="285.84,-692.7 276.76,-687.23 280.45,-697.17 285.84,-692.7"/>
</g>
<!-- 8 -->
<g id="node9" class="node">
<title>8</title>
<path fill="none" stroke="#d85656" stroke-width="2" d="M410.5,-828C410.5,-828 367.5,-828 367.5,-828 361.5,-828 355.5,-822 355.5,-816 355.5,-816 355.5,-804 355.5,-804 355.5,-798 361.5,-792 367.5,-792 367.5,-792 410.5,-792 410.5,-792 416.5,-792 422.5,-798 422.5,-804 422.5,-804 422.5,-816 422.5,-816 422.5,-822 416.5,-828 410.5,-828"/>
<text text-anchor="middle" x="389" y="-806.88" font-family="sans" font-size="10.00">bwa_mem</text>
</g>
<!-- 8&#45;&gt;7 -->
<g id="edge11" class="edge">
<title>8&#45;&gt;7</title>
<path fill="none" stroke="grey" stroke-width="2" d="M371.08,-791.34C363.24,-783.6 353.86,-774.36 345.19,-765.81"/>
<polygon fill="grey" stroke="grey" stroke-width="2" points="347.89,-763.56 338.31,-759.03 342.98,-768.54 347.89,-763.56"/>
</g>
<!-- 14 -->
<g id="node15" class="node">
<title>14</title>
<path fill="none" stroke="#bed856" stroke-width="2" d="M422.75,-684C422.75,-684 333.25,-684 333.25,-684 327.25,-684 321.25,-678 321.25,-672 321.25,-672 321.25,-660 321.25,-660 321.25,-654 327.25,-648 333.25,-648 333.25,-648 422.75,-648 422.75,-648 428.75,-648 434.75,-654 434.75,-660 434.75,-660 434.75,-672 434.75,-672 434.75,-678 428.75,-684 422.75,-684"/>
<text text-anchor="middle" x="378" y="-662.88" font-family="sans" font-size="10.00">samtools_stats_raw</text>
</g>
<!-- 8&#45;&gt;14 -->
<g id="edge24" class="edge">
<title>8&#45;&gt;14</title>
<path fill="none" stroke="grey" stroke-width="2" d="M387.61,-791.02C385.79,-767.54 382.58,-726.11 380.37,-697.64"/>
<polygon fill="grey" stroke="grey" stroke-width="2" points="383.88,-697.56 379.62,-687.86 376.9,-698.1 383.88,-697.56"/>
</g>
<!-- 9 -->
<g id="node10" class="node">
<title>9</title>
<path fill="none" stroke="#569ad8" stroke-width="2" d="M423,-900C423,-900 393,-900 393,-900 387,-900 381,-894 381,-888 381,-888 381,-876 381,-876 381,-870 387,-864 393,-864 393,-864 423,-864 423,-864 429,-864 435,-870 435,-876 435,-876 435,-888 435,-888 435,-894 429,-900 423,-900"/>
<text text-anchor="middle" x="408" y="-878.88" font-family="sans" font-size="10.00">fastp</text>
</g>
<!-- 9&#45;&gt;8 -->
<g id="edge12" class="edge">
<title>9&#45;&gt;8</title>
<path fill="none" stroke="grey" stroke-width="2" d="M403.21,-863.34C401.4,-856.67 399.28,-848.89 397.25,-841.39"/>
<polygon fill="grey" stroke="grey" stroke-width="2" points="400.65,-840.56 394.65,-831.82 393.89,-842.39 400.65,-840.56"/>
</g>
<!-- 9&#45;&gt;12 -->
<g id="edge18" class="edge">
<title>9&#45;&gt;12</title>
<path fill="none" stroke="grey" stroke-width="2" d="M419.93,-863.03C436.11,-836.89 463,-786.32 463,-739 463,-739 463,-739 463,-233 463,-186.3 427.07,-143.34 399.4,-117.17"/>
<polygon fill="grey" stroke="grey" stroke-width="2" points="402.02,-114.82 392.27,-110.68 397.31,-120 402.02,-114.82"/>
</g>
<!-- 10 -->
<g id="node11" class="node">
<title>10</title>
<path fill="none" stroke="#56c9d8" stroke-width="2" d="M442.62,-972C442.62,-972 373.38,-972 373.38,-972 367.38,-972 361.38,-966 361.38,-960 361.38,-960 361.38,-948 361.38,-948 361.38,-942 367.38,-936 373.38,-936 373.38,-936 442.62,-936 442.62,-936 448.62,-936 454.62,-942 454.62,-948 454.62,-948 454.62,-960 454.62,-960 454.62,-966 448.62,-972 442.62,-972"/>
<text text-anchor="middle" x="408" y="-950.88" font-family="sans" font-size="10.00">combine_fastqs</text>
</g>
<!-- 10&#45;&gt;7 -->
<g id="edge10" class="edge">
<title>10&#45;&gt;7</title>
<path fill="none" stroke="grey" stroke-width="2" d="M394.09,-935.09C386.83,-925.15 378.19,-912.33 372,-900 350.14,-856.47 334,-802.06 325.31,-768.95"/>
<polygon fill="grey" stroke="grey" stroke-width="2" points="328.76,-768.32 322.89,-759.49 321.97,-770.05 328.76,-768.32"/>
</g>
<!-- 10&#45;&gt;9 -->
<g id="edge13" class="edge">
<title>10&#45;&gt;9</title>
<path fill="none" stroke="grey" stroke-width="2" d="M408,-935.34C408,-928.75 408,-921.08 408,-913.67"/>
<polygon fill="grey" stroke="grey" stroke-width="2" points="411.5,-913.93 408,-903.93 404.5,-913.93 411.5,-913.93"/>
</g>
<!-- 16 -->
<g id="node17" class="node">
<title>16</title>
<path fill="none" stroke="#61d856" stroke-width="2" d="M557.12,-828C557.12,-828 502.88,-828 502.88,-828 496.88,-828 490.88,-822 490.88,-816 490.88,-816 490.88,-804 490.88,-804 490.88,-798 496.88,-792 502.88,-792 502.88,-792 557.12,-792 557.12,-792 563.12,-792 569.12,-798 569.12,-804 569.12,-804 569.12,-816 569.12,-816 569.12,-822 563.12,-828 557.12,-828"/>
<text text-anchor="middle" x="530" y="-806.88" font-family="sans" font-size="10.00">fastq_screen</text>
</g>
<!-- 10&#45;&gt;16 -->
<g id="edge26" class="edge">
<title>10&#45;&gt;16</title>
<path fill="none" stroke="grey" stroke-width="2" d="M423.45,-935.02C444.35,-910.69 481.83,-867.07 506.3,-838.58"/>
<polygon fill="grey" stroke="grey" stroke-width="2" points="508.84,-841 512.7,-831.13 503.53,-836.44 508.84,-841"/>
</g>
<!-- 11&#45;&gt;0 -->
<g id="edge3" class="edge">
<title>11&#45;&gt;0</title>
<path fill="none" stroke="grey" stroke-width="2" d="M77.88,-215.13C66.05,-206.08 53.35,-194.04 46,-180 24.31,-138.58 22.77,-83.13 24.36,-49.29"/>
<polygon fill="grey" stroke="grey" stroke-width="2" points="27.83,-49.85 24.96,-39.65 20.85,-49.41 27.83,-49.85"/>
</g>
<!-- 11&#45;&gt;13 -->
<g id="edge23" class="edge">
<title>11&#45;&gt;13</title>
<path fill="none" stroke="grey" stroke-width="2" d="M110.29,-215.34C111.91,-208.67 113.8,-200.89 115.62,-193.39"/>
<polygon fill="grey" stroke="grey" stroke-width="2" points="118.98,-194.39 117.94,-183.84 112.18,-192.73 118.98,-194.39"/>
</g>
<!-- 12&#45;&gt;0 -->
<g id="edge1" class="edge">
<title>12&#45;&gt;0</title>
<path fill="none" stroke="grey" stroke-width="2" d="M339.22,-83.09C278.43,-70.61 136.82,-41.54 67.16,-27.24"/>
<polygon fill="grey" stroke="grey" stroke-width="2" points="68.09,-23.86 57.59,-25.28 66.69,-30.72 68.09,-23.86"/>
</g>
<!-- 13&#45;&gt;12 -->
<g id="edge20" class="edge">
<title>13&#45;&gt;12</title>
<path fill="none" stroke="grey" stroke-width="2" d="M185.78,-143.06C230.13,-130.39 288.33,-113.76 326.88,-102.75"/>
<polygon fill="grey" stroke="grey" stroke-width="2" points="327.83,-106.12 336.49,-100 325.91,-99.39 327.83,-106.12"/>
</g>
<!-- 14&#45;&gt;12 -->
<g id="edge19" class="edge">
<title>14&#45;&gt;12</title>
<path fill="none" stroke="grey" stroke-width="2" d="M387.97,-647.24C401.76,-620.96 425,-569.74 425,-523 425,-523 425,-523 425,-233 425,-191.39 403.66,-147.54 387.1,-119.77"/>
<polygon fill="grey" stroke="grey" stroke-width="2" points="390.2,-118.14 381.96,-111.48 384.25,-121.82 390.2,-118.14"/>
</g>
<!-- 15&#45;&gt;12 -->
<g id="edge15" class="edge">
<title>15&#45;&gt;12</title>
<path fill="none" stroke="grey" stroke-width="2" d="M291.26,-143.15C303.36,-134.93 317.94,-125.02 331.13,-116.06"/>
<polygon fill="grey" stroke="grey" stroke-width="2" points="332.98,-119.03 339.29,-110.51 329.05,-113.24 332.98,-119.03"/>
</g>
<!-- 16&#45;&gt;12 -->
<g id="edge17" class="edge">
<title>16&#45;&gt;12</title>
<path fill="none" stroke="grey" stroke-width="2" d="M526.89,-791.13C522.5,-764.28 515,-711.87 515,-667 515,-667 515,-667 515,-233 515,-189.99 506.66,-175.15 477,-144 458.39,-124.46 431.07,-111.19 408.44,-102.82"/>
<polygon fill="grey" stroke="grey" stroke-width="2" points="409.89,-99.62 399.29,-99.66 407.6,-106.23 409.89,-99.62"/>
</g>
<!-- 17&#45;&gt;12 -->
<g id="edge16" class="edge">
<title>17&#45;&gt;12</title>
<path fill="none" stroke="grey" stroke-width="2" d="M312.3,-215.48C317.65,-205.22 324.4,-191.97 330,-180 339.12,-160.5 348.63,-138.23 355.85,-120.84"/>
<polygon fill="grey" stroke="grey" stroke-width="2" points="359.05,-122.26 359.63,-111.69 352.58,-119.6 359.05,-122.26"/>
</g>
</g>
</svg>
