<?xml version="1.0" encoding="UTF-8" standalone="no"?>
<!DOCTYPE svg PUBLIC "-//W3C//DTD SVG 1.1//EN"
 "http://www.w3.org/Graphics/SVG/1.1/DTD/svg11.dtd">
<!-- Generated by graphviz version 9.0.0 (20231125.0833)
 -->
<!-- Title: snakemake_dag Pages: 1 -->
<svg width="427pt" height="332pt"
 viewBox="0.00 0.00 426.50 332.00" xmlns="http://www.w3.org/2000/svg" xmlns:xlink="http://www.w3.org/1999/xlink">
<g id="graph0" class="graph" transform="scale(1 1) rotate(0) translate(4 328)">
<title>snakemake_dag</title>
<polygon fill="white" stroke="none" points="-4,4 -4,-328 422.5,-328 422.5,4 -4,4"/>
<!-- 0 -->
<g id="node1" class="node">
<title>0</title>
<path fill="none" stroke="#70d856" stroke-width="2" d="M260.25,-36C260.25,-36 228.5,-36 228.5,-36 222.5,-36 216.5,-30 216.5,-24 216.5,-24 216.5,-12 216.5,-12 216.5,-6 222.5,0 228.5,0 228.5,0 260.25,0 260.25,0 266.25,0 272.25,-6 272.25,-12 272.25,-12 272.25,-24 272.25,-24 272.25,-30 266.25,-36 260.25,-36"/>
<text text-anchor="middle" x="244.38" y="-14.88" font-family="sans" font-size="10.00">multiQC</text>
</g>
<!-- 1 -->
<g id="node2" class="node">
<title>1</title>
<path fill="none" stroke="#d8cb56" stroke-width="2" d="M327.38,-252C327.38,-252 297.38,-252 297.38,-252 291.38,-252 285.38,-246 285.38,-240 285.38,-240 285.38,-228 285.38,-228 285.38,-222 291.38,-216 297.38,-216 297.38,-216 327.38,-216 327.38,-216 333.38,-216 339.38,-222 339.38,-228 339.38,-228 339.38,-240 339.38,-240 339.38,-246 333.38,-252 327.38,-252"/>
<text text-anchor="middle" x="312.38" y="-230.88" font-family="sans" font-size="10.00">fastp</text>
</g>
<!-- 1&#45;&gt;0 -->
<g id="edge2" class="edge">
<title>1&#45;&gt;0</title>
<path fill="none" stroke="grey" stroke-width="2" d="M313.75,-215.13C315.39,-184.36 315.52,-120.06 293.38,-72 289.02,-62.56 282.35,-53.67 275.31,-45.97"/>
<polygon fill="grey" stroke="grey" stroke-width="2" points="277.99,-43.7 268.47,-39.05 273.01,-48.62 277.99,-43.7"/>
</g>
<!-- 4 -->
<g id="node5" class="node">
<title>4</title>
<path fill="none" stroke="#afd856" stroke-width="2" d="M225.38,-180C225.38,-180 195.38,-180 195.38,-180 189.38,-180 183.38,-174 183.38,-168 183.38,-168 183.38,-156 183.38,-156 183.38,-150 189.38,-144 195.38,-144 195.38,-144 225.38,-144 225.38,-144 231.38,-144 237.38,-150 237.38,-156 237.38,-156 237.38,-168 237.38,-168 237.38,-174 231.38,-180 225.38,-180"/>
<text text-anchor="middle" x="210.38" y="-158.88" font-family="sans" font-size="10.00">star</text>
</g>
<!-- 1&#45;&gt;4 -->
<g id="edge8" class="edge">
<title>1&#45;&gt;4</title>
<path fill="none" stroke="grey" stroke-width="2" d="M286.37,-215.15C274.38,-206.93 259.95,-197.02 246.89,-188.06"/>
<polygon fill="grey" stroke="grey" stroke-width="2" points="249.05,-185.3 238.83,-182.53 245.09,-191.07 249.05,-185.3"/>
</g>
<!-- 2 -->
<g id="node3" class="node">
<title>2</title>
<path fill="none" stroke="#d88d56" stroke-width="2" d="M380,-324C380,-324 310.75,-324 310.75,-324 304.75,-324 298.75,-318 298.75,-312 298.75,-312 298.75,-300 298.75,-300 298.75,-294 304.75,-288 310.75,-288 310.75,-288 380,-288 380,-288 386,-288 392,-294 392,-300 392,-300 392,-312 392,-312 392,-318 386,-324 380,-324"/>
<text text-anchor="middle" x="345.38" y="-302.88" font-family="sans" font-size="10.00">combine_fastqs</text>
</g>
<!-- 2&#45;&gt;1 -->
<g id="edge6" class="edge">
<title>2&#45;&gt;1</title>
<path fill="none" stroke="grey" stroke-width="2" d="M337.05,-287.34C333.79,-280.43 329.96,-272.31 326.31,-264.56"/>
<polygon fill="grey" stroke="grey" stroke-width="2" points="329.54,-263.19 322.11,-255.64 323.2,-266.18 329.54,-263.19"/>
</g>
<!-- 3 -->
<g id="node4" class="node">
<title>3</title>
<path fill="none" stroke="#56d873" stroke-width="2" d="M406.5,-180C406.5,-180 352.25,-180 352.25,-180 346.25,-180 340.25,-174 340.25,-168 340.25,-168 340.25,-156 340.25,-156 340.25,-150 346.25,-144 352.25,-144 352.25,-144 406.5,-144 406.5,-144 412.5,-144 418.5,-150 418.5,-156 418.5,-156 418.5,-168 418.5,-168 418.5,-174 412.5,-180 406.5,-180"/>
<text text-anchor="middle" x="379.38" y="-158.88" font-family="sans" font-size="10.00">fastq_screen</text>
</g>
<!-- 2&#45;&gt;3 -->
<g id="edge7" class="edge">
<title>2&#45;&gt;3</title>
<path fill="none" stroke="grey" stroke-width="2" d="M349.68,-287.02C355.33,-263.44 365.31,-221.73 372.13,-193.25"/>
<polygon fill="grey" stroke="grey" stroke-width="2" points="375.47,-194.32 374.4,-183.78 368.67,-192.69 375.47,-194.32"/>
</g>
<!-- 3&#45;&gt;0 -->
<g id="edge4" class="edge">
<title>3&#45;&gt;0</title>
<path fill="none" stroke="grey" stroke-width="2" d="M371.69,-143.01C362.84,-123.79 346.84,-93.23 326.38,-72 314.21,-59.39 298.51,-48.32 284.1,-39.6"/>
<polygon fill="grey" stroke="grey" stroke-width="2" points="285.94,-36.63 275.53,-34.65 282.44,-42.69 285.94,-36.63"/>
</g>
<!-- 4&#45;&gt;0 -->
<g id="edge3" class="edge">
<title>4&#45;&gt;0</title>
<path fill="none" stroke="grey" stroke-width="2" d="M201.91,-143.03C194.48,-124.64 186.18,-95.49 195.38,-72 199.13,-62.4 205.54,-53.5 212.49,-45.83"/>
<polygon fill="grey" stroke="grey" stroke-width="2" points="214.74,-48.54 219.32,-38.98 209.78,-43.6 214.74,-48.54"/>
</g>
<!-- 6 -->
<g id="node7" class="node">
<title>6</title>
<path fill="none" stroke="#5692d8" stroke-width="2" d="M272.25,-108C272.25,-108 216.5,-108 216.5,-108 210.5,-108 204.5,-102 204.5,-96 204.5,-96 204.5,-84 204.5,-84 204.5,-78 210.5,-72 216.5,-72 216.5,-72 272.25,-72 272.25,-72 278.25,-72 284.25,-78 284.25,-84 284.25,-84 284.25,-96 284.25,-96 284.25,-102 278.25,-108 272.25,-108"/>
<text text-anchor="middle" x="244.38" y="-86.88" font-family="sans" font-size="10.00">cleanup_files</text>
</g>
<!-- 4&#45;&gt;6 -->
<g id="edge10" class="edge">
<title>4&#45;&gt;6</title>
<path fill="none" stroke="grey" stroke-width="2" d="M218.95,-143.34C222.31,-136.43 226.25,-128.31 230.02,-120.56"/>
<polygon fill="grey" stroke="grey" stroke-width="2" points="233.14,-122.15 234.36,-111.62 226.84,-119.09 233.14,-122.15"/>
</g>
<!-- 7 -->
<g id="node8" class="node">
<title>7</title>
<path fill="none" stroke="#d85656" stroke-width="2" d="M136.75,-108C136.75,-108 12,-108 12,-108 6,-108 0,-102 0,-96 0,-96 0,-84 0,-84 0,-78 6,-72 12,-72 12,-72 136.75,-72 136.75,-72 142.75,-72 148.75,-78 148.75,-84 148.75,-84 148.75,-96 148.75,-96 148.75,-102 142.75,-108 136.75,-108"/>
<text text-anchor="middle" x="74.38" y="-86.88" font-family="sans" font-size="10.00">rsem_calculate_expression</text>
</g>
<!-- 4&#45;&gt;7 -->
<g id="edge11" class="edge">
<title>4&#45;&gt;7</title>
<path fill="none" stroke="grey" stroke-width="2" d="M182.53,-146.67C164.64,-137.46 140.99,-125.29 120.36,-114.67"/>
<polygon fill="grey" stroke="grey" stroke-width="2" points="122.14,-111.65 111.64,-110.18 118.93,-117.87 122.14,-111.65"/>
</g>
<!-- 5 -->
<g id="node6" class="node">
<title>5</title>
<path fill="none" stroke="#56d8a9" stroke-width="2" d="M231.88,-252C231.88,-252 188.88,-252 188.88,-252 182.88,-252 176.88,-246 176.88,-240 176.88,-240 176.88,-228 176.88,-228 176.88,-222 182.88,-216 188.88,-216 188.88,-216 231.88,-216 231.88,-216 237.88,-216 243.88,-222 243.88,-228 243.88,-228 243.88,-240 243.88,-240 243.88,-246 237.88,-252 231.88,-252"/>
<text text-anchor="middle" x="210.38" y="-230.88" font-family="sans" font-size="10.00">star_index</text>
</g>
<!-- 5&#45;&gt;4 -->
<g id="edge9" class="edge">
<title>5&#45;&gt;4</title>
<path fill="none" stroke="grey" stroke-width="2" d="M210.38,-215.34C210.38,-208.75 210.38,-201.08 210.38,-193.67"/>
<polygon fill="grey" stroke="grey" stroke-width="2" points="213.88,-193.93 210.38,-183.93 206.88,-193.93 213.88,-193.93"/>
</g>
<!-- 6&#45;&gt;0 -->
<g id="edge5" class="edge">
<title>6&#45;&gt;0</title>
<path fill="none" stroke="grey" stroke-width="2" d="M244.38,-71.34C244.38,-64.75 244.38,-57.08 244.38,-49.67"/>
<polygon fill="grey" stroke="grey" stroke-width="2" points="247.88,-49.93 244.38,-39.93 240.88,-49.93 247.88,-49.93"/>
</g>
<!-- 7&#45;&gt;0 -->
<g id="edge1" class="edge">
<title>7&#45;&gt;0</title>
<path fill="none" stroke="grey" stroke-width="2" d="M117.71,-71.15C144.21,-60.24 177.88,-46.38 203.85,-35.69"/>
<polygon fill="grey" stroke="grey" stroke-width="2" points="204.83,-39.07 212.74,-32.02 202.16,-32.6 204.83,-39.07"/>
</g>
<!-- 8 -->
<g id="node9" class="node">
<title>8</title>
<path fill="none" stroke="#56c9d8" stroke-width="2" d="M130,-180C130,-180 18.75,-180 18.75,-180 12.75,-180 6.75,-174 6.75,-168 6.75,-168 6.75,-156 6.75,-156 6.75,-150 12.75,-144 18.75,-144 18.75,-144 130,-144 130,-144 136,-144 142,-150 142,-156 142,-156 142,-168 142,-168 142,-174 136,-180 130,-180"/>
<text text-anchor="middle" x="74.38" y="-158.88" font-family="sans" font-size="10.00">rsem_prepare_reference</text>
</g>
<!-- 8&#45;&gt;7 -->
<g id="edge12" class="edge">
<title>8&#45;&gt;7</title>
<path fill="none" stroke="grey" stroke-width="2" d="M74.38,-143.34C74.38,-136.75 74.38,-129.08 74.38,-121.67"/>
<polygon fill="grey" stroke="grey" stroke-width="2" points="77.88,-121.93 74.38,-111.93 70.88,-121.93 77.88,-121.93"/>
</g>
</g>
</svg>
