<?xml version="1.0" encoding="UTF-8" standalone="no"?>
<!DOCTYPE svg PUBLIC "-//W3C//DTD SVG 1.1//EN"
 "http://www.w3.org/Graphics/SVG/1.1/DTD/svg11.dtd">
<!-- Generated by graphviz version 9.0.0 (20231125.0833)
 -->
<!-- Title: snakemake_dag Pages: 1 -->
<svg width="236pt" height="332pt"
 viewBox="0.00 0.00 236.37 332.00" xmlns="http://www.w3.org/2000/svg" xmlns:xlink="http://www.w3.org/1999/xlink">
<g id="graph0" class="graph" transform="scale(1 1) rotate(0) translate(4 328)">
<title>snakemake_dag</title>
<polygon fill="white" stroke="none" points="-4,4 -4,-328 232.37,-328 232.37,4 -4,4"/>
<!-- 0 -->
<g id="node1" class="node">
<title>0</title>
<path fill="none" stroke="#56d87b" stroke-width="2" d="M104.12,-36C104.12,-36 72.37,-36 72.37,-36 66.37,-36 60.37,-30 60.37,-24 60.37,-24 60.37,-12 60.37,-12 60.37,-6 66.37,0 72.37,0 72.37,0 104.12,0 104.12,0 110.12,0 116.12,-6 116.12,-12 116.12,-12 116.12,-24 116.12,-24 116.12,-30 110.12,-36 104.12,-36"/>
<text text-anchor="middle" x="88.24" y="-14.88" font-family="sans" font-size="10.00">multiQC</text>
</g>
<!-- 1 -->
<g id="node2" class="node">
<title>1</title>
<path fill="none" stroke="#56a2d8" stroke-width="2" d="M140.24,-252C140.24,-252 110.24,-252 110.24,-252 104.24,-252 98.24,-246 98.24,-240 98.24,-240 98.24,-228 98.24,-228 98.24,-222 104.24,-216 110.24,-216 110.24,-216 140.24,-216 140.24,-216 146.24,-216 152.24,-222 152.24,-228 152.24,-228 152.24,-240 152.24,-240 152.24,-246 146.24,-252 140.24,-252"/>
<text text-anchor="middle" x="125.24" y="-230.88" font-family="sans" font-size="10.00">fastp</text>
</g>
<!-- 1&#45;&gt;0 -->
<g id="edge4" class="edge">
<title>1&#45;&gt;0</title>
<path fill="none" stroke="grey" stroke-width="2" d="M123.66,-215.47C120.79,-185.75 114.02,-123.64 103.24,-72 101.7,-64.63 99.69,-56.78 97.65,-49.44"/>
<polygon fill="grey" stroke="grey" stroke-width="2" points="101.02,-48.52 94.86,-39.9 94.3,-50.48 101.02,-48.52"/>
</g>
<!-- 4 -->
<g id="node5" class="node">
<title>4</title>
<path fill="none" stroke="#78d856" stroke-width="2" d="M66.24,-180C66.24,-180 36.24,-180 36.24,-180 30.24,-180 24.24,-174 24.24,-168 24.24,-168 24.24,-156 24.24,-156 24.24,-150 30.24,-144 36.24,-144 36.24,-144 66.24,-144 66.24,-144 72.24,-144 78.24,-150 78.24,-156 78.24,-156 78.24,-168 78.24,-168 78.24,-174 72.24,-180 66.24,-180"/>
<text text-anchor="middle" x="51.24" y="-158.88" font-family="sans" font-size="10.00">star</text>
</g>
<!-- 1&#45;&gt;4 -->
<g id="edge8" class="edge">
<title>1&#45;&gt;4</title>
<path fill="none" stroke="grey" stroke-width="2" d="M106.57,-215.34C98.4,-207.6 88.62,-198.36 79.58,-189.81"/>
<polygon fill="grey" stroke="grey" stroke-width="2" points="82.04,-187.31 72.37,-182.98 77.23,-192.4 82.04,-187.31"/>
</g>
<!-- 2 -->
<g id="node3" class="node">
<title>2</title>
<path fill="none" stroke="#56d8c9" stroke-width="2" d="M191.87,-324C191.87,-324 122.62,-324 122.62,-324 116.62,-324 110.62,-318 110.62,-312 110.62,-312 110.62,-300 110.62,-300 110.62,-294 116.62,-288 122.62,-288 122.62,-288 191.87,-288 191.87,-288 197.87,-288 203.87,-294 203.87,-300 203.87,-300 203.87,-312 203.87,-312 203.87,-318 197.87,-324 191.87,-324"/>
<text text-anchor="middle" x="157.24" y="-302.88" font-family="sans" font-size="10.00">combine_fastqs</text>
</g>
<!-- 2&#45;&gt;1 -->
<g id="edge5" class="edge">
<title>2&#45;&gt;1</title>
<path fill="none" stroke="grey" stroke-width="2" d="M149.17,-287.34C146.01,-280.43 142.3,-272.31 138.76,-264.56"/>
<polygon fill="grey" stroke="grey" stroke-width="2" points="142.03,-263.29 134.69,-255.65 135.66,-266.2 142.03,-263.29"/>
</g>
<!-- 3 -->
<g id="node4" class="node">
<title>3</title>
<path fill="none" stroke="#d8a456" stroke-width="2" d="M216.37,-180C216.37,-180 162.12,-180 162.12,-180 156.12,-180 150.12,-174 150.12,-168 150.12,-168 150.12,-156 150.12,-156 150.12,-150 156.12,-144 162.12,-144 162.12,-144 216.37,-144 216.37,-144 222.37,-144 228.37,-150 228.37,-156 228.37,-156 228.37,-168 228.37,-168 228.37,-174 222.37,-180 216.37,-180"/>
<text text-anchor="middle" x="189.24" y="-158.88" font-family="sans" font-size="10.00">fastq_screen</text>
</g>
<!-- 2&#45;&gt;3 -->
<g id="edge6" class="edge">
<title>2&#45;&gt;3</title>
<path fill="none" stroke="grey" stroke-width="2" d="M161.3,-287.02C166.61,-263.44 176.01,-221.73 182.43,-193.25"/>
<polygon fill="grey" stroke="grey" stroke-width="2" points="185.77,-194.32 184.56,-183.79 178.95,-192.78 185.77,-194.32"/>
</g>
<!-- 3&#45;&gt;0 -->
<g id="edge3" class="edge">
<title>3&#45;&gt;0</title>
<path fill="none" stroke="grey" stroke-width="2" d="M180.06,-143.29C170.18,-124.85 153.56,-95.43 136.24,-72 129.81,-63.3 122.19,-54.37 114.94,-46.39"/>
<polygon fill="grey" stroke="grey" stroke-width="2" points="117.51,-44.01 108.13,-39.08 112.39,-48.79 117.51,-44.01"/>
</g>
<!-- 4&#45;&gt;0 -->
<g id="edge1" class="edge">
<title>4&#45;&gt;0</title>
<path fill="none" stroke="grey" stroke-width="2" d="M29.94,-143.14C20.44,-133.78 10.27,-121.47 5.24,-108 -0.35,-93.01 -2.44,-86.03 5.24,-72 14.5,-55.11 31.68,-42.82 48.02,-34.35"/>
<polygon fill="grey" stroke="grey" stroke-width="2" points="49.37,-37.59 56.91,-30.15 46.37,-31.26 49.37,-37.59"/>
</g>
<!-- 6 -->
<g id="node7" class="node">
<title>6</title>
<path fill="none" stroke="#d85656" stroke-width="2" d="M82.12,-108C82.12,-108 26.37,-108 26.37,-108 20.37,-108 14.37,-102 14.37,-96 14.37,-96 14.37,-84 14.37,-84 14.37,-78 20.37,-72 26.37,-72 26.37,-72 82.12,-72 82.12,-72 88.12,-72 94.12,-78 94.12,-84 94.12,-84 94.12,-96 94.12,-96 94.12,-102 88.12,-108 82.12,-108"/>
<text text-anchor="middle" x="54.24" y="-86.88" font-family="sans" font-size="10.00">cleanup_files</text>
</g>
<!-- 4&#45;&gt;6 -->
<g id="edge9" class="edge">
<title>4&#45;&gt;6</title>
<path fill="none" stroke="grey" stroke-width="2" d="M52,-143.34C52.28,-136.75 52.61,-129.08 52.93,-121.67"/>
<polygon fill="grey" stroke="grey" stroke-width="2" points="56.42,-122.07 53.35,-111.93 49.42,-121.77 56.42,-122.07"/>
</g>
<!-- 5 -->
<g id="node6" class="node">
<title>5</title>
<path fill="none" stroke="#c6d856" stroke-width="2" d="M67.74,-252C67.74,-252 24.74,-252 24.74,-252 18.74,-252 12.74,-246 12.74,-240 12.74,-240 12.74,-228 12.74,-228 12.74,-222 18.74,-216 24.74,-216 24.74,-216 67.74,-216 67.74,-216 73.74,-216 79.74,-222 79.74,-228 79.74,-228 79.74,-240 79.74,-240 79.74,-246 73.74,-252 67.74,-252"/>
<text text-anchor="middle" x="46.24" y="-230.88" font-family="sans" font-size="10.00">star_index</text>
</g>
<!-- 5&#45;&gt;4 -->
<g id="edge7" class="edge">
<title>5&#45;&gt;4</title>
<path fill="none" stroke="grey" stroke-width="2" d="M47.51,-215.34C47.98,-208.75 48.52,-201.08 49.05,-193.67"/>
<polygon fill="grey" stroke="grey" stroke-width="2" points="52.53,-194.15 49.75,-183.92 45.55,-193.65 52.53,-194.15"/>
</g>
<!-- 6&#45;&gt;0 -->
<g id="edge2" class="edge">
<title>6&#45;&gt;0</title>
<path fill="none" stroke="grey" stroke-width="2" d="M62.82,-71.34C66.18,-64.43 70.12,-56.31 73.89,-48.56"/>
<polygon fill="grey" stroke="grey" stroke-width="2" points="77.01,-50.15 78.23,-39.62 70.71,-47.09 77.01,-50.15"/>
</g>
</g>
</svg>
