<?xml version="1.0" encoding="UTF-8" standalone="no"?>
<!DOCTYPE svg PUBLIC "-//W3C//DTD SVG 1.1//EN"
 "http://www.w3.org/Graphics/SVG/1.1/DTD/svg11.dtd">
<!-- Generated by graphviz version 9.0.0 (20231125.0833)
 -->
<!-- Title: snakemake_dag Pages: 1 -->
<svg width="652pt" height="692pt"
 viewBox="0.00 0.00 651.88 692.00" xmlns="http://www.w3.org/2000/svg" xmlns:xlink="http://www.w3.org/1999/xlink">
<g id="graph0" class="graph" transform="scale(1 1) rotate(0) translate(4 688)">
<title>snakemake_dag</title>
<polygon fill="white" stroke="none" points="-4,4 -4,-688 647.88,-688 647.88,4 -4,4"/>
<!-- 0 -->
<g id="node1" class="node">
<title>0</title>
<path fill="none" stroke="#56d8d8" stroke-width="2" d="M449.25,-36C449.25,-36 417.5,-36 417.5,-36 411.5,-36 405.5,-30 405.5,-24 405.5,-24 405.5,-12 405.5,-12 405.5,-6 411.5,0 417.5,0 417.5,0 449.25,0 449.25,0 455.25,0 461.25,-6 461.25,-12 461.25,-12 461.25,-24 461.25,-24 461.25,-30 455.25,-36 449.25,-36"/>
<text text-anchor="middle" x="433.38" y="-14.88" font-family="sans" font-size="10.00">multiQC</text>
</g>
<!-- 1 -->
<g id="node2" class="node">
<title>1</title>
<path fill="none" stroke="#d8a456" stroke-width="2" d="M501.5,-108C501.5,-108 465.25,-108 465.25,-108 459.25,-108 453.25,-102 453.25,-96 453.25,-96 453.25,-84 453.25,-84 453.25,-78 459.25,-72 465.25,-72 465.25,-72 501.5,-72 501.5,-72 507.5,-72 513.5,-78 513.5,-84 513.5,-84 513.5,-96 513.5,-96 513.5,-102 507.5,-108 501.5,-108"/>
<text text-anchor="middle" x="483.38" y="-86.88" font-family="sans" font-size="10.00">bcf_stats</text>
</g>
<!-- 1&#45;&gt;0 -->
<g id="edge2" class="edge">
<title>1&#45;&gt;0</title>
<path fill="none" stroke="grey" stroke-width="2" d="M470.76,-71.34C465.59,-64.1 459.47,-55.53 453.7,-47.45"/>
<polygon fill="grey" stroke="grey" stroke-width="2" points="456.59,-45.47 447.93,-39.37 450.89,-49.54 456.59,-45.47"/>
</g>
<!-- 2 -->
<g id="node3" class="node">
<title>2</title>
<path fill="none" stroke="#56c1d8" stroke-width="2" d="M566.25,-180C566.25,-180 444.5,-180 444.5,-180 438.5,-180 432.5,-174 432.5,-168 432.5,-168 432.5,-156 432.5,-156 432.5,-150 438.5,-144 444.5,-144 444.5,-144 566.25,-144 566.25,-144 572.25,-144 578.25,-150 578.25,-156 578.25,-156 578.25,-168 578.25,-168 578.25,-174 572.25,-180 566.25,-180"/>
<text text-anchor="middle" x="505.38" y="-158.88" font-family="sans" font-size="10.00">annotate_with_cosmic_vcf</text>
</g>
<!-- 2&#45;&gt;1 -->
<g id="edge3" class="edge">
<title>2&#45;&gt;1</title>
<path fill="none" stroke="grey" stroke-width="2" d="M499.83,-143.34C497.71,-136.59 495.23,-128.69 492.84,-121.11"/>
<polygon fill="grey" stroke="grey" stroke-width="2" points="496.25,-120.28 489.91,-111.79 489.57,-122.38 496.25,-120.28"/>
</g>
<!-- 3 -->
<g id="node4" class="node">
<title>3</title>
<path fill="none" stroke="#d88d56" stroke-width="2" d="M506.25,-252C506.25,-252 402.5,-252 402.5,-252 396.5,-252 390.5,-246 390.5,-240 390.5,-240 390.5,-228 390.5,-228 390.5,-222 396.5,-216 402.5,-216 402.5,-216 506.25,-216 506.25,-216 512.25,-216 518.25,-222 518.25,-228 518.25,-228 518.25,-240 518.25,-240 518.25,-246 512.25,-252 506.25,-252"/>
<text text-anchor="middle" x="454.38" y="-230.88" font-family="sans" font-size="10.00">annotate_variants_vep</text>
</g>
<!-- 3&#45;&gt;0 -->
<g id="edge1" class="edge">
<title>3&#45;&gt;0</title>
<path fill="none" stroke="grey" stroke-width="2" d="M440.91,-215.43C434.22,-205.59 426.84,-192.76 423.38,-180 411.34,-135.57 418.88,-81.83 425.82,-49.05"/>
<polygon fill="grey" stroke="grey" stroke-width="2" points="429.14,-50.25 427.94,-39.72 422.31,-48.7 429.14,-50.25"/>
</g>
<!-- 3&#45;&gt;2 -->
<g id="edge4" class="edge">
<title>3&#45;&gt;2</title>
<path fill="none" stroke="grey" stroke-width="2" d="M467.25,-215.34C472.58,-208.01 478.9,-199.34 484.85,-191.18"/>
<polygon fill="grey" stroke="grey" stroke-width="2" points="487.49,-193.49 490.55,-183.35 481.84,-189.37 487.49,-193.49"/>
</g>
<!-- 4 -->
<g id="node5" class="node">
<title>4</title>
<path fill="none" stroke="#d6d856" stroke-width="2" d="M379.5,-324C379.5,-324 325.25,-324 325.25,-324 319.25,-324 313.25,-318 313.25,-312 313.25,-312 313.25,-300 313.25,-300 313.25,-294 319.25,-288 325.25,-288 325.25,-288 379.5,-288 379.5,-288 385.5,-288 391.5,-294 391.5,-300 391.5,-300 391.5,-312 391.5,-312 391.5,-318 385.5,-324 379.5,-324"/>
<text text-anchor="middle" x="352.38" y="-302.88" font-family="sans" font-size="10.00">bcftools_sort</text>
</g>
<!-- 4&#45;&gt;3 -->
<g id="edge5" class="edge">
<title>4&#45;&gt;3</title>
<path fill="none" stroke="grey" stroke-width="2" d="M378.38,-287.15C390.37,-278.93 404.81,-269.02 417.87,-260.06"/>
<polygon fill="grey" stroke="grey" stroke-width="2" points="419.66,-263.07 425.93,-254.53 415.7,-257.3 419.66,-263.07"/>
</g>
<!-- 5 -->
<g id="node6" class="node">
<title>5</title>
<path fill="none" stroke="#568ad8" stroke-width="2" d="M420.75,-396C420.75,-396 284,-396 284,-396 278,-396 272,-390 272,-384 272,-384 272,-372 272,-372 272,-366 278,-360 284,-360 284,-360 420.75,-360 420.75,-360 426.75,-360 432.75,-366 432.75,-372 432.75,-372 432.75,-384 432.75,-384 432.75,-390 426.75,-396 420.75,-396"/>
<text text-anchor="middle" x="352.38" y="-374.88" font-family="sans" font-size="10.00">gatk_leftalignandtrimvariants</text>
</g>
<!-- 5&#45;&gt;4 -->
<g id="edge8" class="edge">
<title>5&#45;&gt;4</title>
<path fill="none" stroke="grey" stroke-width="2" d="M352.38,-359.34C352.38,-352.75 352.38,-345.08 352.38,-337.67"/>
<polygon fill="grey" stroke="grey" stroke-width="2" points="355.88,-337.93 352.38,-327.93 348.88,-337.93 355.88,-337.93"/>
</g>
<!-- 6 -->
<g id="node7" class="node">
<title>6</title>
<path fill="none" stroke="#70d856" stroke-width="2" d="M292.13,-468C292.13,-468 142.63,-468 142.63,-468 136.63,-468 130.63,-462 130.63,-456 130.63,-456 130.63,-444 130.63,-444 130.63,-438 136.63,-432 142.63,-432 142.63,-432 292.13,-432 292.13,-432 298.13,-432 304.13,-438 304.13,-444 304.13,-444 304.13,-456 304.13,-456 304.13,-462 298.13,-468 292.13,-468"/>
<text text-anchor="middle" x="217.38" y="-446.88" font-family="sans" font-size="10.00">gatk_filtermutectcalls_complete</text>
</g>
<!-- 6&#45;&gt;5 -->
<g id="edge10" class="edge">
<title>6&#45;&gt;5</title>
<path fill="none" stroke="grey" stroke-width="2" d="M251.79,-431.15C268.46,-422.52 288.69,-412.02 306.63,-402.72"/>
<polygon fill="grey" stroke="grey" stroke-width="2" points="308.07,-405.92 315.34,-398.21 304.85,-399.7 308.07,-405.92"/>
</g>
<!-- 7 -->
<g id="node8" class="node">
<title>7</title>
<path fill="none" stroke="#88d856" stroke-width="2" d="M97.13,-612C97.13,-612 37.63,-612 37.63,-612 31.63,-612 25.63,-606 25.63,-600 25.63,-600 25.63,-588 25.63,-588 25.63,-582 31.63,-576 37.63,-576 37.63,-576 97.13,-576 97.13,-576 103.13,-576 109.13,-582 109.13,-588 109.13,-588 109.13,-600 109.13,-600 109.13,-606 103.13,-612 97.13,-612"/>
<text text-anchor="middle" x="67.38" y="-590.88" font-family="sans" font-size="10.00">gatk_mutect2</text>
</g>
<!-- 7&#45;&gt;6 -->
<g id="edge15" class="edge">
<title>7&#45;&gt;6</title>
<path fill="none" stroke="grey" stroke-width="2" d="M37.38,-575.13C25.39,-566.23 12.9,-554.3 6.38,-540 -0.26,-525.44 -3.46,-516.62 6.38,-504 20.66,-485.68 69.94,-472.73 117.28,-464.22"/>
<polygon fill="grey" stroke="grey" stroke-width="2" points="117.65,-467.71 126.91,-462.56 116.46,-460.81 117.65,-467.71"/>
</g>
<!-- 11 -->
<g id="node12" class="node">
<title>11</title>
<path fill="none" stroke="#59d856" stroke-width="2" d="M177.13,-540C177.13,-540 27.63,-540 27.63,-540 21.63,-540 15.63,-534 15.63,-528 15.63,-528 15.63,-516 15.63,-516 15.63,-510 21.63,-504 27.63,-504 27.63,-504 177.13,-504 177.13,-504 183.13,-504 189.13,-510 189.13,-516 189.13,-516 189.13,-528 189.13,-528 189.13,-534 183.13,-540 177.13,-540"/>
<text text-anchor="middle" x="102.38" y="-518.88" font-family="sans" font-size="10.00">gatk_learnreadorientationmodel</text>
</g>
<!-- 7&#45;&gt;11 -->
<g id="edge18" class="edge">
<title>7&#45;&gt;11</title>
<path fill="none" stroke="grey" stroke-width="2" d="M76.21,-575.34C79.71,-568.34 83.82,-560.12 87.74,-552.28"/>
<polygon fill="grey" stroke="grey" stroke-width="2" points="90.73,-554.12 92.07,-543.61 84.47,-550.99 90.73,-554.12"/>
</g>
<!-- 8 -->
<g id="node9" class="node">
<title>8</title>
<path fill="none" stroke="#56a2d8" stroke-width="2" d="M321.88,-612C321.88,-612 182.88,-612 182.88,-612 176.88,-612 170.88,-606 170.88,-600 170.88,-600 170.88,-588 170.88,-588 170.88,-582 176.88,-576 182.88,-576 182.88,-576 321.88,-576 321.88,-576 327.88,-576 333.88,-582 333.88,-588 333.88,-588 333.88,-600 333.88,-600 333.88,-606 327.88,-612 321.88,-612"/>
<text text-anchor="middle" x="252.38" y="-590.88" font-family="sans" font-size="10.00">gatk_calculate_contamination</text>
</g>
<!-- 8&#45;&gt;6 -->
<g id="edge14" class="edge">
<title>8&#45;&gt;6</title>
<path fill="none" stroke="grey" stroke-width="2" d="M246.68,-575.44C243.44,-565.16 239.44,-551.91 236.38,-540 231.41,-520.68 226.72,-498.77 223.24,-481.53"/>
<polygon fill="grey" stroke="grey" stroke-width="2" points="226.69,-480.93 221.32,-471.8 219.83,-482.29 226.69,-480.93"/>
</g>
<!-- 10 -->
<g id="node11" class="node">
<title>10</title>
<path fill="none" stroke="#56d873" stroke-width="2" d="M387.75,-540C387.75,-540 257,-540 257,-540 251,-540 245,-534 245,-528 245,-528 245,-516 245,-516 245,-510 251,-504 257,-504 257,-504 387.75,-504 387.75,-504 393.75,-504 399.75,-510 399.75,-516 399.75,-516 399.75,-528 399.75,-528 399.75,-534 393.75,-540 387.75,-540"/>
<text text-anchor="middle" x="322.38" y="-518.88" font-family="sans" font-size="10.00">cleanup_calc_contamination</text>
</g>
<!-- 8&#45;&gt;10 -->
<g id="edge17" class="edge">
<title>8&#45;&gt;10</title>
<path fill="none" stroke="grey" stroke-width="2" d="M270.04,-575.34C277.69,-567.69 286.82,-558.56 295.3,-550.08"/>
<polygon fill="grey" stroke="grey" stroke-width="2" points="297.74,-552.59 302.34,-543.04 292.79,-547.64 297.74,-552.59"/>
</g>
<!-- 9 -->
<g id="node10" class="node">
<title>9</title>
<path fill="none" stroke="#56d88a" stroke-width="2" d="M317.38,-684C317.38,-684 187.38,-684 187.38,-684 181.38,-684 175.38,-678 175.38,-672 175.38,-672 175.38,-660 175.38,-660 175.38,-654 181.38,-648 187.38,-648 187.38,-648 317.38,-648 317.38,-648 323.38,-648 329.38,-654 329.38,-660 329.38,-660 329.38,-672 329.38,-672 329.38,-678 323.38,-684 317.38,-684"/>
<text text-anchor="middle" x="252.38" y="-662.88" font-family="sans" font-size="10.00">gatk_get_pileup_summaries</text>
</g>
<!-- 9&#45;&gt;8 -->
<g id="edge16" class="edge">
<title>9&#45;&gt;8</title>
<path fill="none" stroke="grey" stroke-width="2" d="M252.38,-647.34C252.38,-640.75 252.38,-633.08 252.38,-625.67"/>
<polygon fill="grey" stroke="grey" stroke-width="2" points="255.88,-625.93 252.38,-615.93 248.88,-625.93 255.88,-625.93"/>
</g>
<!-- 10&#45;&gt;6 -->
<g id="edge12" class="edge">
<title>10&#45;&gt;6</title>
<path fill="none" stroke="grey" stroke-width="2" d="M295.61,-503.15C283.15,-494.84 268.11,-484.82 254.56,-475.79"/>
<polygon fill="grey" stroke="grey" stroke-width="2" points="256.88,-473.13 246.62,-470.49 253,-478.95 256.88,-473.13"/>
</g>
<!-- 11&#45;&gt;6 -->
<g id="edge13" class="edge">
<title>11&#45;&gt;6</title>
<path fill="none" stroke="grey" stroke-width="2" d="M131.7,-503.15C145.48,-494.76 162.14,-484.62 177.09,-475.52"/>
<polygon fill="grey" stroke="grey" stroke-width="2" points="178.81,-478.58 185.53,-470.39 175.17,-472.6 178.81,-478.58"/>
</g>
<!-- 12 -->
<g id="node13" class="node">
<title>12</title>
<path fill="none" stroke="#5673d8" stroke-width="2" d="M486.75,-324C486.75,-324 422,-324 422,-324 416,-324 410,-318 410,-312 410,-312 410,-300 410,-300 410,-294 416,-288 422,-288 422,-288 486.75,-288 486.75,-288 492.75,-288 498.75,-294 498.75,-300 498.75,-300 498.75,-312 498.75,-312 498.75,-318 492.75,-324 486.75,-324"/>
<text text-anchor="middle" x="454.38" y="-302.88" font-family="sans" font-size="10.00">get_vep_cache</text>
</g>
<!-- 12&#45;&gt;3 -->
<g id="edge7" class="edge">
<title>12&#45;&gt;3</title>
<path fill="none" stroke="grey" stroke-width="2" d="M454.38,-287.34C454.38,-280.75 454.38,-273.08 454.38,-265.67"/>
<polygon fill="grey" stroke="grey" stroke-width="2" points="457.88,-265.93 454.38,-255.93 450.88,-265.93 457.88,-265.93"/>
</g>
<!-- 13 -->
<g id="node14" class="node">
<title>13</title>
<path fill="none" stroke="#d86e56" stroke-width="2" d="M631.88,-324C631.88,-324 528.88,-324 528.88,-324 522.88,-324 516.88,-318 516.88,-312 516.88,-312 516.88,-300 516.88,-300 516.88,-294 522.88,-288 528.88,-288 528.88,-288 631.88,-288 631.88,-288 637.88,-288 643.88,-294 643.88,-300 643.88,-300 643.88,-312 643.88,-312 643.88,-318 637.88,-324 631.88,-324"/>
<text text-anchor="middle" x="580.38" y="-302.88" font-family="sans" font-size="10.00">download_vep_plugins</text>
</g>
<!-- 13&#45;&gt;3 -->
<g id="edge6" class="edge">
<title>13&#45;&gt;3</title>
<path fill="none" stroke="grey" stroke-width="2" d="M548.26,-287.15C532.86,-278.6 514.18,-268.22 497.56,-258.99"/>
<polygon fill="grey" stroke="grey" stroke-width="2" points="499.53,-256.08 489.09,-254.28 496.13,-262.2 499.53,-256.08"/>
</g>
<!-- 14 -->
<g id="node15" class="node">
<title>14</title>
<path fill="none" stroke="#bed856" stroke-width="2" d="M367.38,-468C367.38,-468 337.38,-468 337.38,-468 331.38,-468 325.38,-462 325.38,-456 325.38,-456 325.38,-444 325.38,-444 325.38,-438 331.38,-432 337.38,-432 337.38,-432 367.38,-432 367.38,-432 373.38,-432 379.38,-438 379.38,-444 379.38,-444 379.38,-456 379.38,-456 379.38,-462 373.38,-468 367.38,-468"/>
<text text-anchor="middle" x="352.38" y="-446.88" font-family="sans" font-size="10.00">VarDict</text>
</g>
<!-- 14&#45;&gt;5 -->
<g id="edge11" class="edge">
<title>14&#45;&gt;5</title>
<path fill="none" stroke="grey" stroke-width="2" d="M352.38,-431.34C352.38,-424.75 352.38,-417.08 352.38,-409.67"/>
<polygon fill="grey" stroke="grey" stroke-width="2" points="355.88,-409.93 352.38,-399.93 348.88,-409.93 355.88,-409.93"/>
</g>
<!-- 15 -->
<g id="node16" class="node">
<title>15</title>
<path fill="none" stroke="#d8bc56" stroke-width="2" d="M476.5,-468C476.5,-468 410.25,-468 410.25,-468 404.25,-468 398.25,-462 398.25,-456 398.25,-456 398.25,-444 398.25,-444 398.25,-438 404.25,-432 410.25,-432 410.25,-432 476.5,-432 476.5,-432 482.5,-432 488.5,-438 488.5,-444 488.5,-444 488.5,-456 488.5,-456 488.5,-462 482.5,-468 476.5,-468"/>
<text text-anchor="middle" x="443.38" y="-446.88" font-family="sans" font-size="10.00">Merge_Varscan</text>
</g>
<!-- 15&#45;&gt;5 -->
<g id="edge9" class="edge">
<title>15&#45;&gt;5</title>
<path fill="none" stroke="grey" stroke-width="2" d="M420.42,-431.34C409.93,-423.27 397.32,-413.57 385.81,-404.72"/>
<polygon fill="grey" stroke="grey" stroke-width="2" points="388.11,-402.07 378.05,-398.75 383.84,-407.62 388.11,-402.07"/>
</g>
<!-- 16 -->
<g id="node17" class="node">
<title>16</title>
<path fill="none" stroke="#56d8a2" stroke-width="2" d="M460.5,-540C460.5,-540 430.25,-540 430.25,-540 424.25,-540 418.25,-534 418.25,-528 418.25,-528 418.25,-516 418.25,-516 418.25,-510 424.25,-504 430.25,-504 430.25,-504 460.5,-504 460.5,-504 466.5,-504 472.5,-510 472.5,-516 472.5,-516 472.5,-528 472.5,-528 472.5,-534 466.5,-540 460.5,-540"/>
<text text-anchor="middle" x="445.38" y="-518.88" font-family="sans" font-size="10.00">Varscan</text>
</g>
<!-- 16&#45;&gt;15 -->
<g id="edge19" class="edge">
<title>16&#45;&gt;15</title>
<path fill="none" stroke="grey" stroke-width="2" d="M444.87,-503.34C444.69,-496.75 444.47,-489.08 444.26,-481.67"/>
<polygon fill="grey" stroke="grey" stroke-width="2" points="447.76,-481.82 443.98,-471.93 440.76,-482.02 447.76,-481.82"/>
</g>
<!-- 17 -->
<g id="node18" class="node">
<title>17</title>
<path fill="none" stroke="#56d8c1" stroke-width="2" d="M470.25,-612C470.25,-612 420.5,-612 420.5,-612 414.5,-612 408.5,-606 408.5,-600 408.5,-600 408.5,-588 408.5,-588 408.5,-582 414.5,-576 420.5,-576 420.5,-576 470.25,-576 470.25,-576 476.25,-576 482.25,-582 482.25,-588 482.25,-588 482.25,-600 482.25,-600 482.25,-606 476.25,-612 470.25,-612"/>
<text text-anchor="middle" x="445.38" y="-590.88" font-family="sans" font-size="10.00">UnzipPileup</text>
</g>
<!-- 17&#45;&gt;16 -->
<g id="edge20" class="edge">
<title>17&#45;&gt;16</title>
<path fill="none" stroke="grey" stroke-width="2" d="M445.38,-575.34C445.38,-568.75 445.38,-561.08 445.38,-553.67"/>
<polygon fill="grey" stroke="grey" stroke-width="2" points="448.88,-553.93 445.38,-543.93 441.88,-553.93 448.88,-553.93"/>
</g>
<!-- 18 -->
<g id="node19" class="node">
<title>18</title>
<path fill="none" stroke="#a7d856" stroke-width="2" d="M483,-684C483,-684 407.75,-684 407.75,-684 401.75,-684 395.75,-678 395.75,-672 395.75,-672 395.75,-660 395.75,-660 395.75,-654 401.75,-648 407.75,-648 407.75,-648 483,-648 483,-648 489,-648 495,-654 495,-660 495,-660 495,-672 495,-672 495,-678 489,-684 483,-684"/>
<text text-anchor="middle" x="445.38" y="-662.88" font-family="sans" font-size="10.00">PileupForVarscan</text>
</g>
<!-- 18&#45;&gt;17 -->
<g id="edge21" class="edge">
<title>18&#45;&gt;17</title>
<path fill="none" stroke="grey" stroke-width="2" d="M445.38,-647.34C445.38,-640.75 445.38,-633.08 445.38,-625.67"/>
<polygon fill="grey" stroke="grey" stroke-width="2" points="448.88,-625.93 445.38,-615.93 441.88,-625.93 448.88,-625.93"/>
</g>
</g>
</svg>
