<?xml version="1.0" encoding="UTF-8" standalone="no"?>
<!DOCTYPE svg PUBLIC "-//W3C//DTD SVG 1.1//EN"
 "http://www.w3.org/Graphics/SVG/1.1/DTD/svg11.dtd">
<!-- Generated by graphviz version 9.0.0 (20231125.0833)
 -->
<!-- Title: snakemake_dag Pages: 1 -->
<svg width="652pt" height="692pt"
 viewBox="0.00 0.00 651.76 692.00" xmlns="http://www.w3.org/2000/svg" xmlns:xlink="http://www.w3.org/1999/xlink">
<g id="graph0" class="graph" transform="scale(1 1) rotate(0) translate(4 688)">
<title>snakemake_dag</title>
<polygon fill="white" stroke="none" points="-4,4 -4,-688 647.76,-688 647.76,4 -4,4"/>
<!-- 0 -->
<g id="node1" class="node">
<title>0</title>
<path fill="none" stroke="#d85656" stroke-width="2" d="M449.13,-36C449.13,-36 417.38,-36 417.38,-36 411.38,-36 405.38,-30 405.38,-24 405.38,-24 405.38,-12 405.38,-12 405.38,-6 411.38,0 417.38,0 417.38,0 449.13,0 449.13,0 455.13,0 461.13,-6 461.13,-12 461.13,-12 461.13,-24 461.13,-24 461.13,-30 455.13,-36 449.13,-36"/>
<text text-anchor="middle" x="433.26" y="-14.88" font-family="sans" font-size="10.00">multiQC</text>
</g>
<!-- 1 -->
<g id="node2" class="node">
<title>1</title>
<path fill="none" stroke="#bed856" stroke-width="2" d="M501.38,-108C501.38,-108 465.13,-108 465.13,-108 459.13,-108 453.13,-102 453.13,-96 453.13,-96 453.13,-84 453.13,-84 453.13,-78 459.13,-72 465.13,-72 465.13,-72 501.38,-72 501.38,-72 507.38,-72 513.38,-78 513.38,-84 513.38,-84 513.38,-96 513.38,-96 513.38,-102 507.38,-108 501.38,-108"/>
<text text-anchor="middle" x="483.26" y="-86.88" font-family="sans" font-size="10.00">bcf_stats</text>
</g>
<!-- 1&#45;&gt;0 -->
<g id="edge1" class="edge">
<title>1&#45;&gt;0</title>
<path fill="none" stroke="grey" stroke-width="2" d="M470.64,-71.34C465.47,-64.1 459.35,-55.53 453.58,-47.45"/>
<polygon fill="grey" stroke="grey" stroke-width="2" points="456.47,-45.47 447.8,-39.37 450.77,-49.54 456.47,-45.47"/>
</g>
<!-- 2 -->
<g id="node3" class="node">
<title>2</title>
<path fill="none" stroke="#d8bc56" stroke-width="2" d="M566.13,-180C566.13,-180 444.38,-180 444.38,-180 438.38,-180 432.38,-174 432.38,-168 432.38,-168 432.38,-156 432.38,-156 432.38,-150 438.38,-144 444.38,-144 444.38,-144 566.13,-144 566.13,-144 572.13,-144 578.13,-150 578.13,-156 578.13,-156 578.13,-168 578.13,-168 578.13,-174 572.13,-180 566.13,-180"/>
<text text-anchor="middle" x="505.26" y="-158.88" font-family="sans" font-size="10.00">annotate_with_cosmic_vcf</text>
</g>
<!-- 2&#45;&gt;1 -->
<g id="edge3" class="edge">
<title>2&#45;&gt;1</title>
<path fill="none" stroke="grey" stroke-width="2" d="M499.71,-143.34C497.59,-136.59 495.11,-128.69 492.72,-121.11"/>
<polygon fill="grey" stroke="grey" stroke-width="2" points="496.13,-120.28 489.79,-111.79 489.45,-122.38 496.13,-120.28"/>
</g>
<!-- 3 -->
<g id="node4" class="node">
<title>3</title>
<path fill="none" stroke="#5673d8" stroke-width="2" d="M506.13,-252C506.13,-252 402.38,-252 402.38,-252 396.38,-252 390.38,-246 390.38,-240 390.38,-240 390.38,-228 390.38,-228 390.38,-222 396.38,-216 402.38,-216 402.38,-216 506.13,-216 506.13,-216 512.13,-216 518.13,-222 518.13,-228 518.13,-228 518.13,-240 518.13,-240 518.13,-246 512.13,-252 506.13,-252"/>
<text text-anchor="middle" x="454.26" y="-230.88" font-family="sans" font-size="10.00">annotate_variants_vep</text>
</g>
<!-- 3&#45;&gt;0 -->
<g id="edge2" class="edge">
<title>3&#45;&gt;0</title>
<path fill="none" stroke="grey" stroke-width="2" d="M440.79,-215.43C434.1,-205.59 426.72,-192.76 423.26,-180 411.22,-135.57 418.76,-81.83 425.7,-49.05"/>
<polygon fill="grey" stroke="grey" stroke-width="2" points="429.02,-50.25 427.82,-39.72 422.19,-48.7 429.02,-50.25"/>
</g>
<!-- 3&#45;&gt;2 -->
<g id="edge4" class="edge">
<title>3&#45;&gt;2</title>
<path fill="none" stroke="grey" stroke-width="2" d="M467.13,-215.34C472.46,-208.01 478.78,-199.34 484.73,-191.18"/>
<polygon fill="grey" stroke="grey" stroke-width="2" points="487.37,-193.49 490.43,-183.35 481.72,-189.37 487.37,-193.49"/>
</g>
<!-- 4 -->
<g id="node5" class="node">
<title>4</title>
<path fill="none" stroke="#88d856" stroke-width="2" d="M379.38,-324C379.38,-324 325.13,-324 325.13,-324 319.13,-324 313.13,-318 313.13,-312 313.13,-312 313.13,-300 313.13,-300 313.13,-294 319.13,-288 325.13,-288 325.13,-288 379.38,-288 379.38,-288 385.38,-288 391.38,-294 391.38,-300 391.38,-300 391.38,-312 391.38,-312 391.38,-318 385.38,-324 379.38,-324"/>
<text text-anchor="middle" x="352.26" y="-302.88" font-family="sans" font-size="10.00">bcftools_sort</text>
</g>
<!-- 4&#45;&gt;3 -->
<g id="edge7" class="edge">
<title>4&#45;&gt;3</title>
<path fill="none" stroke="grey" stroke-width="2" d="M378.26,-287.15C390.25,-278.93 404.69,-269.02 417.74,-260.06"/>
<polygon fill="grey" stroke="grey" stroke-width="2" points="419.54,-263.07 425.81,-254.53 415.58,-257.3 419.54,-263.07"/>
</g>
<!-- 5 -->
<g id="node6" class="node">
<title>5</title>
<path fill="none" stroke="#56d8a2" stroke-width="2" d="M420.63,-396C420.63,-396 283.88,-396 283.88,-396 277.88,-396 271.88,-390 271.88,-384 271.88,-384 271.88,-372 271.88,-372 271.88,-366 277.88,-360 283.88,-360 283.88,-360 420.63,-360 420.63,-360 426.63,-360 432.63,-366 432.63,-372 432.63,-372 432.63,-384 432.63,-384 432.63,-390 426.63,-396 420.63,-396"/>
<text text-anchor="middle" x="352.26" y="-374.88" font-family="sans" font-size="10.00">gatk_leftalignandtrimvariants</text>
</g>
<!-- 5&#45;&gt;4 -->
<g id="edge8" class="edge">
<title>5&#45;&gt;4</title>
<path fill="none" stroke="grey" stroke-width="2" d="M352.26,-359.34C352.26,-352.75 352.26,-345.08 352.26,-337.67"/>
<polygon fill="grey" stroke="grey" stroke-width="2" points="355.76,-337.93 352.26,-327.93 348.76,-337.93 355.76,-337.93"/>
</g>
<!-- 6 -->
<g id="node7" class="node">
<title>6</title>
<path fill="none" stroke="#d6d856" stroke-width="2" d="M259.01,-468C259.01,-468 109.51,-468 109.51,-468 103.51,-468 97.51,-462 97.51,-456 97.51,-456 97.51,-444 97.51,-444 97.51,-438 103.51,-432 109.51,-432 109.51,-432 259.01,-432 259.01,-432 265.01,-432 271.01,-438 271.01,-444 271.01,-444 271.01,-456 271.01,-456 271.01,-462 265.01,-468 259.01,-468"/>
<text text-anchor="middle" x="184.26" y="-446.88" font-family="sans" font-size="10.00">gatk_filtermutectcalls_complete</text>
</g>
<!-- 6&#45;&gt;5 -->
<g id="edge12" class="edge">
<title>6&#45;&gt;5</title>
<path fill="none" stroke="grey" stroke-width="2" d="M227.09,-431.15C248.43,-422.26 274.48,-411.41 297.28,-401.91"/>
<polygon fill="grey" stroke="grey" stroke-width="2" points="298.54,-405.18 306.42,-398.1 295.85,-398.71 298.54,-405.18"/>
</g>
<!-- 7 -->
<g id="node8" class="node">
<title>7</title>
<path fill="none" stroke="#56d873" stroke-width="2" d="M97.01,-612C97.01,-612 37.51,-612 37.51,-612 31.51,-612 25.51,-606 25.51,-600 25.51,-600 25.51,-588 25.51,-588 25.51,-582 31.51,-576 37.51,-576 37.51,-576 97.01,-576 97.01,-576 103.01,-576 109.01,-582 109.01,-588 109.01,-588 109.01,-600 109.01,-600 109.01,-606 103.01,-612 97.01,-612"/>
<text text-anchor="middle" x="67.26" y="-590.88" font-family="sans" font-size="10.00">gatk_mutect2</text>
</g>
<!-- 7&#45;&gt;6 -->
<g id="edge16" class="edge">
<title>7&#45;&gt;6</title>
<path fill="none" stroke="grey" stroke-width="2" d="M37.26,-575.13C25.27,-566.23 12.78,-554.3 6.26,-540 -0.38,-525.44 -3.31,-516.83 6.26,-504 16.6,-490.13 49.57,-478.57 84.37,-469.82"/>
<polygon fill="grey" stroke="grey" stroke-width="2" points="84.87,-473.3 93.77,-467.56 83.23,-466.5 84.87,-473.3"/>
</g>
<!-- 11 -->
<g id="node12" class="node">
<title>11</title>
<path fill="none" stroke="#a7d856" stroke-width="2" d="M177.01,-540C177.01,-540 27.51,-540 27.51,-540 21.51,-540 15.51,-534 15.51,-528 15.51,-528 15.51,-516 15.51,-516 15.51,-510 21.51,-504 27.51,-504 27.51,-504 177.01,-504 177.01,-504 183.01,-504 189.01,-510 189.01,-516 189.01,-516 189.01,-528 189.01,-528 189.01,-534 183.01,-540 177.01,-540"/>
<text text-anchor="middle" x="102.26" y="-518.88" font-family="sans" font-size="10.00">gatk_learnreadorientationmodel</text>
</g>
<!-- 7&#45;&gt;11 -->
<g id="edge19" class="edge">
<title>7&#45;&gt;11</title>
<path fill="none" stroke="grey" stroke-width="2" d="M76.09,-575.34C79.59,-568.34 83.7,-560.12 87.62,-552.28"/>
<polygon fill="grey" stroke="grey" stroke-width="2" points="90.61,-554.12 91.95,-543.61 84.35,-550.99 90.61,-554.12"/>
</g>
<!-- 8 -->
<g id="node9" class="node">
<title>8</title>
<path fill="none" stroke="#d8a456" stroke-width="2" d="M321.76,-612C321.76,-612 182.76,-612 182.76,-612 176.76,-612 170.76,-606 170.76,-600 170.76,-600 170.76,-588 170.76,-588 170.76,-582 176.76,-576 182.76,-576 182.76,-576 321.76,-576 321.76,-576 327.76,-576 333.76,-582 333.76,-588 333.76,-588 333.76,-600 333.76,-600 333.76,-606 327.76,-612 321.76,-612"/>
<text text-anchor="middle" x="252.26" y="-590.88" font-family="sans" font-size="10.00">gatk_calculate_contamination</text>
</g>
<!-- 8&#45;&gt;6 -->
<g id="edge15" class="edge">
<title>8&#45;&gt;6</title>
<path fill="none" stroke="grey" stroke-width="2" d="M243.65,-575.02C232.25,-551.22 212.02,-508.97 198.38,-480.48"/>
<polygon fill="grey" stroke="grey" stroke-width="2" points="201.58,-479.08 194.11,-471.57 195.27,-482.1 201.58,-479.08"/>
</g>
<!-- 10 -->
<g id="node11" class="node">
<title>10</title>
<path fill="none" stroke="#59d856" stroke-width="2" d="M387.63,-540C387.63,-540 256.88,-540 256.88,-540 250.88,-540 244.88,-534 244.88,-528 244.88,-528 244.88,-516 244.88,-516 244.88,-510 250.88,-504 256.88,-504 256.88,-504 387.63,-504 387.63,-504 393.63,-504 399.63,-510 399.63,-516 399.63,-516 399.63,-528 399.63,-528 399.63,-534 393.63,-540 387.63,-540"/>
<text text-anchor="middle" x="322.26" y="-518.88" font-family="sans" font-size="10.00">cleanup_calc_contamination</text>
</g>
<!-- 8&#45;&gt;10 -->
<g id="edge18" class="edge">
<title>8&#45;&gt;10</title>
<path fill="none" stroke="grey" stroke-width="2" d="M269.92,-575.34C277.57,-567.69 286.7,-558.56 295.18,-550.08"/>
<polygon fill="grey" stroke="grey" stroke-width="2" points="297.62,-552.59 302.22,-543.04 292.67,-547.64 297.62,-552.59"/>
</g>
<!-- 9 -->
<g id="node10" class="node">
<title>9</title>
<path fill="none" stroke="#56d8c1" stroke-width="2" d="M317.26,-684C317.26,-684 187.26,-684 187.26,-684 181.26,-684 175.26,-678 175.26,-672 175.26,-672 175.26,-660 175.26,-660 175.26,-654 181.26,-648 187.26,-648 187.26,-648 317.26,-648 317.26,-648 323.26,-648 329.26,-654 329.26,-660 329.26,-660 329.26,-672 329.26,-672 329.26,-678 323.26,-684 317.26,-684"/>
<text text-anchor="middle" x="252.26" y="-662.88" font-family="sans" font-size="10.00">gatk_get_pileup_summaries</text>
</g>
<!-- 9&#45;&gt;8 -->
<g id="edge17" class="edge">
<title>9&#45;&gt;8</title>
<path fill="none" stroke="grey" stroke-width="2" d="M252.26,-647.34C252.26,-640.75 252.26,-633.08 252.26,-625.67"/>
<polygon fill="grey" stroke="grey" stroke-width="2" points="255.76,-625.93 252.26,-615.93 248.76,-625.93 255.76,-625.93"/>
</g>
<!-- 10&#45;&gt;6 -->
<g id="edge14" class="edge">
<title>10&#45;&gt;6</title>
<path fill="none" stroke="grey" stroke-width="2" d="M287.08,-503.15C269.97,-494.47 249.17,-483.92 230.76,-474.59"/>
<polygon fill="grey" stroke="grey" stroke-width="2" points="232.58,-471.58 222.07,-470.18 229.41,-477.83 232.58,-471.58"/>
</g>
<!-- 11&#45;&gt;6 -->
<g id="edge13" class="edge">
<title>11&#45;&gt;6</title>
<path fill="none" stroke="grey" stroke-width="2" d="M122.95,-503.34C132.2,-495.44 143.3,-485.96 153.49,-477.26"/>
<polygon fill="grey" stroke="grey" stroke-width="2" points="155.65,-480.02 160.99,-470.87 151.11,-474.7 155.65,-480.02"/>
</g>
<!-- 12 -->
<g id="node13" class="node">
<title>12</title>
<path fill="none" stroke="#d88d56" stroke-width="2" d="M486.63,-324C486.63,-324 421.88,-324 421.88,-324 415.88,-324 409.88,-318 409.88,-312 409.88,-312 409.88,-300 409.88,-300 409.88,-294 415.88,-288 421.88,-288 421.88,-288 486.63,-288 486.63,-288 492.63,-288 498.63,-294 498.63,-300 498.63,-300 498.63,-312 498.63,-312 498.63,-318 492.63,-324 486.63,-324"/>
<text text-anchor="middle" x="454.26" y="-302.88" font-family="sans" font-size="10.00">get_vep_cache</text>
</g>
<!-- 12&#45;&gt;3 -->
<g id="edge5" class="edge">
<title>12&#45;&gt;3</title>
<path fill="none" stroke="grey" stroke-width="2" d="M454.26,-287.34C454.26,-280.75 454.26,-273.08 454.26,-265.67"/>
<polygon fill="grey" stroke="grey" stroke-width="2" points="457.76,-265.93 454.26,-255.93 450.76,-265.93 457.76,-265.93"/>
</g>
<!-- 13 -->
<g id="node14" class="node">
<title>13</title>
<path fill="none" stroke="#56c1d8" stroke-width="2" d="M631.76,-324C631.76,-324 528.76,-324 528.76,-324 522.76,-324 516.76,-318 516.76,-312 516.76,-312 516.76,-300 516.76,-300 516.76,-294 522.76,-288 528.76,-288 528.76,-288 631.76,-288 631.76,-288 637.76,-288 643.76,-294 643.76,-300 643.76,-300 643.76,-312 643.76,-312 643.76,-318 637.76,-324 631.76,-324"/>
<text text-anchor="middle" x="580.26" y="-302.88" font-family="sans" font-size="10.00">download_vep_plugins</text>
</g>
<!-- 13&#45;&gt;3 -->
<g id="edge6" class="edge">
<title>13&#45;&gt;3</title>
<path fill="none" stroke="grey" stroke-width="2" d="M548.14,-287.15C532.73,-278.6 514.06,-268.22 497.44,-258.99"/>
<polygon fill="grey" stroke="grey" stroke-width="2" points="499.41,-256.08 488.97,-254.28 496.01,-262.2 499.41,-256.08"/>
</g>
<!-- 14 -->
<g id="node15" class="node">
<title>14</title>
<path fill="none" stroke="#56d88a" stroke-width="2" d="M331.26,-468C331.26,-468 301.26,-468 301.26,-468 295.26,-468 289.26,-462 289.26,-456 289.26,-456 289.26,-444 289.26,-444 289.26,-438 295.26,-432 301.26,-432 301.26,-432 331.26,-432 331.26,-432 337.26,-432 343.26,-438 343.26,-444 343.26,-444 343.26,-456 343.26,-456 343.26,-462 337.26,-468 331.26,-468"/>
<text text-anchor="middle" x="316.26" y="-446.88" font-family="sans" font-size="10.00">VarDict</text>
</g>
<!-- 14&#45;&gt;5 -->
<g id="edge11" class="edge">
<title>14&#45;&gt;5</title>
<path fill="none" stroke="grey" stroke-width="2" d="M325.34,-431.34C328.94,-424.34 333.17,-416.12 337.2,-408.28"/>
<polygon fill="grey" stroke="grey" stroke-width="2" points="340.21,-410.09 341.67,-399.59 333.98,-406.89 340.21,-410.09"/>
</g>
<!-- 15 -->
<g id="node16" class="node">
<title>15</title>
<path fill="none" stroke="#568ad8" stroke-width="2" d="M403.26,-468C403.26,-468 373.26,-468 373.26,-468 367.26,-468 361.26,-462 361.26,-456 361.26,-456 361.26,-444 361.26,-444 361.26,-438 367.26,-432 373.26,-432 373.26,-432 403.26,-432 403.26,-432 409.26,-432 415.26,-438 415.26,-444 415.26,-444 415.26,-456 415.26,-456 415.26,-462 409.26,-468 403.26,-468"/>
<text text-anchor="middle" x="388.26" y="-446.88" font-family="sans" font-size="10.00">lofreq</text>
</g>
<!-- 15&#45;&gt;5 -->
<g id="edge9" class="edge">
<title>15&#45;&gt;5</title>
<path fill="none" stroke="grey" stroke-width="2" d="M379.17,-431.34C375.58,-424.34 371.35,-416.12 367.32,-408.28"/>
<polygon fill="grey" stroke="grey" stroke-width="2" points="370.54,-406.89 362.85,-399.59 364.31,-410.09 370.54,-406.89"/>
</g>
<!-- 16 -->
<g id="node17" class="node">
<title>16</title>
<path fill="none" stroke="#70d856" stroke-width="2" d="M511.38,-468C511.38,-468 445.13,-468 445.13,-468 439.13,-468 433.13,-462 433.13,-456 433.13,-456 433.13,-444 433.13,-444 433.13,-438 439.13,-432 445.13,-432 445.13,-432 511.38,-432 511.38,-432 517.38,-432 523.38,-438 523.38,-444 523.38,-444 523.38,-456 523.38,-456 523.38,-462 517.38,-468 511.38,-468"/>
<text text-anchor="middle" x="478.26" y="-446.88" font-family="sans" font-size="10.00">Merge_Varscan</text>
</g>
<!-- 16&#45;&gt;5 -->
<g id="edge10" class="edge">
<title>16&#45;&gt;5</title>
<path fill="none" stroke="grey" stroke-width="2" d="M446.14,-431.15C430.73,-422.6 412.06,-412.22 395.44,-402.99"/>
<polygon fill="grey" stroke="grey" stroke-width="2" points="397.41,-400.08 386.97,-398.28 394.01,-406.2 397.41,-400.08"/>
</g>
<!-- 17 -->
<g id="node18" class="node">
<title>17</title>
<path fill="none" stroke="#56d8d8" stroke-width="2" d="M493.38,-540C493.38,-540 463.13,-540 463.13,-540 457.13,-540 451.13,-534 451.13,-528 451.13,-528 451.13,-516 451.13,-516 451.13,-510 457.13,-504 463.13,-504 463.13,-504 493.38,-504 493.38,-504 499.38,-504 505.38,-510 505.38,-516 505.38,-516 505.38,-528 505.38,-528 505.38,-534 499.38,-540 493.38,-540"/>
<text text-anchor="middle" x="478.26" y="-518.88" font-family="sans" font-size="10.00">Varscan</text>
</g>
<!-- 17&#45;&gt;16 -->
<g id="edge20" class="edge">
<title>17&#45;&gt;16</title>
<path fill="none" stroke="grey" stroke-width="2" d="M478.26,-503.34C478.26,-496.75 478.26,-489.08 478.26,-481.67"/>
<polygon fill="grey" stroke="grey" stroke-width="2" points="481.76,-481.93 478.26,-471.93 474.76,-481.93 481.76,-481.93"/>
</g>
<!-- 18 -->
<g id="node19" class="node">
<title>18</title>
<path fill="none" stroke="#56a2d8" stroke-width="2" d="M503.13,-612C503.13,-612 453.38,-612 453.38,-612 447.38,-612 441.38,-606 441.38,-600 441.38,-600 441.38,-588 441.38,-588 441.38,-582 447.38,-576 453.38,-576 453.38,-576 503.13,-576 503.13,-576 509.13,-576 515.13,-582 515.13,-588 515.13,-588 515.13,-600 515.13,-600 515.13,-606 509.13,-612 503.13,-612"/>
<text text-anchor="middle" x="478.26" y="-590.88" font-family="sans" font-size="10.00">UnzipPileup</text>
</g>
<!-- 18&#45;&gt;17 -->
<g id="edge21" class="edge">
<title>18&#45;&gt;17</title>
<path fill="none" stroke="grey" stroke-width="2" d="M478.26,-575.34C478.26,-568.75 478.26,-561.08 478.26,-553.67"/>
<polygon fill="grey" stroke="grey" stroke-width="2" points="481.76,-553.93 478.26,-543.93 474.76,-553.93 481.76,-553.93"/>
</g>
<!-- 19 -->
<g id="node20" class="node">
<title>19</title>
<path fill="none" stroke="#d86e56" stroke-width="2" d="M515.88,-684C515.88,-684 440.63,-684 440.63,-684 434.63,-684 428.63,-678 428.63,-672 428.63,-672 428.63,-660 428.63,-660 428.63,-654 434.63,-648 440.63,-648 440.63,-648 515.88,-648 515.88,-648 521.88,-648 527.88,-654 527.88,-660 527.88,-660 527.88,-672 527.88,-672 527.88,-678 521.88,-684 515.88,-684"/>
<text text-anchor="middle" x="478.26" y="-662.88" font-family="sans" font-size="10.00">PileupForVarscan</text>
</g>
<!-- 19&#45;&gt;18 -->
<g id="edge22" class="edge">
<title>19&#45;&gt;18</title>
<path fill="none" stroke="grey" stroke-width="2" d="M478.26,-647.34C478.26,-640.75 478.26,-633.08 478.26,-625.67"/>
<polygon fill="grey" stroke="grey" stroke-width="2" points="481.76,-625.93 478.26,-615.93 474.76,-625.93 481.76,-625.93"/>
</g>
</g>
</svg>
