<?xml version="1.0" encoding="UTF-8" standalone="no"?>
<!DOCTYPE svg PUBLIC "-//W3C//DTD SVG 1.1//EN"
 "http://www.w3.org/Graphics/SVG/1.1/DTD/svg11.dtd">
<!-- Generated by graphviz version 9.0.0 (20231125.0833)
 -->
<!-- Title: snakemake_dag Pages: 1 -->
<svg width="547pt" height="692pt"
 viewBox="0.00 0.00 547.38 692.00" xmlns="http://www.w3.org/2000/svg" xmlns:xlink="http://www.w3.org/1999/xlink">
<g id="graph0" class="graph" transform="scale(1 1) rotate(0) translate(4 688)">
<title>snakemake_dag</title>
<polygon fill="white" stroke="none" points="-4,4 -4,-688 543.38,-688 543.38,4 -4,4"/>
<!-- 0 -->
<g id="node1" class="node">
<title>0</title>
<path fill="none" stroke="#d88d56" stroke-width="2" d="M364.88,-36C364.88,-36 334.88,-36 334.88,-36 328.88,-36 322.88,-30 322.88,-24 322.88,-24 322.88,-12 322.88,-12 322.88,-6 328.88,0 334.88,0 334.88,0 364.88,0 364.88,0 370.88,0 376.88,-6 376.88,-12 376.88,-12 376.88,-24 376.88,-24 376.88,-30 370.88,-36 364.88,-36"/>
<text text-anchor="middle" x="349.88" y="-14.88" font-family="sans" font-size="10.00">all</text>
</g>
<!-- 1 -->
<g id="node2" class="node">
<title>1</title>
<path fill="none" stroke="#56d892" stroke-width="2" d="M365.75,-108C365.75,-108 334,-108 334,-108 328,-108 322,-102 322,-96 322,-96 322,-84 322,-84 322,-78 328,-72 334,-72 334,-72 365.75,-72 365.75,-72 371.75,-72 377.75,-78 377.75,-84 377.75,-84 377.75,-96 377.75,-96 377.75,-102 371.75,-108 365.75,-108"/>
<text text-anchor="middle" x="349.88" y="-86.88" font-family="sans" font-size="10.00">multiQC</text>
</g>
<!-- 1&#45;&gt;0 -->
<g id="edge1" class="edge">
<title>1&#45;&gt;0</title>
<path fill="none" stroke="grey" stroke-width="2" d="M349.88,-71.34C349.88,-64.75 349.88,-57.08 349.88,-49.67"/>
<polygon fill="grey" stroke="grey" stroke-width="2" points="353.38,-49.93 349.88,-39.93 346.38,-49.93 353.38,-49.93"/>
</g>
<!-- 2 -->
<g id="node3" class="node">
<title>2</title>
<path fill="none" stroke="#d8cb56" stroke-width="2" d="M397,-180C397,-180 360.75,-180 360.75,-180 354.75,-180 348.75,-174 348.75,-168 348.75,-168 348.75,-156 348.75,-156 348.75,-150 354.75,-144 360.75,-144 360.75,-144 397,-144 397,-144 403,-144 409,-150 409,-156 409,-156 409,-168 409,-168 409,-174 403,-180 397,-180"/>
<text text-anchor="middle" x="378.88" y="-158.88" font-family="sans" font-size="10.00">bcf_stats</text>
</g>
<!-- 2&#45;&gt;1 -->
<g id="edge3" class="edge">
<title>2&#45;&gt;1</title>
<path fill="none" stroke="grey" stroke-width="2" d="M371.56,-143.34C368.73,-136.51 365.41,-128.5 362.23,-120.83"/>
<polygon fill="grey" stroke="grey" stroke-width="2" points="365.51,-119.6 358.45,-111.7 359.04,-122.28 365.51,-119.6"/>
</g>
<!-- 3 -->
<g id="node4" class="node">
<title>3</title>
<path fill="none" stroke="#70d856" stroke-width="2" d="M410.75,-252C410.75,-252 289,-252 289,-252 283,-252 277,-246 277,-240 277,-240 277,-228 277,-228 277,-222 283,-216 289,-216 289,-216 410.75,-216 410.75,-216 416.75,-216 422.75,-222 422.75,-228 422.75,-228 422.75,-240 422.75,-240 422.75,-246 416.75,-252 410.75,-252"/>
<text text-anchor="middle" x="349.88" y="-230.88" font-family="sans" font-size="10.00">annotate_with_cosmic_vcf</text>
</g>
<!-- 3&#45;&gt;1 -->
<g id="edge2" class="edge">
<title>3&#45;&gt;1</title>
<path fill="none" stroke="grey" stroke-width="2" d="M345.71,-215.45C343.49,-205.18 340.99,-191.93 339.88,-180 338.39,-164.07 338.39,-159.93 339.88,-144 340.57,-136.54 341.81,-128.57 343.18,-121.13"/>
<polygon fill="grey" stroke="grey" stroke-width="2" points="346.58,-122.01 345.12,-111.52 339.71,-120.63 346.58,-122.01"/>
</g>
<!-- 3&#45;&gt;2 -->
<g id="edge4" class="edge">
<title>3&#45;&gt;2</title>
<path fill="none" stroke="grey" stroke-width="2" d="M357.19,-215.34C360.02,-208.51 363.34,-200.5 366.52,-192.83"/>
<polygon fill="grey" stroke="grey" stroke-width="2" points="369.71,-194.28 370.3,-183.7 363.24,-191.6 369.71,-194.28"/>
</g>
<!-- 4 -->
<g id="node5" class="node">
<title>4</title>
<path fill="none" stroke="#56a9d8" stroke-width="2" d="M401.75,-324C401.75,-324 298,-324 298,-324 292,-324 286,-318 286,-312 286,-312 286,-300 286,-300 286,-294 292,-288 298,-288 298,-288 401.75,-288 401.75,-288 407.75,-288 413.75,-294 413.75,-300 413.75,-300 413.75,-312 413.75,-312 413.75,-318 407.75,-324 401.75,-324"/>
<text text-anchor="middle" x="349.88" y="-302.88" font-family="sans" font-size="10.00">annotate_variants_vep</text>
</g>
<!-- 4&#45;&gt;3 -->
<g id="edge5" class="edge">
<title>4&#45;&gt;3</title>
<path fill="none" stroke="grey" stroke-width="2" d="M349.88,-287.34C349.88,-280.75 349.88,-273.08 349.88,-265.67"/>
<polygon fill="grey" stroke="grey" stroke-width="2" points="353.38,-265.93 349.88,-255.93 346.38,-265.93 353.38,-265.93"/>
</g>
<!-- 5 -->
<g id="node6" class="node">
<title>5</title>
<path fill="none" stroke="#56d873" stroke-width="2" d="M275.25,-396C275.25,-396 138.5,-396 138.5,-396 132.5,-396 126.5,-390 126.5,-384 126.5,-384 126.5,-372 126.5,-372 126.5,-366 132.5,-360 138.5,-360 138.5,-360 275.25,-360 275.25,-360 281.25,-360 287.25,-366 287.25,-372 287.25,-372 287.25,-384 287.25,-384 287.25,-390 281.25,-396 275.25,-396"/>
<text text-anchor="middle" x="206.88" y="-374.88" font-family="sans" font-size="10.00">gatk_leftalignandtrimvariants</text>
</g>
<!-- 5&#45;&gt;4 -->
<g id="edge8" class="edge">
<title>5&#45;&gt;4</title>
<path fill="none" stroke="grey" stroke-width="2" d="M243.33,-359.15C261.15,-350.43 282.82,-339.82 301.96,-330.46"/>
<polygon fill="grey" stroke="grey" stroke-width="2" points="303.32,-333.68 310.77,-326.14 300.25,-327.4 303.32,-333.68"/>
</g>
<!-- 6 -->
<g id="node7" class="node">
<title>6</title>
<path fill="none" stroke="#d8ac56" stroke-width="2" d="M79.75,-468C79.75,-468 12,-468 12,-468 6,-468 0,-462 0,-456 0,-456 0,-444 0,-444 0,-438 6,-432 12,-432 12,-432 79.75,-432 79.75,-432 85.75,-432 91.75,-438 91.75,-444 91.75,-444 91.75,-456 91.75,-456 91.75,-462 85.75,-468 79.75,-468"/>
<text text-anchor="middle" x="45.88" y="-446.88" font-family="sans" font-size="10.00">Merge_Strelka2</text>
</g>
<!-- 6&#45;&gt;5 -->
<g id="edge11" class="edge">
<title>6&#45;&gt;5</title>
<path fill="none" stroke="grey" stroke-width="2" d="M86.92,-431.15C107.28,-422.3 132.11,-411.51 153.89,-402.04"/>
<polygon fill="grey" stroke="grey" stroke-width="2" points="155.08,-405.34 162.85,-398.14 152.28,-398.92 155.08,-405.34"/>
</g>
<!-- 7 -->
<g id="node8" class="node">
<title>7</title>
<path fill="none" stroke="#c6d856" stroke-width="2" d="M51.75,-540C51.75,-540 20,-540 20,-540 14,-540 8,-534 8,-528 8,-528 8,-516 8,-516 8,-510 14,-504 20,-504 20,-504 51.75,-504 51.75,-504 57.75,-504 63.75,-510 63.75,-516 63.75,-516 63.75,-528 63.75,-528 63.75,-534 57.75,-540 51.75,-540"/>
<text text-anchor="middle" x="35.88" y="-518.88" font-family="sans" font-size="10.00">Strelka2</text>
</g>
<!-- 7&#45;&gt;6 -->
<g id="edge12" class="edge">
<title>7&#45;&gt;6</title>
<path fill="none" stroke="grey" stroke-width="2" d="M38.4,-503.34C39.34,-496.75 40.44,-489.08 41.49,-481.67"/>
<polygon fill="grey" stroke="grey" stroke-width="2" points="44.94,-482.29 42.89,-471.9 38.01,-481.3 44.94,-482.29"/>
</g>
<!-- 8 -->
<g id="node9" class="node">
<title>8</title>
<path fill="none" stroke="#8fd856" stroke-width="2" d="M50.88,-612C50.88,-612 20.88,-612 20.88,-612 14.88,-612 8.88,-606 8.88,-600 8.88,-600 8.88,-588 8.88,-588 8.88,-582 14.88,-576 20.88,-576 20.88,-576 50.88,-576 50.88,-576 56.88,-576 62.88,-582 62.88,-588 62.88,-588 62.88,-600 62.88,-600 62.88,-606 56.88,-612 50.88,-612"/>
<text text-anchor="middle" x="35.88" y="-590.88" font-family="sans" font-size="10.00">Manta</text>
</g>
<!-- 8&#45;&gt;7 -->
<g id="edge13" class="edge">
<title>8&#45;&gt;7</title>
<path fill="none" stroke="grey" stroke-width="2" d="M35.88,-575.34C35.88,-568.75 35.88,-561.08 35.88,-553.67"/>
<polygon fill="grey" stroke="grey" stroke-width="2" points="39.38,-553.93 35.88,-543.93 32.38,-553.93 39.38,-553.93"/>
</g>
<!-- 9 -->
<g id="node10" class="node">
<title>9</title>
<path fill="none" stroke="#56d8c9" stroke-width="2" d="M382.25,-396C382.25,-396 317.5,-396 317.5,-396 311.5,-396 305.5,-390 305.5,-384 305.5,-384 305.5,-372 305.5,-372 305.5,-366 311.5,-360 317.5,-360 317.5,-360 382.25,-360 382.25,-360 388.25,-360 394.25,-366 394.25,-372 394.25,-372 394.25,-384 394.25,-384 394.25,-390 388.25,-396 382.25,-396"/>
<text text-anchor="middle" x="349.88" y="-374.88" font-family="sans" font-size="10.00">get_vep_cache</text>
</g>
<!-- 9&#45;&gt;4 -->
<g id="edge6" class="edge">
<title>9&#45;&gt;4</title>
<path fill="none" stroke="grey" stroke-width="2" d="M349.88,-359.34C349.88,-352.75 349.88,-345.08 349.88,-337.67"/>
<polygon fill="grey" stroke="grey" stroke-width="2" points="353.38,-337.93 349.88,-327.93 346.38,-337.93 353.38,-337.93"/>
</g>
<!-- 10 -->
<g id="node11" class="node">
<title>10</title>
<path fill="none" stroke="#59d856" stroke-width="2" d="M527.38,-396C527.38,-396 424.38,-396 424.38,-396 418.38,-396 412.38,-390 412.38,-384 412.38,-384 412.38,-372 412.38,-372 412.38,-366 418.38,-360 424.38,-360 424.38,-360 527.38,-360 527.38,-360 533.38,-360 539.38,-366 539.38,-372 539.38,-372 539.38,-384 539.38,-384 539.38,-390 533.38,-396 527.38,-396"/>
<text text-anchor="middle" x="475.88" y="-374.88" font-family="sans" font-size="10.00">download_vep_plugins</text>
</g>
<!-- 10&#45;&gt;4 -->
<g id="edge7" class="edge">
<title>10&#45;&gt;4</title>
<path fill="none" stroke="grey" stroke-width="2" d="M443.75,-359.15C428.35,-350.6 409.68,-340.22 393.05,-330.99"/>
<polygon fill="grey" stroke="grey" stroke-width="2" points="395.02,-328.08 384.58,-326.28 391.63,-334.2 395.02,-328.08"/>
</g>
<!-- 11 -->
<g id="node12" class="node">
<title>11</title>
<path fill="none" stroke="#d85656" stroke-width="2" d="M281.62,-468C281.62,-468 132.12,-468 132.12,-468 126.12,-468 120.12,-462 120.12,-456 120.12,-456 120.12,-444 120.12,-444 120.12,-438 126.12,-432 132.12,-432 132.12,-432 281.62,-432 281.62,-432 287.62,-432 293.62,-438 293.62,-444 293.62,-444 293.62,-456 293.62,-456 293.62,-462 287.62,-468 281.62,-468"/>
<text text-anchor="middle" x="206.88" y="-446.88" font-family="sans" font-size="10.00">gatk_filtermutectcalls_complete</text>
</g>
<!-- 11&#45;&gt;5 -->
<g id="edge10" class="edge">
<title>11&#45;&gt;5</title>
<path fill="none" stroke="grey" stroke-width="2" d="M206.88,-431.34C206.88,-424.75 206.88,-417.08 206.88,-409.67"/>
<polygon fill="grey" stroke="grey" stroke-width="2" points="210.38,-409.93 206.88,-399.93 203.38,-409.93 210.38,-409.93"/>
</g>
<!-- 12 -->
<g id="node13" class="node">
<title>12</title>
<path fill="none" stroke="#5673d8" stroke-width="2" d="M208.62,-612C208.62,-612 149.12,-612 149.12,-612 143.12,-612 137.12,-606 137.12,-600 137.12,-600 137.12,-588 137.12,-588 137.12,-582 143.12,-576 149.12,-576 149.12,-576 208.62,-576 208.62,-576 214.62,-576 220.62,-582 220.62,-588 220.62,-588 220.62,-600 220.62,-600 220.62,-606 214.62,-612 208.62,-612"/>
<text text-anchor="middle" x="178.88" y="-590.88" font-family="sans" font-size="10.00">gatk_mutect2</text>
</g>
<!-- 12&#45;&gt;11 -->
<g id="edge15" class="edge">
<title>12&#45;&gt;11</title>
<path fill="none" stroke="grey" stroke-width="2" d="M144.44,-575.14C131.43,-566.44 118.04,-554.66 110.88,-540 103.85,-525.62 102.74,-517.78 110.88,-504 117.95,-492.01 128.82,-482.55 140.73,-475.15"/>
<polygon fill="grey" stroke="grey" stroke-width="2" points="142.22,-478.32 149.24,-470.39 138.8,-472.21 142.22,-478.32"/>
</g>
<!-- 16 -->
<g id="node17" class="node">
<title>16</title>
<path fill="none" stroke="#d87556" stroke-width="2" d="M281.62,-540C281.62,-540 132.12,-540 132.12,-540 126.12,-540 120.12,-534 120.12,-528 120.12,-528 120.12,-516 120.12,-516 120.12,-510 126.12,-504 132.12,-504 132.12,-504 281.62,-504 281.62,-504 287.62,-504 293.62,-510 293.62,-516 293.62,-516 293.62,-528 293.62,-528 293.62,-534 287.62,-540 281.62,-540"/>
<text text-anchor="middle" x="206.88" y="-518.88" font-family="sans" font-size="10.00">gatk_learnreadorientationmodel</text>
</g>
<!-- 12&#45;&gt;16 -->
<g id="edge20" class="edge">
<title>12&#45;&gt;16</title>
<path fill="none" stroke="grey" stroke-width="2" d="M185.94,-575.34C188.67,-568.51 191.87,-560.5 194.94,-552.83"/>
<polygon fill="grey" stroke="grey" stroke-width="2" points="198.13,-554.3 198.59,-543.71 191.63,-551.7 198.13,-554.3"/>
</g>
<!-- 13 -->
<g id="node14" class="node">
<title>13</title>
<path fill="none" stroke="#56c9d8" stroke-width="2" d="M418.38,-612C418.38,-612 279.38,-612 279.38,-612 273.38,-612 267.38,-606 267.38,-600 267.38,-600 267.38,-588 267.38,-588 267.38,-582 273.38,-576 279.38,-576 279.38,-576 418.38,-576 418.38,-576 424.38,-576 430.38,-582 430.38,-588 430.38,-588 430.38,-600 430.38,-600 430.38,-606 424.38,-612 418.38,-612"/>
<text text-anchor="middle" x="348.88" y="-590.88" font-family="sans" font-size="10.00">gatk_calculate_contamination</text>
</g>
<!-- 13&#45;&gt;11 -->
<g id="edge17" class="edge">
<title>13&#45;&gt;11</title>
<path fill="none" stroke="grey" stroke-width="2" d="M343.16,-575.05C336.21,-555.6 322.89,-524.57 302.88,-504 291.56,-492.37 277.14,-482.61 262.94,-474.77"/>
<polygon fill="grey" stroke="grey" stroke-width="2" points="264.83,-471.8 254.34,-470.28 261.59,-478.01 264.83,-471.8"/>
</g>
<!-- 15 -->
<g id="node16" class="node">
<title>15</title>
<path fill="none" stroke="#5692d8" stroke-width="2" d="M504.25,-540C504.25,-540 361.5,-540 361.5,-540 355.5,-540 349.5,-534 349.5,-528 349.5,-528 349.5,-516 349.5,-516 349.5,-510 355.5,-504 361.5,-504 361.5,-504 504.25,-504 504.25,-504 510.25,-504 516.25,-510 516.25,-516 516.25,-516 516.25,-528 516.25,-528 516.25,-534 510.25,-540 504.25,-540"/>
<text text-anchor="middle" x="432.88" y="-518.88" font-family="sans" font-size="10.00">calc_contam_is_written_poorly</text>
</g>
<!-- 13&#45;&gt;15 -->
<g id="edge19" class="edge">
<title>13&#45;&gt;15</title>
<path fill="none" stroke="grey" stroke-width="2" d="M370.07,-575.34C379.65,-567.36 391.15,-557.77 401.69,-548.99"/>
<polygon fill="grey" stroke="grey" stroke-width="2" points="403.63,-551.93 409.07,-542.84 399.14,-546.55 403.63,-551.93"/>
</g>
<!-- 14 -->
<g id="node15" class="node">
<title>14</title>
<path fill="none" stroke="#56d8a9" stroke-width="2" d="M413.88,-684C413.88,-684 283.88,-684 283.88,-684 277.88,-684 271.88,-678 271.88,-672 271.88,-672 271.88,-660 271.88,-660 271.88,-654 277.88,-648 283.88,-648 283.88,-648 413.88,-648 413.88,-648 419.88,-648 425.88,-654 425.88,-660 425.88,-660 425.88,-672 425.88,-672 425.88,-678 419.88,-684 413.88,-684"/>
<text text-anchor="middle" x="348.88" y="-662.88" font-family="sans" font-size="10.00">gatk_get_pileup_summaries</text>
</g>
<!-- 14&#45;&gt;13 -->
<g id="edge18" class="edge">
<title>14&#45;&gt;13</title>
<path fill="none" stroke="grey" stroke-width="2" d="M348.88,-647.34C348.88,-640.75 348.88,-633.08 348.88,-625.67"/>
<polygon fill="grey" stroke="grey" stroke-width="2" points="352.38,-625.93 348.88,-615.93 345.38,-625.93 352.38,-625.93"/>
</g>
<!-- 15&#45;&gt;11 -->
<g id="edge14" class="edge">
<title>15&#45;&gt;11</title>
<path fill="none" stroke="grey" stroke-width="2" d="M374.97,-503.06C345.06,-493.8 308.35,-482.43 276.86,-472.68"/>
<polygon fill="grey" stroke="grey" stroke-width="2" points="278.11,-469.4 267.52,-469.78 276.04,-476.09 278.11,-469.4"/>
</g>
<!-- 16&#45;&gt;11 -->
<g id="edge16" class="edge">
<title>16&#45;&gt;11</title>
<path fill="none" stroke="grey" stroke-width="2" d="M206.88,-503.34C206.88,-496.75 206.88,-489.08 206.88,-481.67"/>
<polygon fill="grey" stroke="grey" stroke-width="2" points="210.38,-481.93 206.88,-471.93 203.38,-481.93 210.38,-481.93"/>
</g>
<!-- 17 -->
<g id="node18" class="node">
<title>17</title>
<path fill="none" stroke="#afd856" stroke-width="2" d="M353.88,-468C353.88,-468 323.88,-468 323.88,-468 317.88,-468 311.88,-462 311.88,-456 311.88,-456 311.88,-444 311.88,-444 311.88,-438 317.88,-432 323.88,-432 323.88,-432 353.88,-432 353.88,-432 359.88,-432 365.88,-438 365.88,-444 365.88,-444 365.88,-456 365.88,-456 365.88,-462 359.88,-468 353.88,-468"/>
<text text-anchor="middle" x="338.88" y="-446.88" font-family="sans" font-size="10.00">VarDict</text>
</g>
<!-- 17&#45;&gt;5 -->
<g id="edge9" class="edge">
<title>17&#45;&gt;5</title>
<path fill="none" stroke="grey" stroke-width="2" d="M310.88,-434.15C293.75,-425.07 271.45,-413.24 251.89,-402.87"/>
<polygon fill="grey" stroke="grey" stroke-width="2" points="253.59,-399.81 243.11,-398.22 250.31,-406 253.59,-399.81"/>
</g>
</g>
</svg>
