<?xml version="1.0" encoding="UTF-8" standalone="no"?>
<!DOCTYPE svg PUBLIC "-//W3C//DTD SVG 1.1//EN"
 "http://www.w3.org/Graphics/SVG/1.1/DTD/svg11.dtd">
<!-- Generated by graphviz version 9.0.0 (20231125.0833)
 -->
<!-- Title: snakemake_dag Pages: 1 -->
<svg width="600pt" height="692pt"
 viewBox="0.00 0.00 599.50 692.00" xmlns="http://www.w3.org/2000/svg" xmlns:xlink="http://www.w3.org/1999/xlink">
<g id="graph0" class="graph" transform="scale(1 1) rotate(0) translate(4 688)">
<title>snakemake_dag</title>
<polygon fill="white" stroke="none" points="-4,4 -4,-688 595.5,-688 595.5,4 -4,4"/>
<!-- 0 -->
<g id="node1" class="node">
<title>0</title>
<path fill="none" stroke="#56d882" stroke-width="2" d="M343.75,-36C343.75,-36 312,-36 312,-36 306,-36 300,-30 300,-24 300,-24 300,-12 300,-12 300,-6 306,0 312,0 312,0 343.75,0 343.75,0 349.75,0 355.75,-6 355.75,-12 355.75,-12 355.75,-24 355.75,-24 355.75,-30 349.75,-36 343.75,-36"/>
<text text-anchor="middle" x="327.88" y="-14.88" font-family="sans" font-size="10.00">multiQC</text>
</g>
<!-- 1 -->
<g id="node2" class="node">
<title>1</title>
<path fill="none" stroke="#70d856" stroke-width="2" d="M396,-108C396,-108 359.75,-108 359.75,-108 353.75,-108 347.75,-102 347.75,-96 347.75,-96 347.75,-84 347.75,-84 347.75,-78 353.75,-72 359.75,-72 359.75,-72 396,-72 396,-72 402,-72 408,-78 408,-84 408,-84 408,-96 408,-96 408,-102 402,-108 396,-108"/>
<text text-anchor="middle" x="377.88" y="-86.88" font-family="sans" font-size="10.00">bcf_stats</text>
</g>
<!-- 1&#45;&gt;0 -->
<g id="edge2" class="edge">
<title>1&#45;&gt;0</title>
<path fill="none" stroke="grey" stroke-width="2" d="M365.26,-71.34C360.09,-64.1 353.97,-55.53 348.2,-47.45"/>
<polygon fill="grey" stroke="grey" stroke-width="2" points="351.08,-45.47 342.42,-39.37 345.39,-49.54 351.08,-45.47"/>
</g>
<!-- 2 -->
<g id="node3" class="node">
<title>2</title>
<path fill="none" stroke="#d89c56" stroke-width="2" d="M460.75,-180C460.75,-180 339,-180 339,-180 333,-180 327,-174 327,-168 327,-168 327,-156 327,-156 327,-150 333,-144 339,-144 339,-144 460.75,-144 460.75,-144 466.75,-144 472.75,-150 472.75,-156 472.75,-156 472.75,-168 472.75,-168 472.75,-174 466.75,-180 460.75,-180"/>
<text text-anchor="middle" x="399.88" y="-158.88" font-family="sans" font-size="10.00">annotate_with_cosmic_vcf</text>
</g>
<!-- 2&#45;&gt;1 -->
<g id="edge3" class="edge">
<title>2&#45;&gt;1</title>
<path fill="none" stroke="grey" stroke-width="2" d="M394.32,-143.34C392.2,-136.59 389.72,-128.69 387.34,-121.11"/>
<polygon fill="grey" stroke="grey" stroke-width="2" points="390.75,-120.28 384.41,-111.79 384.07,-122.38 390.75,-120.28"/>
</g>
<!-- 3 -->
<g id="node4" class="node">
<title>3</title>
<path fill="none" stroke="#d86e56" stroke-width="2" d="M400.75,-252C400.75,-252 297,-252 297,-252 291,-252 285,-246 285,-240 285,-240 285,-228 285,-228 285,-222 291,-216 297,-216 297,-216 400.75,-216 400.75,-216 406.75,-216 412.75,-222 412.75,-228 412.75,-228 412.75,-240 412.75,-240 412.75,-246 406.75,-252 400.75,-252"/>
<text text-anchor="middle" x="348.88" y="-230.88" font-family="sans" font-size="10.00">annotate_variants_vep</text>
</g>
<!-- 3&#45;&gt;0 -->
<g id="edge1" class="edge">
<title>3&#45;&gt;0</title>
<path fill="none" stroke="grey" stroke-width="2" d="M335.41,-215.43C328.71,-205.59 321.33,-192.76 317.88,-180 305.84,-135.57 313.38,-81.83 320.32,-49.05"/>
<polygon fill="grey" stroke="grey" stroke-width="2" points="323.64,-50.25 322.43,-39.72 316.81,-48.7 323.64,-50.25"/>
</g>
<!-- 3&#45;&gt;2 -->
<g id="edge4" class="edge">
<title>3&#45;&gt;2</title>
<path fill="none" stroke="grey" stroke-width="2" d="M361.74,-215.34C367.08,-208.01 373.4,-199.34 379.35,-191.18"/>
<polygon fill="grey" stroke="grey" stroke-width="2" points="381.99,-193.49 385.05,-183.35 376.33,-189.37 381.99,-193.49"/>
</g>
<!-- 4 -->
<g id="node5" class="node">
<title>4</title>
<path fill="none" stroke="#56b1d8" stroke-width="2" d="M274,-324C274,-324 219.75,-324 219.75,-324 213.75,-324 207.75,-318 207.75,-312 207.75,-312 207.75,-300 207.75,-300 207.75,-294 213.75,-288 219.75,-288 219.75,-288 274,-288 274,-288 280,-288 286,-294 286,-300 286,-300 286,-312 286,-312 286,-318 280,-324 274,-324"/>
<text text-anchor="middle" x="246.88" y="-302.88" font-family="sans" font-size="10.00">bcftools_sort</text>
</g>
<!-- 4&#45;&gt;3 -->
<g id="edge5" class="edge">
<title>4&#45;&gt;3</title>
<path fill="none" stroke="grey" stroke-width="2" d="M272.88,-287.15C284.87,-278.93 299.3,-269.02 312.36,-260.06"/>
<polygon fill="grey" stroke="grey" stroke-width="2" points="314.16,-263.07 320.42,-254.53 310.2,-257.3 314.16,-263.07"/>
</g>
<!-- 5 -->
<g id="node6" class="node">
<title>5</title>
<path fill="none" stroke="#56c9d8" stroke-width="2" d="M315.25,-396C315.25,-396 178.5,-396 178.5,-396 172.5,-396 166.5,-390 166.5,-384 166.5,-384 166.5,-372 166.5,-372 166.5,-366 172.5,-360 178.5,-360 178.5,-360 315.25,-360 315.25,-360 321.25,-360 327.25,-366 327.25,-372 327.25,-372 327.25,-384 327.25,-384 327.25,-390 321.25,-396 315.25,-396"/>
<text text-anchor="middle" x="246.88" y="-374.88" font-family="sans" font-size="10.00">gatk_leftalignandtrimvariants</text>
</g>
<!-- 5&#45;&gt;4 -->
<g id="edge8" class="edge">
<title>5&#45;&gt;4</title>
<path fill="none" stroke="grey" stroke-width="2" d="M246.88,-359.34C246.88,-352.75 246.88,-345.08 246.88,-337.67"/>
<polygon fill="grey" stroke="grey" stroke-width="2" points="250.38,-337.93 246.88,-327.93 243.38,-337.93 250.38,-337.93"/>
</g>
<!-- 6 -->
<g id="node7" class="node">
<title>6</title>
<path fill="none" stroke="#d8cb56" stroke-width="2" d="M119.75,-468C119.75,-468 52,-468 52,-468 46,-468 40,-462 40,-456 40,-456 40,-444 40,-444 40,-438 46,-432 52,-432 52,-432 119.75,-432 119.75,-432 125.75,-432 131.75,-438 131.75,-444 131.75,-444 131.75,-456 131.75,-456 131.75,-462 125.75,-468 119.75,-468"/>
<text text-anchor="middle" x="85.88" y="-446.88" font-family="sans" font-size="10.00">Merge_Strelka2</text>
</g>
<!-- 6&#45;&gt;5 -->
<g id="edge10" class="edge">
<title>6&#45;&gt;5</title>
<path fill="none" stroke="grey" stroke-width="2" d="M126.92,-431.15C147.28,-422.3 172.11,-411.51 193.89,-402.04"/>
<polygon fill="grey" stroke="grey" stroke-width="2" points="195.08,-405.34 202.85,-398.14 192.28,-398.92 195.08,-405.34"/>
</g>
<!-- 7 -->
<g id="node8" class="node">
<title>7</title>
<path fill="none" stroke="#5682d8" stroke-width="2" d="M43.75,-540C43.75,-540 12,-540 12,-540 6,-540 0,-534 0,-528 0,-528 0,-516 0,-516 0,-510 6,-504 12,-504 12,-504 43.75,-504 43.75,-504 49.75,-504 55.75,-510 55.75,-516 55.75,-516 55.75,-528 55.75,-528 55.75,-534 49.75,-540 43.75,-540"/>
<text text-anchor="middle" x="27.88" y="-518.88" font-family="sans" font-size="10.00">Strelka2</text>
</g>
<!-- 7&#45;&gt;6 -->
<g id="edge12" class="edge">
<title>7&#45;&gt;6</title>
<path fill="none" stroke="grey" stroke-width="2" d="M42.51,-503.34C48.65,-495.93 55.93,-487.14 62.76,-478.9"/>
<polygon fill="grey" stroke="grey" stroke-width="2" points="65.43,-481.17 69.11,-471.23 60.04,-476.7 65.43,-481.17"/>
</g>
<!-- 8 -->
<g id="node9" class="node">
<title>8</title>
<path fill="none" stroke="#566bd8" stroke-width="2" d="M42.88,-612C42.88,-612 12.88,-612 12.88,-612 6.88,-612 0.88,-606 0.88,-600 0.88,-600 0.88,-588 0.88,-588 0.88,-582 6.88,-576 12.88,-576 12.88,-576 42.88,-576 42.88,-576 48.88,-576 54.88,-582 54.88,-588 54.88,-588 54.88,-600 54.88,-600 54.88,-606 48.88,-612 42.88,-612"/>
<text text-anchor="middle" x="27.88" y="-590.88" font-family="sans" font-size="10.00">Manta</text>
</g>
<!-- 8&#45;&gt;7 -->
<g id="edge13" class="edge">
<title>8&#45;&gt;7</title>
<path fill="none" stroke="grey" stroke-width="2" d="M27.88,-575.34C27.88,-568.75 27.88,-561.08 27.88,-553.67"/>
<polygon fill="grey" stroke="grey" stroke-width="2" points="31.38,-553.93 27.88,-543.93 24.38,-553.93 31.38,-553.93"/>
</g>
<!-- 9 -->
<g id="node10" class="node">
<title>9</title>
<path fill="none" stroke="#56d8c9" stroke-width="2" d="M381.25,-324C381.25,-324 316.5,-324 316.5,-324 310.5,-324 304.5,-318 304.5,-312 304.5,-312 304.5,-300 304.5,-300 304.5,-294 310.5,-288 316.5,-288 316.5,-288 381.25,-288 381.25,-288 387.25,-288 393.25,-294 393.25,-300 393.25,-300 393.25,-312 393.25,-312 393.25,-318 387.25,-324 381.25,-324"/>
<text text-anchor="middle" x="348.88" y="-302.88" font-family="sans" font-size="10.00">get_vep_cache</text>
</g>
<!-- 9&#45;&gt;3 -->
<g id="edge6" class="edge">
<title>9&#45;&gt;3</title>
<path fill="none" stroke="grey" stroke-width="2" d="M348.88,-287.34C348.88,-280.75 348.88,-273.08 348.88,-265.67"/>
<polygon fill="grey" stroke="grey" stroke-width="2" points="352.38,-265.93 348.88,-255.93 345.38,-265.93 352.38,-265.93"/>
</g>
<!-- 10 -->
<g id="node11" class="node">
<title>10</title>
<path fill="none" stroke="#569ad8" stroke-width="2" d="M526.38,-324C526.38,-324 423.38,-324 423.38,-324 417.38,-324 411.38,-318 411.38,-312 411.38,-312 411.38,-300 411.38,-300 411.38,-294 417.38,-288 423.38,-288 423.38,-288 526.38,-288 526.38,-288 532.38,-288 538.38,-294 538.38,-300 538.38,-300 538.38,-312 538.38,-312 538.38,-318 532.38,-324 526.38,-324"/>
<text text-anchor="middle" x="474.88" y="-302.88" font-family="sans" font-size="10.00">download_vep_plugins</text>
</g>
<!-- 10&#45;&gt;3 -->
<g id="edge7" class="edge">
<title>10&#45;&gt;3</title>
<path fill="none" stroke="grey" stroke-width="2" d="M442.75,-287.15C427.35,-278.6 408.68,-268.22 392.05,-258.99"/>
<polygon fill="grey" stroke="grey" stroke-width="2" points="394.02,-256.08 383.58,-254.28 390.63,-262.2 394.02,-256.08"/>
</g>
<!-- 11 -->
<g id="node12" class="node">
<title>11</title>
<path fill="none" stroke="#ced856" stroke-width="2" d="M321.62,-468C321.62,-468 172.12,-468 172.12,-468 166.12,-468 160.12,-462 160.12,-456 160.12,-456 160.12,-444 160.12,-444 160.12,-438 166.12,-432 172.12,-432 172.12,-432 321.62,-432 321.62,-432 327.62,-432 333.62,-438 333.62,-444 333.62,-444 333.62,-456 333.62,-456 333.62,-462 327.62,-468 321.62,-468"/>
<text text-anchor="middle" x="246.88" y="-446.88" font-family="sans" font-size="10.00">gatk_filtermutectcalls_complete</text>
</g>
<!-- 11&#45;&gt;5 -->
<g id="edge11" class="edge">
<title>11&#45;&gt;5</title>
<path fill="none" stroke="grey" stroke-width="2" d="M246.88,-431.34C246.88,-424.75 246.88,-417.08 246.88,-409.67"/>
<polygon fill="grey" stroke="grey" stroke-width="2" points="250.38,-409.93 246.88,-399.93 243.38,-409.93 250.38,-409.93"/>
</g>
<!-- 12 -->
<g id="node13" class="node">
<title>12</title>
<path fill="none" stroke="#b6d856" stroke-width="2" d="M200.62,-612C200.62,-612 141.12,-612 141.12,-612 135.12,-612 129.12,-606 129.12,-600 129.12,-600 129.12,-588 129.12,-588 129.12,-582 135.12,-576 141.12,-576 141.12,-576 200.62,-576 200.62,-576 206.62,-576 212.62,-582 212.62,-588 212.62,-588 212.62,-600 212.62,-600 212.62,-606 206.62,-612 200.62,-612"/>
<text text-anchor="middle" x="170.88" y="-590.88" font-family="sans" font-size="10.00">gatk_mutect2</text>
</g>
<!-- 12&#45;&gt;11 -->
<g id="edge16" class="edge">
<title>12&#45;&gt;11</title>
<path fill="none" stroke="grey" stroke-width="2" d="M136.44,-575.14C123.43,-566.44 110.04,-554.66 102.88,-540 95.85,-525.62 93.72,-517.12 102.88,-504 113.76,-488.39 129.79,-477.37 147.23,-469.58"/>
<polygon fill="grey" stroke="grey" stroke-width="2" points="148.38,-472.9 156.36,-465.93 145.78,-466.4 148.38,-472.9"/>
</g>
<!-- 16 -->
<g id="node17" class="node">
<title>16</title>
<path fill="none" stroke="#d8b456" stroke-width="2" d="M273.62,-540C273.62,-540 124.12,-540 124.12,-540 118.12,-540 112.12,-534 112.12,-528 112.12,-528 112.12,-516 112.12,-516 112.12,-510 118.12,-504 124.12,-504 124.12,-504 273.62,-504 273.62,-504 279.62,-504 285.62,-510 285.62,-516 285.62,-516 285.62,-528 285.62,-528 285.62,-534 279.62,-540 273.62,-540"/>
<text text-anchor="middle" x="198.88" y="-518.88" font-family="sans" font-size="10.00">gatk_learnreadorientationmodel</text>
</g>
<!-- 12&#45;&gt;16 -->
<g id="edge20" class="edge">
<title>12&#45;&gt;16</title>
<path fill="none" stroke="grey" stroke-width="2" d="M177.94,-575.34C180.67,-568.51 183.87,-560.5 186.94,-552.83"/>
<polygon fill="grey" stroke="grey" stroke-width="2" points="190.13,-554.3 190.59,-543.71 183.63,-551.7 190.13,-554.3"/>
</g>
<!-- 13 -->
<g id="node14" class="node">
<title>13</title>
<path fill="none" stroke="#d85656" stroke-width="2" d="M410.38,-612C410.38,-612 271.38,-612 271.38,-612 265.38,-612 259.38,-606 259.38,-600 259.38,-600 259.38,-588 259.38,-588 259.38,-582 265.38,-576 271.38,-576 271.38,-576 410.38,-576 410.38,-576 416.38,-576 422.38,-582 422.38,-588 422.38,-588 422.38,-600 422.38,-600 422.38,-606 416.38,-612 410.38,-612"/>
<text text-anchor="middle" x="340.88" y="-590.88" font-family="sans" font-size="10.00">gatk_calculate_contamination</text>
</g>
<!-- 13&#45;&gt;11 -->
<g id="edge15" class="edge">
<title>13&#45;&gt;11</title>
<path fill="none" stroke="grey" stroke-width="2" d="M333.32,-575.18C325.09,-556.64 310.94,-527.15 294.88,-504 288.71,-495.11 281.17,-486.12 273.92,-478.14"/>
<polygon fill="grey" stroke="grey" stroke-width="2" points="276.47,-475.75 267.07,-470.86 271.37,-480.54 276.47,-475.75"/>
</g>
<!-- 15 -->
<g id="node16" class="node">
<title>15</title>
<path fill="none" stroke="#56d89a" stroke-width="2" d="M484.25,-540C484.25,-540 353.5,-540 353.5,-540 347.5,-540 341.5,-534 341.5,-528 341.5,-528 341.5,-516 341.5,-516 341.5,-510 347.5,-504 353.5,-504 353.5,-504 484.25,-504 484.25,-504 490.25,-504 496.25,-510 496.25,-516 496.25,-516 496.25,-528 496.25,-528 496.25,-534 490.25,-540 484.25,-540"/>
<text text-anchor="middle" x="418.88" y="-518.88" font-family="sans" font-size="10.00">cleanup_calc_contamination</text>
</g>
<!-- 13&#45;&gt;15 -->
<g id="edge19" class="edge">
<title>13&#45;&gt;15</title>
<path fill="none" stroke="grey" stroke-width="2" d="M360.56,-575.34C369.27,-567.52 379.69,-558.16 389.31,-549.53"/>
<polygon fill="grey" stroke="grey" stroke-width="2" points="391.57,-552.21 396.67,-542.92 386.89,-547 391.57,-552.21"/>
</g>
<!-- 14 -->
<g id="node15" class="node">
<title>14</title>
<path fill="none" stroke="#56d86b" stroke-width="2" d="M405.88,-684C405.88,-684 275.88,-684 275.88,-684 269.88,-684 263.88,-678 263.88,-672 263.88,-672 263.88,-660 263.88,-660 263.88,-654 269.88,-648 275.88,-648 275.88,-648 405.88,-648 405.88,-648 411.88,-648 417.88,-654 417.88,-660 417.88,-660 417.88,-672 417.88,-672 417.88,-678 411.88,-684 405.88,-684"/>
<text text-anchor="middle" x="340.88" y="-662.88" font-family="sans" font-size="10.00">gatk_get_pileup_summaries</text>
</g>
<!-- 14&#45;&gt;13 -->
<g id="edge18" class="edge">
<title>14&#45;&gt;13</title>
<path fill="none" stroke="grey" stroke-width="2" d="M340.88,-647.34C340.88,-640.75 340.88,-633.08 340.88,-625.67"/>
<polygon fill="grey" stroke="grey" stroke-width="2" points="344.38,-625.93 340.88,-615.93 337.38,-625.93 344.38,-625.93"/>
</g>
<!-- 15&#45;&gt;11 -->
<g id="edge14" class="edge">
<title>15&#45;&gt;11</title>
<path fill="none" stroke="grey" stroke-width="2" d="M375.03,-503.15C353.08,-494.22 326.26,-483.31 302.84,-473.77"/>
<polygon fill="grey" stroke="grey" stroke-width="2" points="304.33,-470.6 293.75,-470.08 301.69,-477.09 304.33,-470.6"/>
</g>
<!-- 16&#45;&gt;11 -->
<g id="edge17" class="edge">
<title>16&#45;&gt;11</title>
<path fill="none" stroke="grey" stroke-width="2" d="M210.99,-503.34C215.95,-496.1 221.82,-487.53 227.37,-479.45"/>
<polygon fill="grey" stroke="grey" stroke-width="2" points="230.12,-481.62 232.89,-471.4 224.35,-477.67 230.12,-481.62"/>
</g>
<!-- 17 -->
<g id="node18" class="node">
<title>17</title>
<path fill="none" stroke="#56d8b1" stroke-width="2" d="M526,-468C526,-468 459.75,-468 459.75,-468 453.75,-468 447.75,-462 447.75,-456 447.75,-456 447.75,-444 447.75,-444 447.75,-438 453.75,-432 459.75,-432 459.75,-432 526,-432 526,-432 532,-432 538,-438 538,-444 538,-444 538,-456 538,-456 538,-462 532,-468 526,-468"/>
<text text-anchor="middle" x="492.88" y="-446.88" font-family="sans" font-size="10.00">Merge_Varscan</text>
</g>
<!-- 17&#45;&gt;5 -->
<g id="edge9" class="edge">
<title>17&#45;&gt;5</title>
<path fill="none" stroke="grey" stroke-width="2" d="M446.89,-435.92C411.86,-425.95 362.87,-412.01 322.15,-400.42"/>
<polygon fill="grey" stroke="grey" stroke-width="2" points="323.29,-397.1 312.71,-397.73 321.37,-403.84 323.29,-397.1"/>
</g>
<!-- 18 -->
<g id="node19" class="node">
<title>18</title>
<path fill="none" stroke="#88d856" stroke-width="2" d="M557,-540C557,-540 526.75,-540 526.75,-540 520.75,-540 514.75,-534 514.75,-528 514.75,-528 514.75,-516 514.75,-516 514.75,-510 520.75,-504 526.75,-504 526.75,-504 557,-504 557,-504 563,-504 569,-510 569,-516 569,-516 569,-528 569,-528 569,-534 563,-540 557,-540"/>
<text text-anchor="middle" x="541.88" y="-518.88" font-family="sans" font-size="10.00">Varscan</text>
</g>
<!-- 18&#45;&gt;17 -->
<g id="edge21" class="edge">
<title>18&#45;&gt;17</title>
<path fill="none" stroke="grey" stroke-width="2" d="M529.51,-503.34C524.44,-496.1 518.45,-487.53 512.79,-479.45"/>
<polygon fill="grey" stroke="grey" stroke-width="2" points="515.74,-477.57 507.14,-471.38 510.01,-481.58 515.74,-477.57"/>
</g>
<!-- 19 -->
<g id="node20" class="node">
<title>19</title>
<path fill="none" stroke="#9fd856" stroke-width="2" d="M566.75,-612C566.75,-612 517,-612 517,-612 511,-612 505,-606 505,-600 505,-600 505,-588 505,-588 505,-582 511,-576 517,-576 517,-576 566.75,-576 566.75,-576 572.75,-576 578.75,-582 578.75,-588 578.75,-588 578.75,-600 578.75,-600 578.75,-606 572.75,-612 566.75,-612"/>
<text text-anchor="middle" x="541.88" y="-590.88" font-family="sans" font-size="10.00">UnzipPileup</text>
</g>
<!-- 19&#45;&gt;18 -->
<g id="edge22" class="edge">
<title>19&#45;&gt;18</title>
<path fill="none" stroke="grey" stroke-width="2" d="M541.88,-575.34C541.88,-568.75 541.88,-561.08 541.88,-553.67"/>
<polygon fill="grey" stroke="grey" stroke-width="2" points="545.38,-553.93 541.88,-543.93 538.38,-553.93 545.38,-553.93"/>
</g>
<!-- 20 -->
<g id="node21" class="node">
<title>20</title>
<path fill="none" stroke="#59d856" stroke-width="2" d="M579.5,-684C579.5,-684 504.25,-684 504.25,-684 498.25,-684 492.25,-678 492.25,-672 492.25,-672 492.25,-660 492.25,-660 492.25,-654 498.25,-648 504.25,-648 504.25,-648 579.5,-648 579.5,-648 585.5,-648 591.5,-654 591.5,-660 591.5,-660 591.5,-672 591.5,-672 591.5,-678 585.5,-684 579.5,-684"/>
<text text-anchor="middle" x="541.88" y="-662.88" font-family="sans" font-size="10.00">PileupForVarscan</text>
</g>
<!-- 20&#45;&gt;19 -->
<g id="edge23" class="edge">
<title>20&#45;&gt;19</title>
<path fill="none" stroke="grey" stroke-width="2" d="M541.88,-647.34C541.88,-640.75 541.88,-633.08 541.88,-625.67"/>
<polygon fill="grey" stroke="grey" stroke-width="2" points="545.38,-625.93 541.88,-615.93 538.38,-625.93 545.38,-625.93"/>
</g>
</g>
</svg>
