<?xml version="1.0" encoding="UTF-8" standalone="no"?>
<!DOCTYPE svg PUBLIC "-//W3C//DTD SVG 1.1//EN"
 "http://www.w3.org/Graphics/SVG/1.1/DTD/svg11.dtd">
<!-- Generated by graphviz version 9.0.0 (20231125.0833)
 -->
<!-- Title: snakemake_dag Pages: 1 -->
<svg width="630pt" height="692pt"
 viewBox="0.00 0.00 630.38 692.00" xmlns="http://www.w3.org/2000/svg" xmlns:xlink="http://www.w3.org/1999/xlink">
<g id="graph0" class="graph" transform="scale(1 1) rotate(0) translate(4 688)">
<title>snakemake_dag</title>
<polygon fill="white" stroke="none" points="-4,4 -4,-688 626.38,-688 626.38,4 -4,4"/>
<!-- 0 -->
<g id="node1" class="node">
<title>0</title>
<path fill="none" stroke="#d89c56" stroke-width="2" d="M427.75,-36C427.75,-36 396,-36 396,-36 390,-36 384,-30 384,-24 384,-24 384,-12 384,-12 384,-6 390,0 396,0 396,0 427.75,0 427.75,0 433.75,0 439.75,-6 439.75,-12 439.75,-12 439.75,-24 439.75,-24 439.75,-30 433.75,-36 427.75,-36"/>
<text text-anchor="middle" x="411.88" y="-14.88" font-family="sans" font-size="10.00">multiQC</text>
</g>
<!-- 1 -->
<g id="node2" class="node">
<title>1</title>
<path fill="none" stroke="#d88556" stroke-width="2" d="M480,-108C480,-108 443.75,-108 443.75,-108 437.75,-108 431.75,-102 431.75,-96 431.75,-96 431.75,-84 431.75,-84 431.75,-78 437.75,-72 443.75,-72 443.75,-72 480,-72 480,-72 486,-72 492,-78 492,-84 492,-84 492,-96 492,-96 492,-102 486,-108 480,-108"/>
<text text-anchor="middle" x="461.88" y="-86.88" font-family="sans" font-size="10.00">bcf_stats</text>
</g>
<!-- 1&#45;&gt;0 -->
<g id="edge1" class="edge">
<title>1&#45;&gt;0</title>
<path fill="none" stroke="grey" stroke-width="2" d="M449.26,-71.34C444.09,-64.1 437.97,-55.53 432.2,-47.45"/>
<polygon fill="grey" stroke="grey" stroke-width="2" points="435.08,-45.47 426.42,-39.37 429.39,-49.54 435.08,-45.47"/>
</g>
<!-- 2 -->
<g id="node3" class="node">
<title>2</title>
<path fill="none" stroke="#56d8c9" stroke-width="2" d="M544.75,-180C544.75,-180 423,-180 423,-180 417,-180 411,-174 411,-168 411,-168 411,-156 411,-156 411,-150 417,-144 423,-144 423,-144 544.75,-144 544.75,-144 550.75,-144 556.75,-150 556.75,-156 556.75,-156 556.75,-168 556.75,-168 556.75,-174 550.75,-180 544.75,-180"/>
<text text-anchor="middle" x="483.88" y="-158.88" font-family="sans" font-size="10.00">annotate_with_cosmic_vcf</text>
</g>
<!-- 2&#45;&gt;1 -->
<g id="edge3" class="edge">
<title>2&#45;&gt;1</title>
<path fill="none" stroke="grey" stroke-width="2" d="M478.32,-143.34C476.2,-136.59 473.72,-128.69 471.34,-121.11"/>
<polygon fill="grey" stroke="grey" stroke-width="2" points="474.75,-120.28 468.41,-111.79 468.07,-122.38 474.75,-120.28"/>
</g>
<!-- 3 -->
<g id="node4" class="node">
<title>3</title>
<path fill="none" stroke="#59d856" stroke-width="2" d="M484.75,-252C484.75,-252 381,-252 381,-252 375,-252 369,-246 369,-240 369,-240 369,-228 369,-228 369,-222 375,-216 381,-216 381,-216 484.75,-216 484.75,-216 490.75,-216 496.75,-222 496.75,-228 496.75,-228 496.75,-240 496.75,-240 496.75,-246 490.75,-252 484.75,-252"/>
<text text-anchor="middle" x="432.88" y="-230.88" font-family="sans" font-size="10.00">annotate_variants_vep</text>
</g>
<!-- 3&#45;&gt;0 -->
<g id="edge2" class="edge">
<title>3&#45;&gt;0</title>
<path fill="none" stroke="grey" stroke-width="2" d="M419.41,-215.43C412.71,-205.59 405.33,-192.76 401.88,-180 389.84,-135.57 397.38,-81.83 404.32,-49.05"/>
<polygon fill="grey" stroke="grey" stroke-width="2" points="407.64,-50.25 406.43,-39.72 400.81,-48.7 407.64,-50.25"/>
</g>
<!-- 3&#45;&gt;2 -->
<g id="edge4" class="edge">
<title>3&#45;&gt;2</title>
<path fill="none" stroke="grey" stroke-width="2" d="M445.74,-215.34C451.08,-208.01 457.4,-199.34 463.35,-191.18"/>
<polygon fill="grey" stroke="grey" stroke-width="2" points="465.99,-193.49 469.05,-183.35 460.33,-189.37 465.99,-193.49"/>
</g>
<!-- 4 -->
<g id="node5" class="node">
<title>4</title>
<path fill="none" stroke="#b6d856" stroke-width="2" d="M358,-324C358,-324 303.75,-324 303.75,-324 297.75,-324 291.75,-318 291.75,-312 291.75,-312 291.75,-300 291.75,-300 291.75,-294 297.75,-288 303.75,-288 303.75,-288 358,-288 358,-288 364,-288 370,-294 370,-300 370,-300 370,-312 370,-312 370,-318 364,-324 358,-324"/>
<text text-anchor="middle" x="330.88" y="-302.88" font-family="sans" font-size="10.00">bcftools_sort</text>
</g>
<!-- 4&#45;&gt;3 -->
<g id="edge6" class="edge">
<title>4&#45;&gt;3</title>
<path fill="none" stroke="grey" stroke-width="2" d="M356.88,-287.15C368.87,-278.93 383.3,-269.02 396.36,-260.06"/>
<polygon fill="grey" stroke="grey" stroke-width="2" points="398.16,-263.07 404.42,-254.53 394.2,-257.3 398.16,-263.07"/>
</g>
<!-- 5 -->
<g id="node6" class="node">
<title>5</title>
<path fill="none" stroke="#d8b456" stroke-width="2" d="M399.25,-396C399.25,-396 262.5,-396 262.5,-396 256.5,-396 250.5,-390 250.5,-384 250.5,-384 250.5,-372 250.5,-372 250.5,-366 256.5,-360 262.5,-360 262.5,-360 399.25,-360 399.25,-360 405.25,-360 411.25,-366 411.25,-372 411.25,-372 411.25,-384 411.25,-384 411.25,-390 405.25,-396 399.25,-396"/>
<text text-anchor="middle" x="330.88" y="-374.88" font-family="sans" font-size="10.00">gatk_leftalignandtrimvariants</text>
</g>
<!-- 5&#45;&gt;4 -->
<g id="edge8" class="edge">
<title>5&#45;&gt;4</title>
<path fill="none" stroke="grey" stroke-width="2" d="M330.88,-359.34C330.88,-352.75 330.88,-345.08 330.88,-337.67"/>
<polygon fill="grey" stroke="grey" stroke-width="2" points="334.38,-337.93 330.88,-327.93 327.38,-337.93 334.38,-337.93"/>
</g>
<!-- 6 -->
<g id="node7" class="node">
<title>6</title>
<path fill="none" stroke="#d85656" stroke-width="2" d="M128.75,-468C128.75,-468 61,-468 61,-468 55,-468 49,-462 49,-456 49,-456 49,-444 49,-444 49,-438 55,-432 61,-432 61,-432 128.75,-432 128.75,-432 134.75,-432 140.75,-438 140.75,-444 140.75,-444 140.75,-456 140.75,-456 140.75,-462 134.75,-468 128.75,-468"/>
<text text-anchor="middle" x="94.88" y="-446.88" font-family="sans" font-size="10.00">Merge_Strelka2</text>
</g>
<!-- 6&#45;&gt;5 -->
<g id="edge11" class="edge">
<title>6&#45;&gt;5</title>
<path fill="none" stroke="grey" stroke-width="2" d="M141.5,-435.17C174.83,-425.28 220.34,-411.79 258.39,-400.5"/>
<polygon fill="grey" stroke="grey" stroke-width="2" points="258.96,-403.98 267.55,-397.78 256.97,-397.27 258.96,-403.98"/>
</g>
<!-- 7 -->
<g id="node8" class="node">
<title>7</title>
<path fill="none" stroke="#56d8b1" stroke-width="2" d="M43.75,-540C43.75,-540 12,-540 12,-540 6,-540 0,-534 0,-528 0,-528 0,-516 0,-516 0,-510 6,-504 12,-504 12,-504 43.75,-504 43.75,-504 49.75,-504 55.75,-510 55.75,-516 55.75,-516 55.75,-528 55.75,-528 55.75,-534 49.75,-540 43.75,-540"/>
<text text-anchor="middle" x="27.88" y="-518.88" font-family="sans" font-size="10.00">Strelka2</text>
</g>
<!-- 7&#45;&gt;6 -->
<g id="edge13" class="edge">
<title>7&#45;&gt;6</title>
<path fill="none" stroke="grey" stroke-width="2" d="M44.78,-503.34C52.11,-495.69 60.84,-486.56 68.96,-478.08"/>
<polygon fill="grey" stroke="grey" stroke-width="2" points="71.26,-480.73 75.65,-471.09 66.2,-475.89 71.26,-480.73"/>
</g>
<!-- 8 -->
<g id="node9" class="node">
<title>8</title>
<path fill="none" stroke="#88d856" stroke-width="2" d="M42.88,-612C42.88,-612 12.88,-612 12.88,-612 6.88,-612 0.88,-606 0.88,-600 0.88,-600 0.88,-588 0.88,-588 0.88,-582 6.88,-576 12.88,-576 12.88,-576 42.88,-576 42.88,-576 48.88,-576 54.88,-582 54.88,-588 54.88,-588 54.88,-600 54.88,-600 54.88,-606 48.88,-612 42.88,-612"/>
<text text-anchor="middle" x="27.88" y="-590.88" font-family="sans" font-size="10.00">Manta</text>
</g>
<!-- 8&#45;&gt;7 -->
<g id="edge14" class="edge">
<title>8&#45;&gt;7</title>
<path fill="none" stroke="grey" stroke-width="2" d="M27.88,-575.34C27.88,-568.75 27.88,-561.08 27.88,-553.67"/>
<polygon fill="grey" stroke="grey" stroke-width="2" points="31.38,-553.93 27.88,-543.93 24.38,-553.93 31.38,-553.93"/>
</g>
<!-- 9 -->
<g id="node10" class="node">
<title>9</title>
<path fill="none" stroke="#9fd856" stroke-width="2" d="M465.25,-324C465.25,-324 400.5,-324 400.5,-324 394.5,-324 388.5,-318 388.5,-312 388.5,-312 388.5,-300 388.5,-300 388.5,-294 394.5,-288 400.5,-288 400.5,-288 465.25,-288 465.25,-288 471.25,-288 477.25,-294 477.25,-300 477.25,-300 477.25,-312 477.25,-312 477.25,-318 471.25,-324 465.25,-324"/>
<text text-anchor="middle" x="432.88" y="-302.88" font-family="sans" font-size="10.00">get_vep_cache</text>
</g>
<!-- 9&#45;&gt;3 -->
<g id="edge7" class="edge">
<title>9&#45;&gt;3</title>
<path fill="none" stroke="grey" stroke-width="2" d="M432.88,-287.34C432.88,-280.75 432.88,-273.08 432.88,-265.67"/>
<polygon fill="grey" stroke="grey" stroke-width="2" points="436.38,-265.93 432.88,-255.93 429.38,-265.93 436.38,-265.93"/>
</g>
<!-- 10 -->
<g id="node11" class="node">
<title>10</title>
<path fill="none" stroke="#566bd8" stroke-width="2" d="M610.38,-324C610.38,-324 507.38,-324 507.38,-324 501.38,-324 495.38,-318 495.38,-312 495.38,-312 495.38,-300 495.38,-300 495.38,-294 501.38,-288 507.38,-288 507.38,-288 610.38,-288 610.38,-288 616.38,-288 622.38,-294 622.38,-300 622.38,-300 622.38,-312 622.38,-312 622.38,-318 616.38,-324 610.38,-324"/>
<text text-anchor="middle" x="558.88" y="-302.88" font-family="sans" font-size="10.00">download_vep_plugins</text>
</g>
<!-- 10&#45;&gt;3 -->
<g id="edge5" class="edge">
<title>10&#45;&gt;3</title>
<path fill="none" stroke="grey" stroke-width="2" d="M526.75,-287.15C511.35,-278.6 492.68,-268.22 476.05,-258.99"/>
<polygon fill="grey" stroke="grey" stroke-width="2" points="478.02,-256.08 467.58,-254.28 474.63,-262.2 478.02,-256.08"/>
</g>
<!-- 11 -->
<g id="node12" class="node">
<title>11</title>
<path fill="none" stroke="#ced856" stroke-width="2" d="M330.62,-468C330.62,-468 181.12,-468 181.12,-468 175.12,-468 169.12,-462 169.12,-456 169.12,-456 169.12,-444 169.12,-444 169.12,-438 175.12,-432 181.12,-432 181.12,-432 330.62,-432 330.62,-432 336.62,-432 342.62,-438 342.62,-444 342.62,-444 342.62,-456 342.62,-456 342.62,-462 336.62,-468 330.62,-468"/>
<text text-anchor="middle" x="255.88" y="-446.88" font-family="sans" font-size="10.00">gatk_filtermutectcalls_complete</text>
</g>
<!-- 11&#45;&gt;5 -->
<g id="edge10" class="edge">
<title>11&#45;&gt;5</title>
<path fill="none" stroke="grey" stroke-width="2" d="M274.8,-431.34C283.17,-423.52 293.2,-414.16 302.45,-405.53"/>
<polygon fill="grey" stroke="grey" stroke-width="2" points="304.56,-408.35 309.48,-398.97 299.78,-403.23 304.56,-408.35"/>
</g>
<!-- 12 -->
<g id="node13" class="node">
<title>12</title>
<path fill="none" stroke="#56d89a" stroke-width="2" d="M200.62,-612C200.62,-612 141.12,-612 141.12,-612 135.12,-612 129.12,-606 129.12,-600 129.12,-600 129.12,-588 129.12,-588 129.12,-582 135.12,-576 141.12,-576 141.12,-576 200.62,-576 200.62,-576 206.62,-576 212.62,-582 212.62,-588 212.62,-588 212.62,-600 212.62,-600 212.62,-606 206.62,-612 200.62,-612"/>
<text text-anchor="middle" x="170.88" y="-590.88" font-family="sans" font-size="10.00">gatk_mutect2</text>
</g>
<!-- 12&#45;&gt;11 -->
<g id="edge17" class="edge">
<title>12&#45;&gt;11</title>
<path fill="none" stroke="grey" stroke-width="2" d="M136.44,-575.14C123.43,-566.44 110.04,-554.66 102.88,-540 95.85,-525.62 93.6,-517.03 102.88,-504 115.81,-485.82 135.44,-473.82 156.35,-465.92"/>
<polygon fill="grey" stroke="grey" stroke-width="2" points="157.21,-469.32 165.56,-462.8 154.96,-462.69 157.21,-469.32"/>
</g>
<!-- 16 -->
<g id="node17" class="node">
<title>16</title>
<path fill="none" stroke="#56d882" stroke-width="2" d="M273.62,-540C273.62,-540 124.12,-540 124.12,-540 118.12,-540 112.12,-534 112.12,-528 112.12,-528 112.12,-516 112.12,-516 112.12,-510 118.12,-504 124.12,-504 124.12,-504 273.62,-504 273.62,-504 279.62,-504 285.62,-510 285.62,-516 285.62,-516 285.62,-528 285.62,-528 285.62,-534 279.62,-540 273.62,-540"/>
<text text-anchor="middle" x="198.88" y="-518.88" font-family="sans" font-size="10.00">gatk_learnreadorientationmodel</text>
</g>
<!-- 12&#45;&gt;16 -->
<g id="edge21" class="edge">
<title>12&#45;&gt;16</title>
<path fill="none" stroke="grey" stroke-width="2" d="M177.94,-575.34C180.67,-568.51 183.87,-560.5 186.94,-552.83"/>
<polygon fill="grey" stroke="grey" stroke-width="2" points="190.13,-554.3 190.59,-543.71 183.63,-551.7 190.13,-554.3"/>
</g>
<!-- 13 -->
<g id="node14" class="node">
<title>13</title>
<path fill="none" stroke="#56d86b" stroke-width="2" d="M410.38,-612C410.38,-612 271.38,-612 271.38,-612 265.38,-612 259.38,-606 259.38,-600 259.38,-600 259.38,-588 259.38,-588 259.38,-582 265.38,-576 271.38,-576 271.38,-576 410.38,-576 410.38,-576 416.38,-576 422.38,-582 422.38,-588 422.38,-588 422.38,-600 422.38,-600 422.38,-606 416.38,-612 410.38,-612"/>
<text text-anchor="middle" x="340.88" y="-590.88" font-family="sans" font-size="10.00">gatk_calculate_contamination</text>
</g>
<!-- 13&#45;&gt;11 -->
<g id="edge16" class="edge">
<title>13&#45;&gt;11</title>
<path fill="none" stroke="grey" stroke-width="2" d="M332.68,-575.16C324.03,-556.86 309.65,-527.79 294.88,-504 289.65,-495.59 283.5,-486.81 277.64,-478.86"/>
<polygon fill="grey" stroke="grey" stroke-width="2" points="280.59,-476.96 271.78,-471.08 275,-481.17 280.59,-476.96"/>
</g>
<!-- 15 -->
<g id="node16" class="node">
<title>15</title>
<path fill="none" stroke="#d86e56" stroke-width="2" d="M484.25,-540C484.25,-540 353.5,-540 353.5,-540 347.5,-540 341.5,-534 341.5,-528 341.5,-528 341.5,-516 341.5,-516 341.5,-510 347.5,-504 353.5,-504 353.5,-504 484.25,-504 484.25,-504 490.25,-504 496.25,-510 496.25,-516 496.25,-516 496.25,-528 496.25,-528 496.25,-534 490.25,-540 484.25,-540"/>
<text text-anchor="middle" x="418.88" y="-518.88" font-family="sans" font-size="10.00">cleanup_calc_contamination</text>
</g>
<!-- 13&#45;&gt;15 -->
<g id="edge20" class="edge">
<title>13&#45;&gt;15</title>
<path fill="none" stroke="grey" stroke-width="2" d="M360.56,-575.34C369.27,-567.52 379.69,-558.16 389.31,-549.53"/>
<polygon fill="grey" stroke="grey" stroke-width="2" points="391.57,-552.21 396.67,-542.92 386.89,-547 391.57,-552.21"/>
</g>
<!-- 14 -->
<g id="node15" class="node">
<title>14</title>
<path fill="none" stroke="#56c9d8" stroke-width="2" d="M405.88,-684C405.88,-684 275.88,-684 275.88,-684 269.88,-684 263.88,-678 263.88,-672 263.88,-672 263.88,-660 263.88,-660 263.88,-654 269.88,-648 275.88,-648 275.88,-648 405.88,-648 405.88,-648 411.88,-648 417.88,-654 417.88,-660 417.88,-660 417.88,-672 417.88,-672 417.88,-678 411.88,-684 405.88,-684"/>
<text text-anchor="middle" x="340.88" y="-662.88" font-family="sans" font-size="10.00">gatk_get_pileup_summaries</text>
</g>
<!-- 14&#45;&gt;13 -->
<g id="edge19" class="edge">
<title>14&#45;&gt;13</title>
<path fill="none" stroke="grey" stroke-width="2" d="M340.88,-647.34C340.88,-640.75 340.88,-633.08 340.88,-625.67"/>
<polygon fill="grey" stroke="grey" stroke-width="2" points="344.38,-625.93 340.88,-615.93 337.38,-625.93 344.38,-625.93"/>
</g>
<!-- 15&#45;&gt;11 -->
<g id="edge18" class="edge">
<title>15&#45;&gt;11</title>
<path fill="none" stroke="grey" stroke-width="2" d="M377.32,-503.15C356.71,-494.3 331.57,-483.51 309.52,-474.04"/>
<polygon fill="grey" stroke="grey" stroke-width="2" points="310.99,-470.86 300.42,-470.13 308.22,-477.29 310.99,-470.86"/>
</g>
<!-- 16&#45;&gt;11 -->
<g id="edge15" class="edge">
<title>16&#45;&gt;11</title>
<path fill="none" stroke="grey" stroke-width="2" d="M213.26,-503.34C219.29,-495.93 226.44,-487.14 233.15,-478.9"/>
<polygon fill="grey" stroke="grey" stroke-width="2" points="235.79,-481.21 239.39,-471.25 230.36,-476.79 235.79,-481.21"/>
</g>
<!-- 17 -->
<g id="node18" class="node">
<title>17</title>
<path fill="none" stroke="#5682d8" stroke-width="2" d="M439,-468C439,-468 372.75,-468 372.75,-468 366.75,-468 360.75,-462 360.75,-456 360.75,-456 360.75,-444 360.75,-444 360.75,-438 366.75,-432 372.75,-432 372.75,-432 439,-432 439,-432 445,-432 451,-438 451,-444 451,-444 451,-456 451,-456 451,-462 445,-468 439,-468"/>
<text text-anchor="middle" x="405.88" y="-446.88" font-family="sans" font-size="10.00">Merge_Varscan</text>
</g>
<!-- 17&#45;&gt;5 -->
<g id="edge9" class="edge">
<title>17&#45;&gt;5</title>
<path fill="none" stroke="grey" stroke-width="2" d="M386.95,-431.34C378.58,-423.52 368.55,-414.16 359.3,-405.53"/>
<polygon fill="grey" stroke="grey" stroke-width="2" points="361.97,-403.23 352.27,-398.97 357.19,-408.35 361.97,-403.23"/>
</g>
<!-- 18 -->
<g id="node19" class="node">
<title>18</title>
<path fill="none" stroke="#569ad8" stroke-width="2" d="M557,-540C557,-540 526.75,-540 526.75,-540 520.75,-540 514.75,-534 514.75,-528 514.75,-528 514.75,-516 514.75,-516 514.75,-510 520.75,-504 526.75,-504 526.75,-504 557,-504 557,-504 563,-504 569,-510 569,-516 569,-516 569,-528 569,-528 569,-534 563,-540 557,-540"/>
<text text-anchor="middle" x="541.88" y="-518.88" font-family="sans" font-size="10.00">Varscan</text>
</g>
<!-- 18&#45;&gt;17 -->
<g id="edge22" class="edge">
<title>18&#45;&gt;17</title>
<path fill="none" stroke="grey" stroke-width="2" d="M514.03,-506.67C496.14,-497.46 472.49,-485.29 451.86,-474.67"/>
<polygon fill="grey" stroke="grey" stroke-width="2" points="453.64,-471.65 443.14,-470.18 450.43,-477.87 453.64,-471.65"/>
</g>
<!-- 19 -->
<g id="node20" class="node">
<title>19</title>
<path fill="none" stroke="#56b1d8" stroke-width="2" d="M566.75,-612C566.75,-612 517,-612 517,-612 511,-612 505,-606 505,-600 505,-600 505,-588 505,-588 505,-582 511,-576 517,-576 517,-576 566.75,-576 566.75,-576 572.75,-576 578.75,-582 578.75,-588 578.75,-588 578.75,-600 578.75,-600 578.75,-606 572.75,-612 566.75,-612"/>
<text text-anchor="middle" x="541.88" y="-590.88" font-family="sans" font-size="10.00">UnzipPileup</text>
</g>
<!-- 19&#45;&gt;18 -->
<g id="edge23" class="edge">
<title>19&#45;&gt;18</title>
<path fill="none" stroke="grey" stroke-width="2" d="M541.88,-575.34C541.88,-568.75 541.88,-561.08 541.88,-553.67"/>
<polygon fill="grey" stroke="grey" stroke-width="2" points="545.38,-553.93 541.88,-543.93 538.38,-553.93 545.38,-553.93"/>
</g>
<!-- 20 -->
<g id="node21" class="node">
<title>20</title>
<path fill="none" stroke="#70d856" stroke-width="2" d="M579.5,-684C579.5,-684 504.25,-684 504.25,-684 498.25,-684 492.25,-678 492.25,-672 492.25,-672 492.25,-660 492.25,-660 492.25,-654 498.25,-648 504.25,-648 504.25,-648 579.5,-648 579.5,-648 585.5,-648 591.5,-654 591.5,-660 591.5,-660 591.5,-672 591.5,-672 591.5,-678 585.5,-684 579.5,-684"/>
<text text-anchor="middle" x="541.88" y="-662.88" font-family="sans" font-size="10.00">PileupForVarscan</text>
</g>
<!-- 20&#45;&gt;19 -->
<g id="edge24" class="edge">
<title>20&#45;&gt;19</title>
<path fill="none" stroke="grey" stroke-width="2" d="M541.88,-647.34C541.88,-640.75 541.88,-633.08 541.88,-625.67"/>
<polygon fill="grey" stroke="grey" stroke-width="2" points="545.38,-625.93 541.88,-615.93 538.38,-625.93 545.38,-625.93"/>
</g>
<!-- 21 -->
<g id="node22" class="node">
<title>21</title>
<path fill="none" stroke="#d8cb56" stroke-width="2" d="M510.88,-468C510.88,-468 480.88,-468 480.88,-468 474.88,-468 468.88,-462 468.88,-456 468.88,-456 468.88,-444 468.88,-444 468.88,-438 474.88,-432 480.88,-432 480.88,-432 510.88,-432 510.88,-432 516.88,-432 522.88,-438 522.88,-444 522.88,-444 522.88,-456 522.88,-456 522.88,-462 516.88,-468 510.88,-468"/>
<text text-anchor="middle" x="495.88" y="-446.88" font-family="sans" font-size="10.00">VarDict</text>
</g>
<!-- 21&#45;&gt;5 -->
<g id="edge12" class="edge">
<title>21&#45;&gt;5</title>
<path fill="none" stroke="grey" stroke-width="2" d="M468.03,-435.68C465.28,-434.42 462.53,-433.17 459.88,-432 436.5,-421.69 410.47,-410.87 387.95,-401.72"/>
<polygon fill="grey" stroke="grey" stroke-width="2" points="389.58,-398.6 378.99,-398.09 386.95,-405.09 389.58,-398.6"/>
</g>
</g>
</svg>
