<?xml version="1.0" encoding="UTF-8" standalone="no"?>
<!DOCTYPE svg PUBLIC "-//W3C//DTD SVG 1.1//EN"
 "http://www.w3.org/Graphics/SVG/1.1/DTD/svg11.dtd">
<!-- Generated by graphviz version 9.0.0 (20231125.0833)
 -->
<!-- Title: snakemake_dag Pages: 1 -->
<svg width="630pt" height="548pt"
 viewBox="0.00 0.00 630.38 548.00" xmlns="http://www.w3.org/2000/svg" xmlns:xlink="http://www.w3.org/1999/xlink">
<g id="graph0" class="graph" transform="scale(1 1) rotate(0) translate(4 544)">
<title>snakemake_dag</title>
<polygon fill="white" stroke="none" points="-4,4 -4,-544 626.38,-544 626.38,4 -4,4"/>
<!-- 0 -->
<g id="node1" class="node">
<title>0</title>
<path fill="none" stroke="#9fd856" stroke-width="2" d="M246.75,-36C246.75,-36 215,-36 215,-36 209,-36 203,-30 203,-24 203,-24 203,-12 203,-12 203,-6 209,0 215,0 215,0 246.75,0 246.75,0 252.75,0 258.75,-6 258.75,-12 258.75,-12 258.75,-24 258.75,-24 258.75,-30 252.75,-36 246.75,-36"/>
<text text-anchor="middle" x="230.88" y="-14.88" font-family="sans" font-size="10.00">multiQC</text>
</g>
<!-- 1 -->
<g id="node2" class="node">
<title>1</title>
<path fill="none" stroke="#80d856" stroke-width="2" d="M151,-180C151,-180 96.75,-180 96.75,-180 90.75,-180 84.75,-174 84.75,-168 84.75,-168 84.75,-156 84.75,-156 84.75,-150 90.75,-144 96.75,-144 96.75,-144 151,-144 151,-144 157,-144 163,-150 163,-156 163,-156 163,-168 163,-168 163,-174 157,-180 151,-180"/>
<text text-anchor="middle" x="123.88" y="-158.88" font-family="sans" font-size="10.00">cnvkit_batch</text>
</g>
<!-- 1&#45;&gt;0 -->
<g id="edge3" class="edge">
<title>1&#45;&gt;0</title>
<path fill="none" stroke="grey" stroke-width="2" d="M96.87,-143.11C85.67,-134.06 73.91,-122.02 67.88,-108 61.55,-93.3 58.47,-84.95 67.88,-72 95.41,-34.1 150.72,-22.77 189.24,-19.66"/>
<polygon fill="grey" stroke="grey" stroke-width="2" points="189.3,-23.17 199.07,-19.06 188.87,-16.18 189.3,-23.17"/>
</g>
<!-- 2 -->
<g id="node3" class="node">
<title>2</title>
<path fill="none" stroke="#56b9d8" stroke-width="2" d="M159.25,-108C159.25,-108 88.5,-108 88.5,-108 82.5,-108 76.5,-102 76.5,-96 76.5,-96 76.5,-84 76.5,-84 76.5,-78 82.5,-72 88.5,-72 88.5,-72 159.25,-72 159.25,-72 165.25,-72 171.25,-78 171.25,-84 171.25,-84 171.25,-96 171.25,-96 171.25,-102 165.25,-108 159.25,-108"/>
<text text-anchor="middle" x="123.88" y="-86.88" font-family="sans" font-size="10.00">cnvkit_heatmap</text>
</g>
<!-- 1&#45;&gt;2 -->
<g id="edge6" class="edge">
<title>1&#45;&gt;2</title>
<path fill="none" stroke="grey" stroke-width="2" d="M123.88,-143.34C123.88,-136.75 123.88,-129.08 123.88,-121.67"/>
<polygon fill="grey" stroke="grey" stroke-width="2" points="127.38,-121.93 123.88,-111.93 120.38,-121.93 127.38,-121.93"/>
</g>
<!-- 3 -->
<g id="node4" class="node">
<title>3</title>
<path fill="none" stroke="#c6d856" stroke-width="2" d="M260.62,-108C260.62,-108 201.12,-108 201.12,-108 195.12,-108 189.12,-102 189.12,-96 189.12,-96 189.12,-84 189.12,-84 189.12,-78 195.12,-72 201.12,-72 201.12,-72 260.62,-72 260.62,-72 266.62,-72 272.62,-78 272.62,-84 272.62,-84 272.62,-96 272.62,-96 272.62,-102 266.62,-108 260.62,-108"/>
<text text-anchor="middle" x="230.88" y="-86.88" font-family="sans" font-size="10.00">cnvkit_to_seg</text>
</g>
<!-- 1&#45;&gt;3 -->
<g id="edge7" class="edge">
<title>1&#45;&gt;3</title>
<path fill="none" stroke="grey" stroke-width="2" d="M151.15,-143.15C163.86,-134.84 179.18,-124.82 192.98,-115.79"/>
<polygon fill="grey" stroke="grey" stroke-width="2" points="194.66,-118.87 201.11,-110.47 190.83,-113.02 194.66,-118.87"/>
</g>
<!-- 2&#45;&gt;0 -->
<g id="edge2" class="edge">
<title>2&#45;&gt;0</title>
<path fill="none" stroke="grey" stroke-width="2" d="M151.15,-71.15C163.86,-62.84 179.18,-52.82 192.98,-43.79"/>
<polygon fill="grey" stroke="grey" stroke-width="2" points="194.66,-46.87 201.11,-38.47 190.83,-41.02 194.66,-46.87"/>
</g>
<!-- 3&#45;&gt;0 -->
<g id="edge1" class="edge">
<title>3&#45;&gt;0</title>
<path fill="none" stroke="grey" stroke-width="2" d="M230.88,-71.34C230.88,-64.75 230.88,-57.08 230.88,-49.67"/>
<polygon fill="grey" stroke="grey" stroke-width="2" points="234.38,-49.93 230.88,-39.93 227.38,-49.93 234.38,-49.93"/>
</g>
<!-- 4 -->
<g id="node5" class="node">
<title>4</title>
<path fill="none" stroke="#56d892" stroke-width="2" d="M339,-108C339,-108 302.75,-108 302.75,-108 296.75,-108 290.75,-102 290.75,-96 290.75,-96 290.75,-84 290.75,-84 290.75,-78 296.75,-72 302.75,-72 302.75,-72 339,-72 339,-72 345,-72 351,-78 351,-84 351,-84 351,-96 351,-96 351,-102 345,-108 339,-108"/>
<text text-anchor="middle" x="320.88" y="-86.88" font-family="sans" font-size="10.00">bcf_stats</text>
</g>
<!-- 4&#45;&gt;0 -->
<g id="edge4" class="edge">
<title>4&#45;&gt;0</title>
<path fill="none" stroke="grey" stroke-width="2" d="M298.16,-71.34C287.8,-63.27 275.32,-53.57 263.94,-44.72"/>
<polygon fill="grey" stroke="grey" stroke-width="2" points="266.32,-42.14 256.28,-38.76 262.03,-47.66 266.32,-42.14"/>
</g>
<!-- 5 -->
<g id="node6" class="node">
<title>5</title>
<path fill="none" stroke="#56d8b1" stroke-width="2" d="M484.75,-108C484.75,-108 381,-108 381,-108 375,-108 369,-102 369,-96 369,-96 369,-84 369,-84 369,-78 375,-72 381,-72 381,-72 484.75,-72 484.75,-72 490.75,-72 496.75,-78 496.75,-84 496.75,-84 496.75,-96 496.75,-96 496.75,-102 490.75,-108 484.75,-108"/>
<text text-anchor="middle" x="432.88" y="-86.88" font-family="sans" font-size="10.00">annotate_variants_vep</text>
</g>
<!-- 5&#45;&gt;0 -->
<g id="edge5" class="edge">
<title>5&#45;&gt;0</title>
<path fill="none" stroke="grey" stroke-width="2" d="M381.12,-71.06C347.21,-59.32 303.51,-44.17 271.99,-33.25"/>
<polygon fill="grey" stroke="grey" stroke-width="2" points="273.16,-29.95 262.57,-29.98 270.87,-36.56 273.16,-29.95"/>
</g>
<!-- 6 -->
<g id="node7" class="node">
<title>6</title>
<path fill="none" stroke="#d85656" stroke-width="2" d="M358,-180C358,-180 303.75,-180 303.75,-180 297.75,-180 291.75,-174 291.75,-168 291.75,-168 291.75,-156 291.75,-156 291.75,-150 297.75,-144 303.75,-144 303.75,-144 358,-144 358,-144 364,-144 370,-150 370,-156 370,-156 370,-168 370,-168 370,-174 364,-180 358,-180"/>
<text text-anchor="middle" x="330.88" y="-158.88" font-family="sans" font-size="10.00">bcftools_sort</text>
</g>
<!-- 6&#45;&gt;5 -->
<g id="edge8" class="edge">
<title>6&#45;&gt;5</title>
<path fill="none" stroke="grey" stroke-width="2" d="M356.88,-143.15C368.87,-134.93 383.3,-125.02 396.36,-116.06"/>
<polygon fill="grey" stroke="grey" stroke-width="2" points="398.16,-119.07 404.42,-110.53 394.2,-113.3 398.16,-119.07"/>
</g>
<!-- 7 -->
<g id="node8" class="node">
<title>7</title>
<path fill="none" stroke="#567bd8" stroke-width="2" d="M399.25,-252C399.25,-252 262.5,-252 262.5,-252 256.5,-252 250.5,-246 250.5,-240 250.5,-240 250.5,-228 250.5,-228 250.5,-222 256.5,-216 262.5,-216 262.5,-216 399.25,-216 399.25,-216 405.25,-216 411.25,-222 411.25,-228 411.25,-228 411.25,-240 411.25,-240 411.25,-246 405.25,-252 399.25,-252"/>
<text text-anchor="middle" x="330.88" y="-230.88" font-family="sans" font-size="10.00">gatk_leftalignandtrimvariants</text>
</g>
<!-- 7&#45;&gt;6 -->
<g id="edge11" class="edge">
<title>7&#45;&gt;6</title>
<path fill="none" stroke="grey" stroke-width="2" d="M330.88,-215.34C330.88,-208.75 330.88,-201.08 330.88,-193.67"/>
<polygon fill="grey" stroke="grey" stroke-width="2" points="334.38,-193.93 330.88,-183.93 327.38,-193.93 334.38,-193.93"/>
</g>
<!-- 8 -->
<g id="node9" class="node">
<title>8</title>
<path fill="none" stroke="#56d882" stroke-width="2" d="M128.75,-324C128.75,-324 61,-324 61,-324 55,-324 49,-318 49,-312 49,-312 49,-300 49,-300 49,-294 55,-288 61,-288 61,-288 128.75,-288 128.75,-288 134.75,-288 140.75,-294 140.75,-300 140.75,-300 140.75,-312 140.75,-312 140.75,-318 134.75,-324 128.75,-324"/>
<text text-anchor="middle" x="94.88" y="-302.88" font-family="sans" font-size="10.00">Merge_Strelka2</text>
</g>
<!-- 8&#45;&gt;7 -->
<g id="edge14" class="edge">
<title>8&#45;&gt;7</title>
<path fill="none" stroke="grey" stroke-width="2" d="M141.5,-291.17C174.83,-281.28 220.34,-267.79 258.39,-256.5"/>
<polygon fill="grey" stroke="grey" stroke-width="2" points="258.96,-259.98 267.55,-253.78 256.97,-253.27 258.96,-259.98"/>
</g>
<!-- 9 -->
<g id="node10" class="node">
<title>9</title>
<path fill="none" stroke="#afd856" stroke-width="2" d="M43.75,-396C43.75,-396 12,-396 12,-396 6,-396 0,-390 0,-384 0,-384 0,-372 0,-372 0,-366 6,-360 12,-360 12,-360 43.75,-360 43.75,-360 49.75,-360 55.75,-366 55.75,-372 55.75,-372 55.75,-384 55.75,-384 55.75,-390 49.75,-396 43.75,-396"/>
<text text-anchor="middle" x="27.88" y="-374.88" font-family="sans" font-size="10.00">Strelka2</text>
</g>
<!-- 9&#45;&gt;8 -->
<g id="edge16" class="edge">
<title>9&#45;&gt;8</title>
<path fill="none" stroke="grey" stroke-width="2" d="M44.78,-359.34C52.11,-351.69 60.84,-342.56 68.96,-334.08"/>
<polygon fill="grey" stroke="grey" stroke-width="2" points="71.26,-336.73 75.65,-327.09 66.2,-331.89 71.26,-336.73"/>
</g>
<!-- 10 -->
<g id="node11" class="node">
<title>10</title>
<path fill="none" stroke="#56d8d0" stroke-width="2" d="M42.88,-468C42.88,-468 12.88,-468 12.88,-468 6.88,-468 0.88,-462 0.88,-456 0.88,-456 0.88,-444 0.88,-444 0.88,-438 6.88,-432 12.88,-432 12.88,-432 42.88,-432 42.88,-432 48.88,-432 54.88,-438 54.88,-444 54.88,-444 54.88,-456 54.88,-456 54.88,-462 48.88,-468 42.88,-468"/>
<text text-anchor="middle" x="27.88" y="-446.88" font-family="sans" font-size="10.00">Manta</text>
</g>
<!-- 10&#45;&gt;9 -->
<g id="edge17" class="edge">
<title>10&#45;&gt;9</title>
<path fill="none" stroke="grey" stroke-width="2" d="M27.88,-431.34C27.88,-424.75 27.88,-417.08 27.88,-409.67"/>
<polygon fill="grey" stroke="grey" stroke-width="2" points="31.38,-409.93 27.88,-399.93 24.38,-409.93 31.38,-409.93"/>
</g>
<!-- 11 -->
<g id="node12" class="node">
<title>11</title>
<path fill="none" stroke="#56a9d8" stroke-width="2" d="M465.25,-180C465.25,-180 400.5,-180 400.5,-180 394.5,-180 388.5,-174 388.5,-168 388.5,-168 388.5,-156 388.5,-156 388.5,-150 394.5,-144 400.5,-144 400.5,-144 465.25,-144 465.25,-144 471.25,-144 477.25,-150 477.25,-156 477.25,-156 477.25,-168 477.25,-168 477.25,-174 471.25,-180 465.25,-180"/>
<text text-anchor="middle" x="432.88" y="-158.88" font-family="sans" font-size="10.00">get_vep_cache</text>
</g>
<!-- 11&#45;&gt;5 -->
<g id="edge10" class="edge">
<title>11&#45;&gt;5</title>
<path fill="none" stroke="grey" stroke-width="2" d="M432.88,-143.34C432.88,-136.75 432.88,-129.08 432.88,-121.67"/>
<polygon fill="grey" stroke="grey" stroke-width="2" points="436.38,-121.93 432.88,-111.93 429.38,-121.93 436.38,-121.93"/>
</g>
<!-- 12 -->
<g id="node13" class="node">
<title>12</title>
<path fill="none" stroke="#d8ac56" stroke-width="2" d="M610.38,-180C610.38,-180 507.38,-180 507.38,-180 501.38,-180 495.38,-174 495.38,-168 495.38,-168 495.38,-156 495.38,-156 495.38,-150 501.38,-144 507.38,-144 507.38,-144 610.38,-144 610.38,-144 616.38,-144 622.38,-150 622.38,-156 622.38,-156 622.38,-168 622.38,-168 622.38,-174 616.38,-180 610.38,-180"/>
<text text-anchor="middle" x="558.88" y="-158.88" font-family="sans" font-size="10.00">download_vep_plugins</text>
</g>
<!-- 12&#45;&gt;5 -->
<g id="edge9" class="edge">
<title>12&#45;&gt;5</title>
<path fill="none" stroke="grey" stroke-width="2" d="M526.75,-143.15C511.35,-134.6 492.68,-124.22 476.05,-114.99"/>
<polygon fill="grey" stroke="grey" stroke-width="2" points="478.02,-112.08 467.58,-110.28 474.63,-118.2 478.02,-112.08"/>
</g>
<!-- 13 -->
<g id="node14" class="node">
<title>13</title>
<path fill="none" stroke="#70d856" stroke-width="2" d="M330.62,-324C330.62,-324 181.12,-324 181.12,-324 175.12,-324 169.12,-318 169.12,-312 169.12,-312 169.12,-300 169.12,-300 169.12,-294 175.12,-288 181.12,-288 181.12,-288 330.62,-288 330.62,-288 336.62,-288 342.62,-294 342.62,-300 342.62,-300 342.62,-312 342.62,-312 342.62,-318 336.62,-324 330.62,-324"/>
<text text-anchor="middle" x="255.88" y="-302.88" font-family="sans" font-size="10.00">gatk_filtermutectcalls_complete</text>
</g>
<!-- 13&#45;&gt;7 -->
<g id="edge12" class="edge">
<title>13&#45;&gt;7</title>
<path fill="none" stroke="grey" stroke-width="2" d="M274.8,-287.34C283.17,-279.52 293.2,-270.16 302.45,-261.53"/>
<polygon fill="grey" stroke="grey" stroke-width="2" points="304.56,-264.35 309.48,-254.97 299.78,-259.23 304.56,-264.35"/>
</g>
<!-- 14 -->
<g id="node15" class="node">
<title>14</title>
<path fill="none" stroke="#d6d856" stroke-width="2" d="M200.62,-468C200.62,-468 141.12,-468 141.12,-468 135.12,-468 129.12,-462 129.12,-456 129.12,-456 129.12,-444 129.12,-444 129.12,-438 135.12,-432 141.12,-432 141.12,-432 200.62,-432 200.62,-432 206.62,-432 212.62,-438 212.62,-444 212.62,-444 212.62,-456 212.62,-456 212.62,-462 206.62,-468 200.62,-468"/>
<text text-anchor="middle" x="170.88" y="-446.88" font-family="sans" font-size="10.00">gatk_mutect2</text>
</g>
<!-- 14&#45;&gt;13 -->
<g id="edge21" class="edge">
<title>14&#45;&gt;13</title>
<path fill="none" stroke="grey" stroke-width="2" d="M136.44,-431.14C123.43,-422.44 110.04,-410.66 102.88,-396 95.85,-381.62 93.6,-373.03 102.88,-360 115.81,-341.82 135.44,-329.82 156.35,-321.92"/>
<polygon fill="grey" stroke="grey" stroke-width="2" points="157.21,-325.32 165.56,-318.8 154.96,-318.69 157.21,-325.32"/>
</g>
<!-- 18 -->
<g id="node19" class="node">
<title>18</title>
<path fill="none" stroke="#d88556" stroke-width="2" d="M273.62,-396C273.62,-396 124.12,-396 124.12,-396 118.12,-396 112.12,-390 112.12,-384 112.12,-384 112.12,-372 112.12,-372 112.12,-366 118.12,-360 124.12,-360 124.12,-360 273.62,-360 273.62,-360 279.62,-360 285.62,-366 285.62,-372 285.62,-372 285.62,-384 285.62,-384 285.62,-390 279.62,-396 273.62,-396"/>
<text text-anchor="middle" x="198.88" y="-374.88" font-family="sans" font-size="10.00">gatk_learnreadorientationmodel</text>
</g>
<!-- 14&#45;&gt;18 -->
<g id="edge24" class="edge">
<title>14&#45;&gt;18</title>
<path fill="none" stroke="grey" stroke-width="2" d="M177.94,-431.34C180.67,-424.51 183.87,-416.5 186.94,-408.83"/>
<polygon fill="grey" stroke="grey" stroke-width="2" points="190.13,-410.3 190.59,-399.71 183.63,-407.7 190.13,-410.3"/>
</g>
<!-- 15 -->
<g id="node16" class="node">
<title>15</title>
<path fill="none" stroke="#d86656" stroke-width="2" d="M410.38,-468C410.38,-468 271.38,-468 271.38,-468 265.38,-468 259.38,-462 259.38,-456 259.38,-456 259.38,-444 259.38,-444 259.38,-438 265.38,-432 271.38,-432 271.38,-432 410.38,-432 410.38,-432 416.38,-432 422.38,-438 422.38,-444 422.38,-444 422.38,-456 422.38,-456 422.38,-462 416.38,-468 410.38,-468"/>
<text text-anchor="middle" x="340.88" y="-446.88" font-family="sans" font-size="10.00">gatk_calculate_contamination</text>
</g>
<!-- 15&#45;&gt;13 -->
<g id="edge20" class="edge">
<title>15&#45;&gt;13</title>
<path fill="none" stroke="grey" stroke-width="2" d="M332.68,-431.16C324.03,-412.86 309.65,-383.79 294.88,-360 289.65,-351.59 283.5,-342.81 277.64,-334.86"/>
<polygon fill="grey" stroke="grey" stroke-width="2" points="280.59,-332.96 271.78,-327.08 275,-337.17 280.59,-332.96"/>
</g>
<!-- 17 -->
<g id="node18" class="node">
<title>17</title>
<path fill="none" stroke="#56d8c1" stroke-width="2" d="M484.25,-396C484.25,-396 353.5,-396 353.5,-396 347.5,-396 341.5,-390 341.5,-384 341.5,-384 341.5,-372 341.5,-372 341.5,-366 347.5,-360 353.5,-360 353.5,-360 484.25,-360 484.25,-360 490.25,-360 496.25,-366 496.25,-372 496.25,-372 496.25,-384 496.25,-384 496.25,-390 490.25,-396 484.25,-396"/>
<text text-anchor="middle" x="418.88" y="-374.88" font-family="sans" font-size="10.00">cleanup_calc_contamination</text>
</g>
<!-- 15&#45;&gt;17 -->
<g id="edge23" class="edge">
<title>15&#45;&gt;17</title>
<path fill="none" stroke="grey" stroke-width="2" d="M360.56,-431.34C369.27,-423.52 379.69,-414.16 389.31,-405.53"/>
<polygon fill="grey" stroke="grey" stroke-width="2" points="391.57,-408.21 396.67,-398.92 386.89,-403 391.57,-408.21"/>
</g>
<!-- 16 -->
<g id="node17" class="node">
<title>16</title>
<path fill="none" stroke="#d8cb56" stroke-width="2" d="M405.88,-540C405.88,-540 275.88,-540 275.88,-540 269.88,-540 263.88,-534 263.88,-528 263.88,-528 263.88,-516 263.88,-516 263.88,-510 269.88,-504 275.88,-504 275.88,-504 405.88,-504 405.88,-504 411.88,-504 417.88,-510 417.88,-516 417.88,-516 417.88,-528 417.88,-528 417.88,-534 411.88,-540 405.88,-540"/>
<text text-anchor="middle" x="340.88" y="-518.88" font-family="sans" font-size="10.00">gatk_get_pileup_summaries</text>
</g>
<!-- 16&#45;&gt;15 -->
<g id="edge22" class="edge">
<title>16&#45;&gt;15</title>
<path fill="none" stroke="grey" stroke-width="2" d="M340.88,-503.34C340.88,-496.75 340.88,-489.08 340.88,-481.67"/>
<polygon fill="grey" stroke="grey" stroke-width="2" points="344.38,-481.93 340.88,-471.93 337.38,-481.93 344.38,-481.93"/>
</g>
<!-- 17&#45;&gt;13 -->
<g id="edge18" class="edge">
<title>17&#45;&gt;13</title>
<path fill="none" stroke="grey" stroke-width="2" d="M377.32,-359.15C356.71,-350.3 331.57,-339.51 309.52,-330.04"/>
<polygon fill="grey" stroke="grey" stroke-width="2" points="310.99,-326.86 300.42,-326.13 308.22,-333.29 310.99,-326.86"/>
</g>
<!-- 18&#45;&gt;13 -->
<g id="edge19" class="edge">
<title>18&#45;&gt;13</title>
<path fill="none" stroke="grey" stroke-width="2" d="M213.26,-359.34C219.29,-351.93 226.44,-343.14 233.15,-334.9"/>
<polygon fill="grey" stroke="grey" stroke-width="2" points="235.79,-337.21 239.39,-327.25 230.36,-332.79 235.79,-337.21"/>
</g>
<!-- 19 -->
<g id="node20" class="node">
<title>19</title>
<path fill="none" stroke="#5663d8" stroke-width="2" d="M439,-324C439,-324 372.75,-324 372.75,-324 366.75,-324 360.75,-318 360.75,-312 360.75,-312 360.75,-300 360.75,-300 360.75,-294 366.75,-288 372.75,-288 372.75,-288 439,-288 439,-288 445,-288 451,-294 451,-300 451,-300 451,-312 451,-312 451,-318 445,-324 439,-324"/>
<text text-anchor="middle" x="405.88" y="-302.88" font-family="sans" font-size="10.00">Merge_Varscan</text>
</g>
<!-- 19&#45;&gt;7 -->
<g id="edge13" class="edge">
<title>19&#45;&gt;7</title>
<path fill="none" stroke="grey" stroke-width="2" d="M386.95,-287.34C378.58,-279.52 368.55,-270.16 359.3,-261.53"/>
<polygon fill="grey" stroke="grey" stroke-width="2" points="361.97,-259.23 352.27,-254.97 357.19,-264.35 361.97,-259.23"/>
</g>
<!-- 20 -->
<g id="node21" class="node">
<title>20</title>
<path fill="none" stroke="#56c9d8" stroke-width="2" d="M557,-396C557,-396 526.75,-396 526.75,-396 520.75,-396 514.75,-390 514.75,-384 514.75,-384 514.75,-372 514.75,-372 514.75,-366 520.75,-360 526.75,-360 526.75,-360 557,-360 557,-360 563,-360 569,-366 569,-372 569,-372 569,-384 569,-384 569,-390 563,-396 557,-396"/>
<text text-anchor="middle" x="541.88" y="-374.88" font-family="sans" font-size="10.00">Varscan</text>
</g>
<!-- 20&#45;&gt;19 -->
<g id="edge25" class="edge">
<title>20&#45;&gt;19</title>
<path fill="none" stroke="grey" stroke-width="2" d="M514.03,-362.67C496.14,-353.46 472.49,-341.29 451.86,-330.67"/>
<polygon fill="grey" stroke="grey" stroke-width="2" points="453.64,-327.65 443.14,-326.18 450.43,-333.87 453.64,-327.65"/>
</g>
<!-- 21 -->
<g id="node22" class="node">
<title>21</title>
<path fill="none" stroke="#56d873" stroke-width="2" d="M566.75,-468C566.75,-468 517,-468 517,-468 511,-468 505,-462 505,-456 505,-456 505,-444 505,-444 505,-438 511,-432 517,-432 517,-432 566.75,-432 566.75,-432 572.75,-432 578.75,-438 578.75,-444 578.75,-444 578.75,-456 578.75,-456 578.75,-462 572.75,-468 566.75,-468"/>
<text text-anchor="middle" x="541.88" y="-446.88" font-family="sans" font-size="10.00">UnzipPileup</text>
</g>
<!-- 21&#45;&gt;20 -->
<g id="edge26" class="edge">
<title>21&#45;&gt;20</title>
<path fill="none" stroke="grey" stroke-width="2" d="M541.88,-431.34C541.88,-424.75 541.88,-417.08 541.88,-409.67"/>
<polygon fill="grey" stroke="grey" stroke-width="2" points="545.38,-409.93 541.88,-399.93 538.38,-409.93 545.38,-409.93"/>
</g>
<!-- 22 -->
<g id="node23" class="node">
<title>22</title>
<path fill="none" stroke="#61d856" stroke-width="2" d="M579.5,-540C579.5,-540 504.25,-540 504.25,-540 498.25,-540 492.25,-534 492.25,-528 492.25,-528 492.25,-516 492.25,-516 492.25,-510 498.25,-504 504.25,-504 504.25,-504 579.5,-504 579.5,-504 585.5,-504 591.5,-510 591.5,-516 591.5,-516 591.5,-528 591.5,-528 591.5,-534 585.5,-540 579.5,-540"/>
<text text-anchor="middle" x="541.88" y="-518.88" font-family="sans" font-size="10.00">PileupForVarscan</text>
</g>
<!-- 22&#45;&gt;21 -->
<g id="edge27" class="edge">
<title>22&#45;&gt;21</title>
<path fill="none" stroke="grey" stroke-width="2" d="M541.88,-503.34C541.88,-496.75 541.88,-489.08 541.88,-481.67"/>
<polygon fill="grey" stroke="grey" stroke-width="2" points="545.38,-481.93 541.88,-471.93 538.38,-481.93 545.38,-481.93"/>
</g>
<!-- 23 -->
<g id="node24" class="node">
<title>23</title>
<path fill="none" stroke="#8fd856" stroke-width="2" d="M510.88,-324C510.88,-324 480.88,-324 480.88,-324 474.88,-324 468.88,-318 468.88,-312 468.88,-312 468.88,-300 468.88,-300 468.88,-294 474.88,-288 480.88,-288 480.88,-288 510.88,-288 510.88,-288 516.88,-288 522.88,-294 522.88,-300 522.88,-300 522.88,-312 522.88,-312 522.88,-318 516.88,-324 510.88,-324"/>
<text text-anchor="middle" x="495.88" y="-302.88" font-family="sans" font-size="10.00">VarDict</text>
</g>
<!-- 23&#45;&gt;7 -->
<g id="edge15" class="edge">
<title>23&#45;&gt;7</title>
<path fill="none" stroke="grey" stroke-width="2" d="M468.03,-291.68C465.28,-290.42 462.53,-289.17 459.88,-288 436.5,-277.69 410.47,-266.87 387.95,-257.72"/>
<polygon fill="grey" stroke="grey" stroke-width="2" points="389.58,-254.6 378.99,-254.09 386.95,-261.09 389.58,-254.6"/>
</g>
</g>
</svg>
