<?xml version="1.0" encoding="UTF-8" standalone="no"?>
<!DOCTYPE svg PUBLIC "-//W3C//DTD SVG 1.1//EN"
 "http://www.w3.org/Graphics/SVG/1.1/DTD/svg11.dtd">
<!-- Generated by graphviz version 9.0.0 (20231125.0833)
 -->
<!-- Title: snakemake_dag Pages: 1 -->
<svg width="641pt" height="548pt"
 viewBox="0.00 0.00 640.55 548.00" xmlns="http://www.w3.org/2000/svg" xmlns:xlink="http://www.w3.org/1999/xlink">
<g id="graph0" class="graph" transform="scale(1 1) rotate(0) translate(4 544)">
<title>snakemake_dag</title>
<polygon fill="white" stroke="none" points="-4,4 -4,-544 636.55,-544 636.55,4 -4,4"/>
<!-- 0 -->
<g id="node1" class="node">
<title>0</title>
<path fill="none" stroke="#d88556" stroke-width="2" d="M227.92,-36C227.92,-36 196.17,-36 196.17,-36 190.17,-36 184.17,-30 184.17,-24 184.17,-24 184.17,-12 184.17,-12 184.17,-6 190.17,0 196.17,0 196.17,0 227.92,0 227.92,0 233.92,0 239.92,-6 239.92,-12 239.92,-12 239.92,-24 239.92,-24 239.92,-30 233.92,-36 227.92,-36"/>
<text text-anchor="middle" x="212.05" y="-14.88" font-family="sans" font-size="10.00">multiQC</text>
</g>
<!-- 1 -->
<g id="node2" class="node">
<title>1</title>
<path fill="none" stroke="#d89c56" stroke-width="2" d="M89.17,-180C89.17,-180 34.92,-180 34.92,-180 28.92,-180 22.92,-174 22.92,-168 22.92,-168 22.92,-156 22.92,-156 22.92,-150 28.92,-144 34.92,-144 34.92,-144 89.17,-144 89.17,-144 95.17,-144 101.17,-150 101.17,-156 101.17,-156 101.17,-168 101.17,-168 101.17,-174 95.17,-180 89.17,-180"/>
<text text-anchor="middle" x="62.05" y="-158.88" font-family="sans" font-size="10.00">cnvkit_batch</text>
</g>
<!-- 1&#45;&gt;0 -->
<g id="edge6" class="edge">
<title>1&#45;&gt;0</title>
<path fill="none" stroke="grey" stroke-width="2" d="M37.61,-143.27C15.17,-124.8 -12.07,-95.37 6.05,-72 26.06,-46.18 116.79,-30.74 170.94,-23.66"/>
<polygon fill="grey" stroke="grey" stroke-width="2" points="171.04,-27.17 180.53,-22.45 170.17,-20.23 171.04,-27.17"/>
</g>
<!-- 2 -->
<g id="node3" class="node">
<title>2</title>
<path fill="none" stroke="#9fd856" stroke-width="2" d="M97.42,-108C97.42,-108 26.67,-108 26.67,-108 20.67,-108 14.67,-102 14.67,-96 14.67,-96 14.67,-84 14.67,-84 14.67,-78 20.67,-72 26.67,-72 26.67,-72 97.42,-72 97.42,-72 103.42,-72 109.42,-78 109.42,-84 109.42,-84 109.42,-96 109.42,-96 109.42,-102 103.42,-108 97.42,-108"/>
<text text-anchor="middle" x="62.05" y="-86.88" font-family="sans" font-size="10.00">cnvkit_heatmap</text>
</g>
<!-- 1&#45;&gt;2 -->
<g id="edge7" class="edge">
<title>1&#45;&gt;2</title>
<path fill="none" stroke="grey" stroke-width="2" d="M62.05,-143.34C62.05,-136.75 62.05,-129.08 62.05,-121.67"/>
<polygon fill="grey" stroke="grey" stroke-width="2" points="65.55,-121.93 62.05,-111.93 58.55,-121.93 65.55,-121.93"/>
</g>
<!-- 3 -->
<g id="node4" class="node">
<title>3</title>
<path fill="none" stroke="#d86656" stroke-width="2" d="M198.8,-108C198.8,-108 139.3,-108 139.3,-108 133.3,-108 127.3,-102 127.3,-96 127.3,-96 127.3,-84 127.3,-84 127.3,-78 133.3,-72 139.3,-72 139.3,-72 198.8,-72 198.8,-72 204.8,-72 210.8,-78 210.8,-84 210.8,-84 210.8,-96 210.8,-96 210.8,-102 204.8,-108 198.8,-108"/>
<text text-anchor="middle" x="169.05" y="-86.88" font-family="sans" font-size="10.00">cnvkit_to_seg</text>
</g>
<!-- 1&#45;&gt;3 -->
<g id="edge8" class="edge">
<title>1&#45;&gt;3</title>
<path fill="none" stroke="grey" stroke-width="2" d="M89.32,-143.15C102.03,-134.84 117.35,-124.82 131.15,-115.79"/>
<polygon fill="grey" stroke="grey" stroke-width="2" points="132.83,-118.87 139.29,-110.47 129,-113.02 132.83,-118.87"/>
</g>
<!-- 2&#45;&gt;0 -->
<g id="edge5" class="edge">
<title>2&#45;&gt;0</title>
<path fill="none" stroke="grey" stroke-width="2" d="M100.29,-71.15C122.11,-60.97 149.45,-48.21 171.63,-37.86"/>
<polygon fill="grey" stroke="grey" stroke-width="2" points="173.03,-41.07 180.61,-33.67 170.07,-34.73 173.03,-41.07"/>
</g>
<!-- 3&#45;&gt;0 -->
<g id="edge2" class="edge">
<title>3&#45;&gt;0</title>
<path fill="none" stroke="grey" stroke-width="2" d="M179.9,-71.34C184.29,-64.18 189.49,-55.73 194.4,-47.73"/>
<polygon fill="grey" stroke="grey" stroke-width="2" points="197.21,-49.83 199.47,-39.48 191.25,-46.17 197.21,-49.83"/>
</g>
<!-- 4 -->
<g id="node5" class="node">
<title>4</title>
<path fill="none" stroke="#80d856" stroke-width="2" d="M271.05,-108C271.05,-108 241.05,-108 241.05,-108 235.05,-108 229.05,-102 229.05,-96 229.05,-96 229.05,-84 229.05,-84 229.05,-78 235.05,-72 241.05,-72 241.05,-72 271.05,-72 271.05,-72 277.05,-72 283.05,-78 283.05,-84 283.05,-84 283.05,-96 283.05,-96 283.05,-102 277.05,-108 271.05,-108"/>
<text text-anchor="middle" x="256.05" y="-86.88" font-family="sans" font-size="10.00">ASCAT</text>
</g>
<!-- 4&#45;&gt;0 -->
<g id="edge1" class="edge">
<title>4&#45;&gt;0</title>
<path fill="none" stroke="grey" stroke-width="2" d="M244.94,-71.34C240.45,-64.18 235.13,-55.73 230.1,-47.73"/>
<polygon fill="grey" stroke="grey" stroke-width="2" points="233.2,-46.07 224.91,-39.46 227.27,-49.79 233.2,-46.07"/>
</g>
<!-- 5 -->
<g id="node6" class="node">
<title>5</title>
<path fill="none" stroke="#569ad8" stroke-width="2" d="M349.17,-108C349.17,-108 312.92,-108 312.92,-108 306.92,-108 300.92,-102 300.92,-96 300.92,-96 300.92,-84 300.92,-84 300.92,-78 306.92,-72 312.92,-72 312.92,-72 349.17,-72 349.17,-72 355.17,-72 361.17,-78 361.17,-84 361.17,-84 361.17,-96 361.17,-96 361.17,-102 355.17,-108 349.17,-108"/>
<text text-anchor="middle" x="331.05" y="-86.88" font-family="sans" font-size="10.00">bcf_stats</text>
</g>
<!-- 5&#45;&gt;0 -->
<g id="edge4" class="edge">
<title>5&#45;&gt;0</title>
<path fill="none" stroke="grey" stroke-width="2" d="M300.71,-71.15C285.86,-62.42 267.79,-51.79 251.85,-42.41"/>
<polygon fill="grey" stroke="grey" stroke-width="2" points="253.69,-39.44 243.3,-37.38 250.14,-45.47 253.69,-39.44"/>
</g>
<!-- 6 -->
<g id="node7" class="node">
<title>6</title>
<path fill="none" stroke="#56d873" stroke-width="2" d="M494.92,-108C494.92,-108 391.17,-108 391.17,-108 385.17,-108 379.17,-102 379.17,-96 379.17,-96 379.17,-84 379.17,-84 379.17,-78 385.17,-72 391.17,-72 391.17,-72 494.92,-72 494.92,-72 500.92,-72 506.92,-78 506.92,-84 506.92,-84 506.92,-96 506.92,-96 506.92,-102 500.92,-108 494.92,-108"/>
<text text-anchor="middle" x="443.05" y="-86.88" font-family="sans" font-size="10.00">annotate_variants_vep</text>
</g>
<!-- 6&#45;&gt;0 -->
<g id="edge3" class="edge">
<title>6&#45;&gt;0</title>
<path fill="none" stroke="grey" stroke-width="2" d="M383.86,-71.06C342.84,-58.64 289.29,-42.41 252.95,-31.39"/>
<polygon fill="grey" stroke="grey" stroke-width="2" points="254.34,-28.16 243.76,-28.61 252.31,-34.86 254.34,-28.16"/>
</g>
<!-- 7 -->
<g id="node8" class="node">
<title>7</title>
<path fill="none" stroke="#56d8a2" stroke-width="2" d="M368.17,-180C368.17,-180 313.92,-180 313.92,-180 307.92,-180 301.92,-174 301.92,-168 301.92,-168 301.92,-156 301.92,-156 301.92,-150 307.92,-144 313.92,-144 313.92,-144 368.17,-144 368.17,-144 374.17,-144 380.17,-150 380.17,-156 380.17,-156 380.17,-168 380.17,-168 380.17,-174 374.17,-180 368.17,-180"/>
<text text-anchor="middle" x="341.05" y="-158.88" font-family="sans" font-size="10.00">bcftools_sort</text>
</g>
<!-- 7&#45;&gt;6 -->
<g id="edge9" class="edge">
<title>7&#45;&gt;6</title>
<path fill="none" stroke="grey" stroke-width="2" d="M367.05,-143.15C379.04,-134.93 393.48,-125.02 406.53,-116.06"/>
<polygon fill="grey" stroke="grey" stroke-width="2" points="408.33,-119.07 414.6,-110.53 404.37,-113.3 408.33,-119.07"/>
</g>
<!-- 8 -->
<g id="node9" class="node">
<title>8</title>
<path fill="none" stroke="#56d882" stroke-width="2" d="M409.42,-252C409.42,-252 272.67,-252 272.67,-252 266.67,-252 260.67,-246 260.67,-240 260.67,-240 260.67,-228 260.67,-228 260.67,-222 266.67,-216 272.67,-216 272.67,-216 409.42,-216 409.42,-216 415.42,-216 421.42,-222 421.42,-228 421.42,-228 421.42,-240 421.42,-240 421.42,-246 415.42,-252 409.42,-252"/>
<text text-anchor="middle" x="341.05" y="-230.88" font-family="sans" font-size="10.00">gatk_leftalignandtrimvariants</text>
</g>
<!-- 8&#45;&gt;7 -->
<g id="edge12" class="edge">
<title>8&#45;&gt;7</title>
<path fill="none" stroke="grey" stroke-width="2" d="M341.05,-215.34C341.05,-208.75 341.05,-201.08 341.05,-193.67"/>
<polygon fill="grey" stroke="grey" stroke-width="2" points="344.55,-193.93 341.05,-183.93 337.55,-193.93 344.55,-193.93"/>
</g>
<!-- 9 -->
<g id="node10" class="node">
<title>9</title>
<path fill="none" stroke="#afd856" stroke-width="2" d="M138.92,-324C138.92,-324 71.17,-324 71.17,-324 65.17,-324 59.17,-318 59.17,-312 59.17,-312 59.17,-300 59.17,-300 59.17,-294 65.17,-288 71.17,-288 71.17,-288 138.92,-288 138.92,-288 144.92,-288 150.92,-294 150.92,-300 150.92,-300 150.92,-312 150.92,-312 150.92,-318 144.92,-324 138.92,-324"/>
<text text-anchor="middle" x="105.05" y="-302.88" font-family="sans" font-size="10.00">Merge_Strelka2</text>
</g>
<!-- 9&#45;&gt;8 -->
<g id="edge16" class="edge">
<title>9&#45;&gt;8</title>
<path fill="none" stroke="grey" stroke-width="2" d="M151.67,-291.17C185.01,-281.28 230.51,-267.79 268.56,-256.5"/>
<polygon fill="grey" stroke="grey" stroke-width="2" points="269.13,-259.98 277.73,-253.78 267.14,-253.27 269.13,-259.98"/>
</g>
<!-- 10 -->
<g id="node11" class="node">
<title>10</title>
<path fill="none" stroke="#d87556" stroke-width="2" d="M53.92,-396C53.92,-396 22.17,-396 22.17,-396 16.17,-396 10.17,-390 10.17,-384 10.17,-384 10.17,-372 10.17,-372 10.17,-366 16.17,-360 22.17,-360 22.17,-360 53.92,-360 53.92,-360 59.92,-360 65.92,-366 65.92,-372 65.92,-372 65.92,-384 65.92,-384 65.92,-390 59.92,-396 53.92,-396"/>
<text text-anchor="middle" x="38.05" y="-374.88" font-family="sans" font-size="10.00">Strelka2</text>
</g>
<!-- 10&#45;&gt;9 -->
<g id="edge17" class="edge">
<title>10&#45;&gt;9</title>
<path fill="none" stroke="grey" stroke-width="2" d="M54.95,-359.34C62.28,-351.69 71.02,-342.56 79.13,-334.08"/>
<polygon fill="grey" stroke="grey" stroke-width="2" points="81.43,-336.73 85.82,-327.09 76.38,-331.89 81.43,-336.73"/>
</g>
<!-- 11 -->
<g id="node12" class="node">
<title>11</title>
<path fill="none" stroke="#d85656" stroke-width="2" d="M53.05,-468C53.05,-468 23.05,-468 23.05,-468 17.05,-468 11.05,-462 11.05,-456 11.05,-456 11.05,-444 11.05,-444 11.05,-438 17.05,-432 23.05,-432 23.05,-432 53.05,-432 53.05,-432 59.05,-432 65.05,-438 65.05,-444 65.05,-444 65.05,-456 65.05,-456 65.05,-462 59.05,-468 53.05,-468"/>
<text text-anchor="middle" x="38.05" y="-446.88" font-family="sans" font-size="10.00">Manta</text>
</g>
<!-- 11&#45;&gt;10 -->
<g id="edge18" class="edge">
<title>11&#45;&gt;10</title>
<path fill="none" stroke="grey" stroke-width="2" d="M38.05,-431.34C38.05,-424.75 38.05,-417.08 38.05,-409.67"/>
<polygon fill="grey" stroke="grey" stroke-width="2" points="41.55,-409.93 38.05,-399.93 34.55,-409.93 41.55,-409.93"/>
</g>
<!-- 12 -->
<g id="node13" class="node">
<title>12</title>
<path fill="none" stroke="#568ad8" stroke-width="2" d="M475.42,-180C475.42,-180 410.67,-180 410.67,-180 404.67,-180 398.67,-174 398.67,-168 398.67,-168 398.67,-156 398.67,-156 398.67,-150 404.67,-144 410.67,-144 410.67,-144 475.42,-144 475.42,-144 481.42,-144 487.42,-150 487.42,-156 487.42,-156 487.42,-168 487.42,-168 487.42,-174 481.42,-180 475.42,-180"/>
<text text-anchor="middle" x="443.05" y="-158.88" font-family="sans" font-size="10.00">get_vep_cache</text>
</g>
<!-- 12&#45;&gt;6 -->
<g id="edge10" class="edge">
<title>12&#45;&gt;6</title>
<path fill="none" stroke="grey" stroke-width="2" d="M443.05,-143.34C443.05,-136.75 443.05,-129.08 443.05,-121.67"/>
<polygon fill="grey" stroke="grey" stroke-width="2" points="446.55,-121.93 443.05,-111.93 439.55,-121.93 446.55,-121.93"/>
</g>
<!-- 13 -->
<g id="node14" class="node">
<title>13</title>
<path fill="none" stroke="#61d856" stroke-width="2" d="M620.55,-180C620.55,-180 517.55,-180 517.55,-180 511.55,-180 505.55,-174 505.55,-168 505.55,-168 505.55,-156 505.55,-156 505.55,-150 511.55,-144 517.55,-144 517.55,-144 620.55,-144 620.55,-144 626.55,-144 632.55,-150 632.55,-156 632.55,-156 632.55,-168 632.55,-168 632.55,-174 626.55,-180 620.55,-180"/>
<text text-anchor="middle" x="569.05" y="-158.88" font-family="sans" font-size="10.00">download_vep_plugins</text>
</g>
<!-- 13&#45;&gt;6 -->
<g id="edge11" class="edge">
<title>13&#45;&gt;6</title>
<path fill="none" stroke="grey" stroke-width="2" d="M536.93,-143.15C521.52,-134.6 502.85,-124.22 486.23,-114.99"/>
<polygon fill="grey" stroke="grey" stroke-width="2" points="488.2,-112.08 477.76,-110.28 484.8,-118.2 488.2,-112.08"/>
</g>
<!-- 14 -->
<g id="node15" class="node">
<title>14</title>
<path fill="none" stroke="#56c9d8" stroke-width="2" d="M340.8,-324C340.8,-324 191.3,-324 191.3,-324 185.3,-324 179.3,-318 179.3,-312 179.3,-312 179.3,-300 179.3,-300 179.3,-294 185.3,-288 191.3,-288 191.3,-288 340.8,-288 340.8,-288 346.8,-288 352.8,-294 352.8,-300 352.8,-300 352.8,-312 352.8,-312 352.8,-318 346.8,-324 340.8,-324"/>
<text text-anchor="middle" x="266.05" y="-302.88" font-family="sans" font-size="10.00">gatk_filtermutectcalls_complete</text>
</g>
<!-- 14&#45;&gt;8 -->
<g id="edge15" class="edge">
<title>14&#45;&gt;8</title>
<path fill="none" stroke="grey" stroke-width="2" d="M284.97,-287.34C293.35,-279.52 303.37,-270.16 312.62,-261.53"/>
<polygon fill="grey" stroke="grey" stroke-width="2" points="314.73,-264.35 319.65,-254.97 309.96,-259.23 314.73,-264.35"/>
</g>
<!-- 15 -->
<g id="node16" class="node">
<title>15</title>
<path fill="none" stroke="#56a9d8" stroke-width="2" d="M210.8,-468C210.8,-468 151.3,-468 151.3,-468 145.3,-468 139.3,-462 139.3,-456 139.3,-456 139.3,-444 139.3,-444 139.3,-438 145.3,-432 151.3,-432 151.3,-432 210.8,-432 210.8,-432 216.8,-432 222.8,-438 222.8,-444 222.8,-444 222.8,-456 222.8,-456 222.8,-462 216.8,-468 210.8,-468"/>
<text text-anchor="middle" x="181.05" y="-446.88" font-family="sans" font-size="10.00">gatk_mutect2</text>
</g>
<!-- 15&#45;&gt;14 -->
<g id="edge20" class="edge">
<title>15&#45;&gt;14</title>
<path fill="none" stroke="grey" stroke-width="2" d="M146.62,-431.14C133.6,-422.44 120.21,-410.66 113.05,-396 106.02,-381.62 103.77,-373.03 113.05,-360 125.99,-341.82 145.61,-329.82 166.52,-321.92"/>
<polygon fill="grey" stroke="grey" stroke-width="2" points="167.38,-325.32 175.73,-318.8 165.13,-318.69 167.38,-325.32"/>
</g>
<!-- 19 -->
<g id="node20" class="node">
<title>19</title>
<path fill="none" stroke="#d8ac56" stroke-width="2" d="M283.8,-396C283.8,-396 134.3,-396 134.3,-396 128.3,-396 122.3,-390 122.3,-384 122.3,-384 122.3,-372 122.3,-372 122.3,-366 128.3,-360 134.3,-360 134.3,-360 283.8,-360 283.8,-360 289.8,-360 295.8,-366 295.8,-372 295.8,-372 295.8,-384 295.8,-384 295.8,-390 289.8,-396 283.8,-396"/>
<text text-anchor="middle" x="209.05" y="-374.88" font-family="sans" font-size="10.00">gatk_learnreadorientationmodel</text>
</g>
<!-- 15&#45;&gt;19 -->
<g id="edge25" class="edge">
<title>15&#45;&gt;19</title>
<path fill="none" stroke="grey" stroke-width="2" d="M188.11,-431.34C190.84,-424.51 194.05,-416.5 197.11,-408.83"/>
<polygon fill="grey" stroke="grey" stroke-width="2" points="200.3,-410.3 200.76,-399.71 193.8,-407.7 200.3,-410.3"/>
</g>
<!-- 16 -->
<g id="node17" class="node">
<title>16</title>
<path fill="none" stroke="#c6d856" stroke-width="2" d="M420.55,-468C420.55,-468 281.55,-468 281.55,-468 275.55,-468 269.55,-462 269.55,-456 269.55,-456 269.55,-444 269.55,-444 269.55,-438 275.55,-432 281.55,-432 281.55,-432 420.55,-432 420.55,-432 426.55,-432 432.55,-438 432.55,-444 432.55,-444 432.55,-456 432.55,-456 432.55,-462 426.55,-468 420.55,-468"/>
<text text-anchor="middle" x="351.05" y="-446.88" font-family="sans" font-size="10.00">gatk_calculate_contamination</text>
</g>
<!-- 16&#45;&gt;14 -->
<g id="edge19" class="edge">
<title>16&#45;&gt;14</title>
<path fill="none" stroke="grey" stroke-width="2" d="M342.85,-431.16C334.21,-412.86 319.82,-383.79 305.05,-360 299.83,-351.59 293.67,-342.81 287.82,-334.86"/>
<polygon fill="grey" stroke="grey" stroke-width="2" points="290.77,-332.96 281.95,-327.08 285.17,-337.17 290.77,-332.96"/>
</g>
<!-- 18 -->
<g id="node19" class="node">
<title>18</title>
<path fill="none" stroke="#8fd856" stroke-width="2" d="M494.42,-396C494.42,-396 363.67,-396 363.67,-396 357.67,-396 351.67,-390 351.67,-384 351.67,-384 351.67,-372 351.67,-372 351.67,-366 357.67,-360 363.67,-360 363.67,-360 494.42,-360 494.42,-360 500.42,-360 506.42,-366 506.42,-372 506.42,-372 506.42,-384 506.42,-384 506.42,-390 500.42,-396 494.42,-396"/>
<text text-anchor="middle" x="429.05" y="-374.88" font-family="sans" font-size="10.00">cleanup_calc_contamination</text>
</g>
<!-- 16&#45;&gt;18 -->
<g id="edge24" class="edge">
<title>16&#45;&gt;18</title>
<path fill="none" stroke="grey" stroke-width="2" d="M370.73,-431.34C379.44,-423.52 389.87,-414.16 399.48,-405.53"/>
<polygon fill="grey" stroke="grey" stroke-width="2" points="401.74,-408.21 406.85,-398.92 397.07,-403 401.74,-408.21"/>
</g>
<!-- 17 -->
<g id="node18" class="node">
<title>17</title>
<path fill="none" stroke="#d6d856" stroke-width="2" d="M416.05,-540C416.05,-540 286.05,-540 286.05,-540 280.05,-540 274.05,-534 274.05,-528 274.05,-528 274.05,-516 274.05,-516 274.05,-510 280.05,-504 286.05,-504 286.05,-504 416.05,-504 416.05,-504 422.05,-504 428.05,-510 428.05,-516 428.05,-516 428.05,-528 428.05,-528 428.05,-534 422.05,-540 416.05,-540"/>
<text text-anchor="middle" x="351.05" y="-518.88" font-family="sans" font-size="10.00">gatk_get_pileup_summaries</text>
</g>
<!-- 17&#45;&gt;16 -->
<g id="edge23" class="edge">
<title>17&#45;&gt;16</title>
<path fill="none" stroke="grey" stroke-width="2" d="M351.05,-503.34C351.05,-496.75 351.05,-489.08 351.05,-481.67"/>
<polygon fill="grey" stroke="grey" stroke-width="2" points="354.55,-481.93 351.05,-471.93 347.55,-481.93 354.55,-481.93"/>
</g>
<!-- 18&#45;&gt;14 -->
<g id="edge21" class="edge">
<title>18&#45;&gt;14</title>
<path fill="none" stroke="grey" stroke-width="2" d="M387.49,-359.15C366.88,-350.3 341.74,-339.51 319.69,-330.04"/>
<polygon fill="grey" stroke="grey" stroke-width="2" points="321.16,-326.86 310.59,-326.13 318.4,-333.29 321.16,-326.86"/>
</g>
<!-- 19&#45;&gt;14 -->
<g id="edge22" class="edge">
<title>19&#45;&gt;14</title>
<path fill="none" stroke="grey" stroke-width="2" d="M223.43,-359.34C229.46,-351.93 236.62,-343.14 243.33,-334.9"/>
<polygon fill="grey" stroke="grey" stroke-width="2" points="245.96,-337.21 249.56,-327.25 240.53,-332.79 245.96,-337.21"/>
</g>
<!-- 20 -->
<g id="node21" class="node">
<title>20</title>
<path fill="none" stroke="#70d856" stroke-width="2" d="M449.17,-324C449.17,-324 382.92,-324 382.92,-324 376.92,-324 370.92,-318 370.92,-312 370.92,-312 370.92,-300 370.92,-300 370.92,-294 376.92,-288 382.92,-288 382.92,-288 449.17,-288 449.17,-288 455.17,-288 461.17,-294 461.17,-300 461.17,-300 461.17,-312 461.17,-312 461.17,-318 455.17,-324 449.17,-324"/>
<text text-anchor="middle" x="416.05" y="-302.88" font-family="sans" font-size="10.00">Merge_Varscan</text>
</g>
<!-- 20&#45;&gt;8 -->
<g id="edge14" class="edge">
<title>20&#45;&gt;8</title>
<path fill="none" stroke="grey" stroke-width="2" d="M397.12,-287.34C388.75,-279.52 378.72,-270.16 369.48,-261.53"/>
<polygon fill="grey" stroke="grey" stroke-width="2" points="372.14,-259.23 362.44,-254.97 367.36,-264.35 372.14,-259.23"/>
</g>
<!-- 21 -->
<g id="node22" class="node">
<title>21</title>
<path fill="none" stroke="#567bd8" stroke-width="2" d="M567.17,-396C567.17,-396 536.92,-396 536.92,-396 530.92,-396 524.92,-390 524.92,-384 524.92,-384 524.92,-372 524.92,-372 524.92,-366 530.92,-360 536.92,-360 536.92,-360 567.17,-360 567.17,-360 573.17,-360 579.17,-366 579.17,-372 579.17,-372 579.17,-384 579.17,-384 579.17,-390 573.17,-396 567.17,-396"/>
<text text-anchor="middle" x="552.05" y="-374.88" font-family="sans" font-size="10.00">Varscan</text>
</g>
<!-- 21&#45;&gt;20 -->
<g id="edge26" class="edge">
<title>21&#45;&gt;20</title>
<path fill="none" stroke="grey" stroke-width="2" d="M524.2,-362.67C506.31,-353.46 482.66,-341.29 462.03,-330.67"/>
<polygon fill="grey" stroke="grey" stroke-width="2" points="463.81,-327.65 453.32,-326.18 460.61,-333.87 463.81,-327.65"/>
</g>
<!-- 22 -->
<g id="node23" class="node">
<title>22</title>
<path fill="none" stroke="#56d85b" stroke-width="2" d="M576.92,-468C576.92,-468 527.17,-468 527.17,-468 521.17,-468 515.17,-462 515.17,-456 515.17,-456 515.17,-444 515.17,-444 515.17,-438 521.17,-432 527.17,-432 527.17,-432 576.92,-432 576.92,-432 582.92,-432 588.92,-438 588.92,-444 588.92,-444 588.92,-456 588.92,-456 588.92,-462 582.92,-468 576.92,-468"/>
<text text-anchor="middle" x="552.05" y="-446.88" font-family="sans" font-size="10.00">UnzipPileup</text>
</g>
<!-- 22&#45;&gt;21 -->
<g id="edge27" class="edge">
<title>22&#45;&gt;21</title>
<path fill="none" stroke="grey" stroke-width="2" d="M552.05,-431.34C552.05,-424.75 552.05,-417.08 552.05,-409.67"/>
<polygon fill="grey" stroke="grey" stroke-width="2" points="555.55,-409.93 552.05,-399.93 548.55,-409.93 555.55,-409.93"/>
</g>
<!-- 23 -->
<g id="node24" class="node">
<title>23</title>
<path fill="none" stroke="#d8bc56" stroke-width="2" d="M589.67,-540C589.67,-540 514.42,-540 514.42,-540 508.42,-540 502.42,-534 502.42,-528 502.42,-528 502.42,-516 502.42,-516 502.42,-510 508.42,-504 514.42,-504 514.42,-504 589.67,-504 589.67,-504 595.67,-504 601.67,-510 601.67,-516 601.67,-516 601.67,-528 601.67,-528 601.67,-534 595.67,-540 589.67,-540"/>
<text text-anchor="middle" x="552.05" y="-518.88" font-family="sans" font-size="10.00">PileupForVarscan</text>
</g>
<!-- 23&#45;&gt;22 -->
<g id="edge28" class="edge">
<title>23&#45;&gt;22</title>
<path fill="none" stroke="grey" stroke-width="2" d="M552.05,-503.34C552.05,-496.75 552.05,-489.08 552.05,-481.67"/>
<polygon fill="grey" stroke="grey" stroke-width="2" points="555.55,-481.93 552.05,-471.93 548.55,-481.93 555.55,-481.93"/>
</g>
<!-- 24 -->
<g id="node25" class="node">
<title>24</title>
<path fill="none" stroke="#56d8c1" stroke-width="2" d="M521.05,-324C521.05,-324 491.05,-324 491.05,-324 485.05,-324 479.05,-318 479.05,-312 479.05,-312 479.05,-300 479.05,-300 479.05,-294 485.05,-288 491.05,-288 491.05,-288 521.05,-288 521.05,-288 527.05,-288 533.05,-294 533.05,-300 533.05,-300 533.05,-312 533.05,-312 533.05,-318 527.05,-324 521.05,-324"/>
<text text-anchor="middle" x="506.05" y="-302.88" font-family="sans" font-size="10.00">VarDict</text>
</g>
<!-- 24&#45;&gt;8 -->
<g id="edge13" class="edge">
<title>24&#45;&gt;8</title>
<path fill="none" stroke="grey" stroke-width="2" d="M478.2,-291.68C475.46,-290.42 472.7,-289.17 470.05,-288 446.67,-277.69 420.64,-266.87 398.13,-257.72"/>
<polygon fill="grey" stroke="grey" stroke-width="2" points="399.75,-254.6 389.17,-254.09 397.12,-261.09 399.75,-254.6"/>
</g>
</g>
</svg>
